STARTFONT 2.3
FONT -FontForge-Roboto Condensed-Book-R-Condensed---12-120-72-72-P-59-ISO10646-1
SIZE 12 72 72  2
FONTBOUNDINGBOX 21 18 -9 -3
COMMENT "Generated by fontforge, http://fontforge.sourceforge.net"
COMMENT "Copyright 2011 Google Inc. All Rights Reserved."
STARTPROPERTIES 42
FOUNDRY "FontForge"
FAMILY_NAME "Roboto Condensed"
WEIGHT_NAME "Book"
SLANT "R"
SETWIDTH_NAME "Condensed"
ADD_STYLE_NAME ""
PIXEL_SIZE 12
POINT_SIZE 120
RESOLUTION_X 72
RESOLUTION_Y 72
SPACING "P"
AVERAGE_WIDTH 59
CHARSET_REGISTRY "ISO10646"
CHARSET_ENCODING "1"
FONTNAME_REGISTRY ""
CHARSET_COLLECTIONS "ISO8859-2 ISO8859-5 ISO8859-7 ISO8859-9 ISO8859-4 ISO10646-1"
BITS_PER_PIXEL 2
FONT_NAME "RobotoCondensed-Regular"
FACE_NAME "Roboto Condensed"
COPYRIGHT "Copyright 2011 Google Inc. All Rights Reserved."
FONT_VERSION "2.137; 2017"
FONT_ASCENT 9
FONT_DESCENT 3
UNDERLINE_POSITION -1
UNDERLINE_THICKNESS 1
X_HEIGHT 6
CAP_HEIGHT 8
DEFAULT_CHAR 1
RAW_ASCENT 750
RAW_DESCENT 250
NORM_SPACE 3
RELATIVE_WEIGHT 40
RELATIVE_SETWIDTH 50
SUPERSCRIPT_X 0
SUPERSCRIPT_Y 5
SUPERSCRIPT_SIZE 7
SUBSCRIPT_X 0
SUBSCRIPT_Y 1
SUBSCRIPT_SIZE 7
FIGURE_WIDTH 6
AVG_LOWERCASE_WIDTH 58
AVG_UPPERCASE_WIDTH 68
ENDPROPERTIES
CHARS 1296
STARTCHAR uni0000
ENCODING 0
SWIDTH 0 0
DWIDTH 0 0
BBX 1 1 0 0
BITMAP
00
ENDCHAR
STARTCHAR uni0002
ENCODING 2
SWIDTH 0 0
DWIDTH 0 0
BBX 1 1 0 0
BITMAP
00
ENDCHAR
STARTCHAR uni000D
ENCODING 13
SWIDTH 229 0
DWIDTH 3 0
BBX 1 1 0 0
BITMAP
00
ENDCHAR
STARTCHAR space
ENCODING 32
SWIDTH 229 0
DWIDTH 3 0
BBX 1 1 0 0
BITMAP
00
ENDCHAR
STARTCHAR exclam
ENCODING 33
SWIDTH 245 0
DWIDTH 3 0
BBX 1 9 1 0
BITMAP
C0
C0
C0
C0
C0
C0
40
00
C0
ENDCHAR
STARTCHAR quotedbl
ENCODING 34
SWIDTH 319 0
DWIDTH 4 0
BBX 4 3 0 6
BITMAP
69
68
58
ENDCHAR
STARTCHAR numbersign
ENCODING 35
SWIDTH 547 0
DWIDTH 7 0
BBX 7 9 0 0
BITMAP
0260
0550
3FF4
0880
0880
7FF0
0880
1540
1540
ENDCHAR
STARTCHAR dollar
ENCODING 36
SWIDTH 493 0
DWIDTH 6 0
BBX 6 11 0 -1
BITMAP
0600
1F40
35C0
3080
2800
0B40
01C0
5090
30C0
1F40
0500
ENDCHAR
STARTCHAR percent
ENCODING 37
SWIDTH 632 0
DWIDTH 8 0
BBX 7 9 0 0
BITMAP
2D00
6620
6690
2D80
0240
0278
0888
0888
0078
ENDCHAR
STARTCHAR ampersand
ENCODING 38
SWIDTH 543 0
DWIDTH 7 0
BBX 6 9 0 0
BITMAP
1F40
2580
2580
1F00
1E00
3770
61E0
70E0
1F70
ENDCHAR
STARTCHAR quotesingle
ENCODING 39
SWIDTH 174 0
DWIDTH 2 0
BBX 2 3 0 6
BITMAP
50
50
50
ENDCHAR
STARTCHAR parenleft
ENCODING 40
SWIDTH 313 0
DWIDTH 4 0
BBX 4 13 0 -3
BITMAP
05
08
14
20
30
70
60
70
30
30
14
08
05
ENDCHAR
STARTCHAR parenright
ENCODING 41
SWIDTH 318 0
DWIDTH 4 0
BBX 3 13 0 -3
BITMAP
40
20
24
18
18
0C
0C
0C
18
18
24
20
40
ENDCHAR
STARTCHAR asterisk
ENCODING 42
SWIDTH 430 0
DWIDTH 5 0
BBX 5 5 0 4
BITMAP
0C00
5D80
2E00
2700
1100
ENDCHAR
STARTCHAR plus
ENCODING 43
SWIDTH 496 0
DWIDTH 6 0
BBX 6 7 0 1
BITMAP
0500
0A00
0A00
BFD0
0A00
0A00
0500
ENDCHAR
STARTCHAR comma
ENCODING 44
SWIDTH 196 0
DWIDTH 2 0
BBX 2 4 0 -2
BITMAP
10
60
60
90
ENDCHAR
STARTCHAR hyphen
ENCODING 45
SWIDTH 248 0
DWIDTH 3 0
BBX 3 1 0 3
BITMAP
B8
ENDCHAR
STARTCHAR period
ENCODING 46
SWIDTH 263 0
DWIDTH 3 0
BBX 1 2 1 0
BITMAP
40
C0
ENDCHAR
STARTCHAR slash
ENCODING 47
SWIDTH 370 0
DWIDTH 4 0
BBX 4 10 0 -1
BITMAP
03
06
09
0C
18
14
20
20
60
90
ENDCHAR
STARTCHAR zero
ENCODING 48
SWIDTH 493 0
DWIDTH 6 0
BBX 6 9 0 0
BITMAP
1F40
35C0
60C0
6090
6090
6090
60C0
35C0
1F40
ENDCHAR
STARTCHAR one
ENCODING 49
SWIDTH 493 0
DWIDTH 6 0
BBX 3 9 1 0
BITMAP
68
A8
18
18
18
18
18
18
18
ENDCHAR
STARTCHAR two
ENCODING 50
SWIDTH 493 0
DWIDTH 6 0
BBX 6 9 0 0
BITMAP
1F40
71C0
50C0
00C0
0240
0600
1C00
2400
7FD0
ENDCHAR
STARTCHAR three
ENCODING 51
SWIDTH 493 0
DWIDTH 6 0
BBX 5 9 0 0
BITMAP
1F40
31C0
10C0
0180
0F40
01C0
50C0
71C0
1F40
ENDCHAR
STARTCHAR four
ENCODING 52
SWIDTH 493 0
DWIDTH 6 0
BBX 6 9 0 0
BITMAP
0280
0780
0A80
1980
2580
6180
BFE0
0180
0180
ENDCHAR
STARTCHAR five
ENCODING 53
SWIDTH 493 0
DWIDTH 6 0
BBX 5 9 1 0
BITMAP
BF40
9000
9000
BD00
5700
0240
4240
D300
7D00
ENDCHAR
STARTCHAR six
ENCODING 54
SWIDTH 493 0
DWIDTH 6 0
BBX 6 9 0 0
BITMAP
0B40
2800
3000
3B40
75C0
6090
3090
25C0
1F40
ENDCHAR
STARTCHAR seven
ENCODING 55
SWIDTH 493 0
DWIDTH 6 0
BBX 6 9 0 0
BITMAP
BFD0
00C0
0180
0240
0300
0600
0900
0C00
1800
ENDCHAR
STARTCHAR eight
ENCODING 56
SWIDTH 493 0
DWIDTH 6 0
BBX 6 9 0 0
BITMAP
1F40
35C0
30C0
3580
1F40
31C0
60D0
31C0
1F40
ENDCHAR
STARTCHAR nine
ENCODING 57
SWIDTH 493 0
DWIDTH 6 0
BBX 5 9 0 0
BITMAP
1E00
3180
60C0
60C0
31C0
1EC0
00C0
0240
1E00
ENDCHAR
STARTCHAR colon
ENCODING 58
SWIDTH 233 0
DWIDTH 3 0
BBX 1 7 1 0
BITMAP
40
C0
00
00
00
40
C0
ENDCHAR
STARTCHAR semicolon
ENCODING 59
SWIDTH 202 0
DWIDTH 2 0
BBX 2 9 0 -2
BITMAP
10
70
00
00
00
10
70
60
90
ENDCHAR
STARTCHAR less
ENCODING 60
SWIDTH 445 0
DWIDTH 5 0
BBX 5 5 0 2
BITMAP
0140
1E00
B000
1E00
0140
ENDCHAR
STARTCHAR equal
ENCODING 61
SWIDTH 479 0
DWIDTH 6 0
BBX 4 3 1 2
BITMAP
FF
00
FF
ENDCHAR
STARTCHAR greater
ENCODING 62
SWIDTH 459 0
DWIDTH 6 0
BBX 5 5 0 2
BITMAP
6000
1A00
02C0
1A40
6000
ENDCHAR
STARTCHAR question
ENCODING 63
SWIDTH 421 0
DWIDTH 5 0
BBX 5 9 0 0
BITMAP
2E00
6240
0280
0340
0A00
0C00
0400
0000
0C00
ENDCHAR
STARTCHAR at
ENCODING 64
SWIDTH 769 0
DWIDTH 9 0
BBX 9 11 0 -3
BITMAP
02F800
0D0600
24F640
226580
622480
622080
623640
22DE00
300000
191000
07E000
ENDCHAR
STARTCHAR A
ENCODING 65
SWIDTH 576 0
DWIDTH 7 0
BBX 7 9 0 0
BITMAP
0300
0740
0A80
0CC0
1890
24A0
3FF0
7034
A028
ENDCHAR
STARTCHAR B
ENCODING 66
SWIDTH 545 0
DWIDTH 7 0
BBX 5 9 1 0
BITMAP
FE00
C280
C180
C240
FF00
C280
C180
C280
FE00
ENDCHAR
STARTCHAR C
ENCODING 67
SWIDTH 566 0
DWIDTH 7 0
BBX 7 9 0 0
BITMAP
0B90
2870
3024
7000
6000
7000
3020
2470
0B90
ENDCHAR
STARTCHAR D
ENCODING 68
SWIDTH 570 0
DWIDTH 7 0
BBX 5 9 1 0
BITMAP
FE00
C280
C0C0
C0C0
C0C0
C0C0
C0C0
C280
FE00
ENDCHAR
STARTCHAR E
ENCODING 69
SWIDTH 496 0
DWIDTH 6 0
BBX 5 9 1 0
BITMAP
FF40
C000
C000
C000
FF00
C000
C000
C000
FF80
ENDCHAR
STARTCHAR F
ENCODING 70
SWIDTH 480 0
DWIDTH 6 0
BBX 5 9 1 0
BITMAP
FF40
C000
C000
C000
FF00
C000
C000
C000
C000
ENDCHAR
STARTCHAR G
ENCODING 71
SWIDTH 590 0
DWIDTH 7 0
BBX 7 9 0 0
BITMAP
0B90
2470
3020
6000
6000
71F4
3024
2834
0BE0
ENDCHAR
STARTCHAR H
ENCODING 72
SWIDTH 620 0
DWIDTH 7 0
BBX 6 9 1 0
BITMAP
C0A0
C0A0
C0A0
C0A0
FFE0
C0A0
C0A0
C0A0
C0A0
ENDCHAR
STARTCHAR I
ENCODING 73
SWIDTH 250 0
DWIDTH 3 0
BBX 1 9 1 0
BITMAP
C0
C0
C0
C0
C0
C0
C0
C0
C0
ENDCHAR
STARTCHAR J
ENCODING 74
SWIDTH 483 0
DWIDTH 6 0
BBX 5 9 0 0
BITMAP
00C0
00C0
00C0
00C0
00C0
00C0
51C0
6280
2E00
ENDCHAR
STARTCHAR K
ENCODING 75
SWIDTH 544 0
DWIDTH 7 0
BBX 6 9 1 0
BITMAP
C1C0
C340
CA00
D800
F800
D900
C700
C280
C0D0
ENDCHAR
STARTCHAR L
ENCODING 76
SWIDTH 475 0
DWIDTH 6 0
BBX 5 9 1 0
BITMAP
C000
C000
C000
C000
C000
C000
C000
C000
FF40
ENDCHAR
STARTCHAR M
ENCODING 77
SWIDTH 755 0
DWIDTH 9 0
BBX 7 9 1 0
BITMAP
D01C
E02C
F03C
E46C
D89C
CCCC
C98C
C74C
C30C
ENDCHAR
STARTCHAR N
ENCODING 78
SWIDTH 619 0
DWIDTH 7 0
BBX 6 9 1 0
BITMAP
D0A0
E0A0
E4A0
D8A0
C9A0
C6A0
C2A0
C1E0
C0A0
ENDCHAR
STARTCHAR O
ENCODING 79
SWIDTH 600 0
DWIDTH 7 0
BBX 7 9 0 0
BITMAP
0B90
2870
3024
6024
6024
6024
3024
2870
0B90
ENDCHAR
STARTCHAR P
ENCODING 80
SWIDTH 554 0
DWIDTH 7 0
BBX 5 9 1 0
BITMAP
FF40
C1C0
C0C0
C1C0
FF40
C000
C000
C000
C000
ENDCHAR
STARTCHAR Q
ENCODING 81
SWIDTH 600 0
DWIDTH 7 0
BBX 7 10 0 -1
BITMAP
0B90
2470
3024
6024
6024
6024
3024
2470
0BE0
0074
ENDCHAR
STARTCHAR R
ENCODING 82
SWIDTH 530 0
DWIDTH 6 0
BBX 5 9 1 0
BITMAP
FE00
C280
C180
C280
FE00
C600
C340
C280
C1C0
ENDCHAR
STARTCHAR S
ENCODING 83
SWIDTH 518 0
DWIDTH 6 0
BBX 6 9 0 0
BITMAP
1F80
3490
7050
3400
1B40
0190
5060
74A0
1F80
ENDCHAR
STARTCHAR T
ENCODING 84
SWIDTH 520 0
DWIDTH 6 0
BBX 6 9 0 0
BITMAP
BFF0
0600
0600
0600
0600
0600
0600
0600
0600
ENDCHAR
STARTCHAR U
ENCODING 85
SWIDTH 561 0
DWIDTH 7 0
BBX 6 9 0 0
BITMAP
6030
6030
6030
6030
6030
6030
7030
3460
1F80
ENDCHAR
STARTCHAR V
ENCODING 86
SWIDTH 560 0
DWIDTH 7 0
BBX 7 9 0 0
BITMAP
A024
6030
3060
2490
18C0
0DC0
0E80
0B40
0700
ENDCHAR
STARTCHAR W
ENCODING 87
SWIDTH 761 0
DWIDTH 9 0
BBX 9 9 0 0
BITMAP
60D180
60D280
31A240
326300
262300
272600
1A1A00
1D1D00
0D0D00
ENDCHAR
STARTCHAR X
ENCODING 88
SWIDTH 550 0
DWIDTH 7 0
BBX 6 9 0 0
BITMAP
7070
2490
1DC0
0B40
0700
0F40
19C0
3490
7070
ENDCHAR
STARTCHAR Y
ENCODING 89
SWIDTH 524 0
DWIDTH 6 0
BBX 6 9 0 0
BITMAP
A070
7090
24C0
1980
0F00
0600
0600
0600
0600
ENDCHAR
STARTCHAR Z
ENCODING 90
SWIDTH 522 0
DWIDTH 6 0
BBX 6 9 0 0
BITMAP
7FE0
00D0
0180
0340
0A00
0C00
2800
3000
7FE0
ENDCHAR
STARTCHAR bracketleft
ENCODING 91
SWIDTH 250 0
DWIDTH 3 0
BBX 3 12 0 -2
BITMAP
78
70
70
70
70
70
70
70
70
70
70
78
ENDCHAR
STARTCHAR backslash
ENCODING 92
SWIDTH 369 0
DWIDTH 4 0
BBX 4 10 0 -1
BITMAP
90
60
30
24
18
0C
09
06
02
03
ENDCHAR
STARTCHAR bracketright
ENCODING 93
SWIDTH 250 0
DWIDTH 3 0
BBX 2 12 0 -2
BITMAP
B0
30
30
30
30
30
30
30
30
30
30
B0
ENDCHAR
STARTCHAR asciicircum
ENCODING 94
SWIDTH 371 0
DWIDTH 4 0
BBX 4 4 0 5
BITMAP
18
2C
25
63
ENDCHAR
STARTCHAR underscore
ENCODING 95
SWIDTH 404 0
DWIDTH 5 0
BBX 5 1 0 -1
BITMAP
FF80
ENDCHAR
STARTCHAR grave
ENCODING 96
SWIDTH 309 0
DWIDTH 4 0
BBX 3 2 0 7
BITMAP
70
24
ENDCHAR
STARTCHAR a
ENCODING 97
SWIDTH 479 0
DWIDTH 6 0
BBX 5 7 0 0
BITMAP
1F40
3180
00C0
1FC0
70C0
71C0
2EC0
ENDCHAR
STARTCHAR b
ENCODING 98
SWIDTH 493 0
DWIDTH 6 0
BBX 6 9 0 0
BITMAP
6000
6000
7B40
74C0
6090
6090
6090
74C0
6B40
ENDCHAR
STARTCHAR c
ENCODING 99
SWIDTH 461 0
DWIDTH 6 0
BBX 5 7 0 0
BITMAP
1F40
31C0
6040
6000
6040
31C0
1F40
ENDCHAR
STARTCHAR d
ENCODING 100
SWIDTH 496 0
DWIDTH 6 0
BBX 5 9 0 0
BITMAP
00C0
00C0
2EC0
31C0
60C0
60C0
60C0
31C0
2EC0
ENDCHAR
STARTCHAR e
ENCODING 101
SWIDTH 468 0
DWIDTH 6 0
BBX 5 7 0 0
BITMAP
1F40
31C0
60C0
7FC0
6000
3040
1F80
ENDCHAR
STARTCHAR f
ENCODING 102
SWIDTH 316 0
DWIDTH 4 0
BBX 4 9 0 0
BITMAP
1E
24
BD
24
24
24
24
24
24
ENDCHAR
STARTCHAR g
ENCODING 103
SWIDTH 492 0
DWIDTH 6 0
BBX 5 9 0 -2
BITMAP
2EC0
71C0
60C0
60C0
60C0
31C0
2EC0
01C0
2F40
ENDCHAR
STARTCHAR h
ENCODING 104
SWIDTH 482 0
DWIDTH 6 0
BBX 5 9 0 0
BITMAP
6000
6000
7B40
75C0
60C0
60C0
60C0
60C0
60C0
ENDCHAR
STARTCHAR i
ENCODING 105
SWIDTH 229 0
DWIDTH 3 0
BBX 1 9 1 0
BITMAP
80
00
C0
C0
C0
C0
C0
C0
C0
ENDCHAR
STARTCHAR j
ENCODING 106
SWIDTH 223 0
DWIDTH 3 0
BBX 2 11 0 -2
BITMAP
60
00
60
60
60
60
60
60
60
60
D0
ENDCHAR
STARTCHAR k
ENCODING 107
SWIDTH 450 0
DWIDTH 5 0
BBX 5 9 0 0
BITMAP
6000
6000
6180
6300
6900
7D00
7700
6240
61C0
ENDCHAR
STARTCHAR l
ENCODING 108
SWIDTH 229 0
DWIDTH 3 0
BBX 1 9 1 0
BITMAP
C0
C0
C0
C0
C0
C0
C0
C0
C0
ENDCHAR
STARTCHAR m
ENCODING 109
SWIDTH 752 0
DWIDTH 9 0
BBX 9 7 0 0
BITMAP
7B6E00
75D300
60C240
60C240
60C240
60C240
60C240
ENDCHAR
STARTCHAR n
ENCODING 110
SWIDTH 483 0
DWIDTH 6 0
BBX 5 7 0 0
BITMAP
6B40
75C0
60C0
60C0
60C0
60C0
60C0
ENDCHAR
STARTCHAR o
ENCODING 111
SWIDTH 501 0
DWIDTH 6 0
BBX 6 7 0 0
BITMAP
1F40
35C0
6090
6090
6090
34C0
1F40
ENDCHAR
STARTCHAR p
ENCODING 112
SWIDTH 493 0
DWIDTH 6 0
BBX 6 9 0 -2
BITMAP
6B40
75C0
6090
6090
6090
71C0
7B40
6000
6000
ENDCHAR
STARTCHAR q
ENCODING 113
SWIDTH 500 0
DWIDTH 6 0
BBX 5 9 0 -2
BITMAP
2EC0
71C0
60C0
60C0
60C0
71C0
2EC0
00C0
00C0
ENDCHAR
STARTCHAR r
ENCODING 114
SWIDTH 304 0
DWIDTH 4 0
BBX 4 7 0 0
BITMAP
79
74
60
60
60
60
60
ENDCHAR
STARTCHAR s
ENCODING 115
SWIDTH 455 0
DWIDTH 5 0
BBX 5 7 0 0
BITMAP
2F40
3180
3400
1E00
0280
6180
2F40
ENDCHAR
STARTCHAR t
ENCODING 116
SWIDTH 295 0
DWIDTH 4 0
BBX 3 9 0 0
BITMAP
30
30
FC
30
30
30
30
34
2C
ENDCHAR
STARTCHAR u
ENCODING 117
SWIDTH 483 0
DWIDTH 6 0
BBX 5 7 0 0
BITMAP
60C0
60C0
60C0
60C0
60C0
31C0
2EC0
ENDCHAR
STARTCHAR v
ENCODING 118
SWIDTH 427 0
DWIDTH 5 0
BBX 5 7 0 0
BITMAP
9180
6240
3200
2700
2A00
1D00
0C00
ENDCHAR
STARTCHAR w
ENCODING 119
SWIDTH 649 0
DWIDTH 8 0
BBX 8 7 0 0
BITMAP
9249
6388
22CC
3698
2DA4
2C74
1830
ENDCHAR
STARTCHAR x
ENCODING 120
SWIDTH 438 0
DWIDTH 5 0
BBX 5 7 0 0
BITMAP
6280
3700
1E00
0D00
1E00
3340
6180
ENDCHAR
STARTCHAR y
ENCODING 121
SWIDTH 416 0
DWIDTH 5 0
BBX 5 9 0 -2
BITMAP
9180
6240
3300
2600
1D00
1D00
0C00
1800
7000
ENDCHAR
STARTCHAR z
ENCODING 122
SWIDTH 438 0
DWIDTH 5 0
BBX 5 7 0 0
BITMAP
7F80
0240
0600
0D00
2800
3000
7F80
ENDCHAR
STARTCHAR braceleft
ENCODING 123
SWIDTH 306 0
DWIDTH 4 0
BBX 4 11 0 -2
BITMAP
09
18
24
24
24
B0
24
24
24
18
09
ENDCHAR
STARTCHAR bar
ENCODING 124
SWIDTH 243 0
DWIDTH 3 0
BBX 1 11 1 -2
BITMAP
C0
C0
C0
C0
C0
C0
C0
C0
C0
C0
C0
ENDCHAR
STARTCHAR braceright
ENCODING 125
SWIDTH 306 0
DWIDTH 4 0
BBX 4 11 0 -2
BITMAP
90
30
24
24
24
0D
24
24
24
30
90
ENDCHAR
STARTCHAR asciitilde
ENCODING 126
SWIDTH 589 0
DWIDTH 7 0
BBX 7 2 0 2
BITMAP
2E24
62E0
ENDCHAR
STARTCHAR uni00A0
ENCODING 160
SWIDTH 229 0
DWIDTH 3 0
BBX 1 1 0 0
BITMAP
00
ENDCHAR
STARTCHAR exclamdown
ENCODING 161
SWIDTH 231 0
DWIDTH 3 0
BBX 1 9 1 -2
BITMAP
80
00
40
C0
C0
C0
C0
C0
C0
ENDCHAR
STARTCHAR cent
ENCODING 162
SWIDTH 479 0
DWIDTH 6 0
BBX 5 11 0 -2
BITMAP
0400
0900
1F40
35C0
6040
6000
6000
34C0
1F40
0900
0500
ENDCHAR
STARTCHAR sterling
ENCODING 163
SWIDTH 510 0
DWIDTH 6 0
BBX 6 9 0 0
BITMAP
0B80
2890
2450
2400
7F00
2400
2400
2400
7FE0
ENDCHAR
STARTCHAR currency
ENCODING 164
SWIDTH 712 0
DWIDTH 9 0
BBX 7 7 1 0
BITMAP
EFA8
A474
C018
C018
C018
A074
9F98
ENDCHAR
STARTCHAR yen
ENCODING 165
SWIDTH 463 0
DWIDTH 6 0
BBX 6 9 0 0
BITMAP
A0D0
3180
2640
1A00
7F80
0900
7F80
0900
0900
ENDCHAR
STARTCHAR brokenbar
ENCODING 166
SWIDTH 239 0
DWIDTH 3 0
BBX 1 11 1 -2
BITMAP
C0
C0
C0
C0
C0
00
C0
C0
C0
C0
C0
ENDCHAR
STARTCHAR section
ENCODING 167
SWIDTH 537 0
DWIDTH 6 0
BBX 6 12 0 -3
BITMAP
1F80
3490
3050
2900
3B80
60A0
7060
2E90
02D0
50A0
7490
1F80
ENDCHAR
STARTCHAR dieresis
ENCODING 168
SWIDTH 417 0
DWIDTH 5 0
BBX 5 1 0 7
BITMAP
6240
ENDCHAR
STARTCHAR copyright
ENCODING 169
SWIDTH 785 0
DWIDTH 9 0
BBX 9 9 0 0
BITMAP
06F800
190A00
22E140
561480
550080
561480
22E140
190A00
06F800
ENDCHAR
STARTCHAR ordfeminine
ENCODING 170
SWIDTH 395 0
DWIDTH 5 0
BBX 3 5 1 4
BITMAP
B4
4C
BC
CC
BC
ENDCHAR
STARTCHAR guillemotleft
ENCODING 171
SWIDTH 417 0
DWIDTH 5 0
BBX 5 5 0 1
BITMAP
1A40
2600
6900
2600
1A40
ENDCHAR
STARTCHAR logicalnot
ENCODING 172
SWIDTH 487 0
DWIDTH 6 0
BBX 5 2 0 3
BITMAP
7FC0
01C0
ENDCHAR
STARTCHAR uni00AD
ENCODING 173
SWIDTH 248 0
DWIDTH 3 0
BBX 3 1 0 3
BITMAP
B8
ENDCHAR
STARTCHAR registered
ENCODING 174
SWIDTH 786 0
DWIDTH 9 0
BBX 9 9 0 0
BITMAP
06F800
190A00
23F140
522480
53F080
522480
221940
190A00
06F800
ENDCHAR
STARTCHAR macron
ENCODING 175
SWIDTH 414 0
DWIDTH 5 0
BBX 5 1 0 7
BITMAP
7F40
ENDCHAR
STARTCHAR degree
ENCODING 176
SWIDTH 373 0
DWIDTH 4 0
BBX 4 3 0 6
BITMAP
2D
66
2D
ENDCHAR
STARTCHAR plusminus
ENCODING 177
SWIDTH 469 0
DWIDTH 6 0
BBX 5 8 0 0
BITMAP
0400
0900
0900
7FC0
0900
0900
0000
7FC0
ENDCHAR
STARTCHAR uni00B2
ENCODING 178
SWIDTH 329 0
DWIDTH 4 0
BBX 4 5 0 4
BITMAP
3C
59
08
24
7E
ENDCHAR
STARTCHAR uni00B3
ENCODING 179
SWIDTH 329 0
DWIDTH 4 0
BBX 4 5 0 4
BITMAP
7C
59
2C
59
7C
ENDCHAR
STARTCHAR acute
ENCODING 180
SWIDTH 313 0
DWIDTH 4 0
BBX 2 2 1 7
BITMAP
A0
80
ENDCHAR
STARTCHAR mu
ENCODING 181
SWIDTH 498 0
DWIDTH 6 0
BBX 4 9 1 -2
BITMAP
C3
C3
C3
C3
C3
D7
FB
C0
C0
ENDCHAR
STARTCHAR paragraph
ENCODING 182
SWIDTH 434 0
DWIDTH 5 0
BBX 5 9 0 0
BITMAP
0600
3F40
7F40
BF40
7F40
2F40
0240
0240
0240
ENDCHAR
STARTCHAR periodcentered
ENCODING 183
SWIDTH 243 0
DWIDTH 3 0
BBX 1 2 1 3
BITMAP
C0
40
ENDCHAR
STARTCHAR cedilla
ENCODING 184
SWIDTH 229 0
DWIDTH 3 0
BBX 2 2 0 -2
BITMAP
10
70
ENDCHAR
STARTCHAR uni00B9
ENCODING 185
SWIDTH 329 0
DWIDTH 4 0
BBX 3 5 0 4
BITMAP
18
68
18
18
18
ENDCHAR
STARTCHAR ordmasculine
ENCODING 186
SWIDTH 402 0
DWIDTH 5 0
BBX 4 5 0 4
BITMAP
2D
63
62
63
2D
ENDCHAR
STARTCHAR guillemotright
ENCODING 187
SWIDTH 417 0
DWIDTH 5 0
BBX 5 5 0 1
BITMAP
6500
2600
1A40
2600
2500
ENDCHAR
STARTCHAR onequarter
ENCODING 188
SWIDTH 637 0
DWIDTH 8 0
BBX 8 9 0 0
BITMAP
2400
7420
2490
2480
2658
0238
0898
08FD
0018
ENDCHAR
STARTCHAR onehalf
ENCODING 189
SWIDTH 677 0
DWIDTH 8 0
BBX 8 9 0 0
BITMAP
2400
7450
2480
2580
267C
0559
0808
1420
007E
ENDCHAR
STARTCHAR threequarters
ENCODING 190
SWIDTH 673 0
DWIDTH 8 0
BBX 7 9 1 0
BITMAP
B400
5850
7480
5940
B630
09B0
09A0
16F8
0020
ENDCHAR
STARTCHAR questiondown
ENCODING 191
SWIDTH 421 0
DWIDTH 5 0
BBX 5 9 0 -2
BITMAP
0C00
0000
0400
0C00
2400
6000
9000
6240
2E00
ENDCHAR
STARTCHAR Agrave
ENCODING 192
SWIDTH 576 0
DWIDTH 7 0
BBX 7 12 0 0
BITMAP
0D00
0600
0000
0300
0740
0A80
0CC0
1890
24A0
3FF0
7034
A028
ENDCHAR
STARTCHAR Aacute
ENCODING 193
SWIDTH 576 0
DWIDTH 7 0
BBX 7 12 0 0
BITMAP
01C0
0240
0000
0300
0740
0A80
0CC0
1890
24A0
3FF0
7034
A028
ENDCHAR
STARTCHAR Acircumflex
ENCODING 194
SWIDTH 576 0
DWIDTH 7 0
BBX 7 12 0 0
BITMAP
0740
0980
0000
0300
0740
0A80
0CC0
1890
24A0
3FF0
7034
A028
ENDCHAR
STARTCHAR Atilde
ENCODING 195
SWIDTH 576 0
DWIDTH 7 0
BBX 7 12 0 0
BITMAP
0D90
1A80
0000
0300
0740
0A80
0CC0
1890
24A0
3FF0
7034
A028
ENDCHAR
STARTCHAR Adieresis
ENCODING 196
SWIDTH 576 0
DWIDTH 7 0
BBX 7 11 0 0
BITMAP
1890
0000
0300
0740
0A80
0CC0
1890
24A0
3FF0
7034
A028
ENDCHAR
STARTCHAR Aring
ENCODING 197
SWIDTH 576 0
DWIDTH 7 0
BBX 7 13 0 0
BITMAP
0640
0880
0640
0000
0300
0740
0A80
0CC0
1890
24A0
3FF0
7034
A028
ENDCHAR
STARTCHAR AE
ENCODING 198
SWIDTH 812 0
DWIDTH 10 0
BBX 10 9 0 0
BITMAP
00FFD0
01E000
036000
067000
0D3F80
1C3000
2FF000
703000
903FD0
ENDCHAR
STARTCHAR Ccedilla
ENCODING 199
SWIDTH 566 0
DWIDTH 7 0
BBX 7 11 0 -2
BITMAP
0B90
2870
3024
7000
6000
7000
3020
2470
0B90
0100
0340
ENDCHAR
STARTCHAR Egrave
ENCODING 200
SWIDTH 496 0
DWIDTH 6 0
BBX 5 12 1 0
BITMAP
7000
2400
0000
FF40
C000
C000
C000
FF00
C000
C000
C000
FF80
ENDCHAR
STARTCHAR Eacute
ENCODING 201
SWIDTH 496 0
DWIDTH 6 0
BBX 5 12 1 0
BITMAP
0A00
1800
0000
FF40
C000
C000
C000
FF00
C000
C000
C000
FF80
ENDCHAR
STARTCHAR Ecircumflex
ENCODING 202
SWIDTH 496 0
DWIDTH 6 0
BBX 5 12 1 0
BITMAP
2800
2500
0000
FF40
C000
C000
C000
FF00
C000
C000
C000
FF80
ENDCHAR
STARTCHAR Edieresis
ENCODING 203
SWIDTH 496 0
DWIDTH 6 0
BBX 5 11 1 0
BITMAP
9300
0000
FF40
C000
C000
C000
FF00
C000
C000
C000
FF80
ENDCHAR
STARTCHAR Igrave
ENCODING 204
SWIDTH 250 0
DWIDTH 3 0
BBX 2 12 0 0
BITMAP
D0
60
00
30
30
30
30
30
30
30
30
30
ENDCHAR
STARTCHAR Iacute
ENCODING 205
SWIDTH 250 0
DWIDTH 3 0
BBX 2 12 1 0
BITMAP
70
90
00
C0
C0
C0
C0
C0
C0
C0
C0
C0
ENDCHAR
STARTCHAR Icircumflex
ENCODING 206
SWIDTH 250 0
DWIDTH 3 0
BBX 3 12 0 0
BITMAP
74
98
00
30
30
30
30
30
30
30
30
30
ENDCHAR
STARTCHAR Idieresis
ENCODING 207
SWIDTH 250 0
DWIDTH 3 0
BBX 5 11 -1 0
BITMAP
6240
0000
0C00
0C00
0C00
0C00
0C00
0C00
0C00
0C00
0C00
ENDCHAR
STARTCHAR Eth
ENCODING 208
SWIDTH 585 0
DWIDTH 7 0
BBX 7 9 0 0
BITMAP
3F80
34A0
3430
3424
FD24
3424
3430
34A0
3F80
ENDCHAR
STARTCHAR Ntilde
ENCODING 209
SWIDTH 619 0
DWIDTH 7 0
BBX 6 12 1 0
BITMAP
2940
2700
0000
D0A0
E0A0
E4A0
D8A0
C9A0
C6A0
C2A0
C1E0
C0A0
ENDCHAR
STARTCHAR Ograve
ENCODING 210
SWIDTH 600 0
DWIDTH 7 0
BBX 7 12 0 0
BITMAP
0900
0200
0000
0B90
2870
3024
6024
6024
6024
3024
2870
0B90
ENDCHAR
STARTCHAR Oacute
ENCODING 211
SWIDTH 600 0
DWIDTH 7 0
BBX 7 12 0 0
BITMAP
01C0
0240
0000
0B90
2870
3024
6024
6024
6024
3024
2870
0B90
ENDCHAR
STARTCHAR Ocircumflex
ENCODING 212
SWIDTH 600 0
DWIDTH 7 0
BBX 7 12 0 0
BITMAP
0740
0980
0000
0B90
2870
3024
6024
6024
6024
3024
2870
0B90
ENDCHAR
STARTCHAR Otilde
ENCODING 213
SWIDTH 600 0
DWIDTH 7 0
BBX 7 12 0 0
BITMAP
0A50
09C0
0000
0B90
2870
3024
6024
6024
6024
3024
2870
0B90
ENDCHAR
STARTCHAR Odieresis
ENCODING 214
SWIDTH 600 0
DWIDTH 7 0
BBX 7 11 0 0
BITMAP
0C90
0000
0B90
2870
3024
6024
6024
6024
3024
2870
0B90
ENDCHAR
STARTCHAR multiply
ENCODING 215
SWIDTH 470 0
DWIDTH 6 0
BBX 5 6 0 1
BITMAP
6080
3680
1E00
1E00
3680
6080
ENDCHAR
STARTCHAR Oslash
ENCODING 216
SWIDTH 600 0
DWIDTH 7 0
BBX 7 10 0 -1
BITMAP
0BA4
2870
30B4
60A4
6268
6224
3924
2870
2B90
1000
ENDCHAR
STARTCHAR Ugrave
ENCODING 217
SWIDTH 561 0
DWIDTH 7 0
BBX 6 12 0 0
BITMAP
0D00
0600
0000
6030
6030
6030
6030
6030
6030
7030
3460
1F80
ENDCHAR
STARTCHAR Uacute
ENCODING 218
SWIDTH 561 0
DWIDTH 7 0
BBX 6 12 0 0
BITMAP
0180
0200
0000
6030
6030
6030
6030
6030
6030
7030
3460
1F80
ENDCHAR
STARTCHAR Ucircumflex
ENCODING 219
SWIDTH 561 0
DWIDTH 7 0
BBX 6 12 0 0
BITMAP
0700
0980
0000
6030
6030
6030
6030
6030
6030
7030
3460
1F80
ENDCHAR
STARTCHAR Udieresis
ENCODING 220
SWIDTH 561 0
DWIDTH 7 0
BBX 6 11 0 0
BITMAP
18C0
0000
6030
6030
6030
6030
6030
6030
7030
3460
1F80
ENDCHAR
STARTCHAR Yacute
ENCODING 221
SWIDTH 524 0
DWIDTH 6 0
BBX 6 12 0 0
BITMAP
0280
0600
0000
A070
7090
24C0
1980
0F00
0600
0600
0600
0600
ENDCHAR
STARTCHAR Thorn
ENCODING 222
SWIDTH 515 0
DWIDTH 6 0
BBX 5 9 1 0
BITMAP
C000
C000
FE00
C240
C180
C240
FE00
C000
C000
ENDCHAR
STARTCHAR germandbls
ENCODING 223
SWIDTH 521 0
DWIDTH 6 0
BBX 6 9 0 0
BITMAP
1F40
3180
6180
6240
6300
6180
60A0
60A0
67D0
ENDCHAR
STARTCHAR agrave
ENCODING 224
SWIDTH 479 0
DWIDTH 6 0
BBX 5 10 0 0
BITMAP
1800
0900
0000
1F40
3180
00C0
1FC0
70C0
71C0
2EC0
ENDCHAR
STARTCHAR aacute
ENCODING 225
SWIDTH 479 0
DWIDTH 6 0
BBX 5 10 0 0
BITMAP
0240
0600
0000
1F40
3180
00C0
1FC0
70C0
71C0
2EC0
ENDCHAR
STARTCHAR acircumflex
ENCODING 226
SWIDTH 479 0
DWIDTH 6 0
BBX 5 10 0 0
BITMAP
0A00
1A40
0000
1F40
3180
00C0
1FC0
70C0
71C0
2EC0
ENDCHAR
STARTCHAR atilde
ENCODING 227
SWIDTH 479 0
DWIDTH 6 0
BBX 5 10 0 0
BITMAP
1880
2740
0000
1F40
3180
00C0
1FC0
70C0
71C0
2EC0
ENDCHAR
STARTCHAR adieresis
ENCODING 228
SWIDTH 479 0
DWIDTH 6 0
BBX 5 9 0 0
BITMAP
2580
0000
1F40
3180
00C0
1FC0
70C0
71C0
2EC0
ENDCHAR
STARTCHAR aring
ENCODING 229
SWIDTH 479 0
DWIDTH 6 0
BBX 5 11 0 0
BITMAP
0A00
1540
0A00
0000
1F40
3180
00C0
1FC0
70C0
71C0
2EC0
ENDCHAR
STARTCHAR ae
ENCODING 230
SWIDTH 728 0
DWIDTH 9 0
BBX 9 7 0 0
BITMAP
2E7D00
72D300
01C240
2FFF40
61C000
62D100
2E7E00
ENDCHAR
STARTCHAR ccedilla
ENCODING 231
SWIDTH 461 0
DWIDTH 6 0
BBX 5 9 0 -2
BITMAP
1F40
31C0
6040
6000
6040
31C0
1F40
0400
0A00
ENDCHAR
STARTCHAR egrave
ENCODING 232
SWIDTH 468 0
DWIDTH 6 0
BBX 5 10 0 0
BITMAP
2800
0900
0000
1F40
31C0
60C0
7FC0
6000
3040
1F80
ENDCHAR
STARTCHAR eacute
ENCODING 233
SWIDTH 468 0
DWIDTH 6 0
BBX 5 10 0 0
BITMAP
0340
0600
0000
1F40
31C0
60C0
7FC0
6000
3040
1F80
ENDCHAR
STARTCHAR ecircumflex
ENCODING 234
SWIDTH 468 0
DWIDTH 6 0
BBX 5 10 0 0
BITMAP
0A00
1640
0000
1F40
31C0
60C0
7FC0
6000
3040
1F80
ENDCHAR
STARTCHAR edieresis
ENCODING 235
SWIDTH 468 0
DWIDTH 6 0
BBX 5 9 0 0
BITMAP
3580
0000
1F40
31C0
60C0
7FC0
6000
3040
1F80
ENDCHAR
STARTCHAR igrave
ENCODING 236
SWIDTH 234 0
DWIDTH 3 0
BBX 2 10 0 0
BITMAP
D0
60
00
30
30
30
30
30
30
30
ENDCHAR
STARTCHAR iacute
ENCODING 237
SWIDTH 234 0
DWIDTH 3 0
BBX 2 10 1 0
BITMAP
60
80
00
C0
C0
C0
C0
C0
C0
C0
ENDCHAR
STARTCHAR icircumflex
ENCODING 238
SWIDTH 234 0
DWIDTH 3 0
BBX 3 10 0 0
BITMAP
74
98
00
30
30
30
30
30
30
30
ENDCHAR
STARTCHAR idieresis
ENCODING 239
SWIDTH 234 0
DWIDTH 3 0
BBX 5 9 -1 0
BITMAP
6240
0000
0C00
0C00
0C00
0C00
0C00
0C00
0C00
ENDCHAR
STARTCHAR eth
ENCODING 240
SWIDTH 513 0
DWIDTH 6 0
BBX 6 9 0 0
BITMAP
2840
0B40
0A80
1EC0
34D0
6090
6090
35C0
1F40
ENDCHAR
STARTCHAR ntilde
ENCODING 241
SWIDTH 483 0
DWIDTH 6 0
BBX 5 10 0 0
BITMAP
1980
2740
0000
6B40
75C0
60C0
60C0
60C0
60C0
60C0
ENDCHAR
STARTCHAR ograve
ENCODING 242
SWIDTH 501 0
DWIDTH 6 0
BBX 6 10 0 0
BITMAP
1800
0900
0000
1F40
35C0
6090
6090
6090
34C0
1F40
ENDCHAR
STARTCHAR oacute
ENCODING 243
SWIDTH 501 0
DWIDTH 6 0
BBX 6 10 0 0
BITMAP
0340
0600
0000
1F40
35C0
6090
6090
6090
34C0
1F40
ENDCHAR
STARTCHAR ocircumflex
ENCODING 244
SWIDTH 501 0
DWIDTH 6 0
BBX 6 10 0 0
BITMAP
0A00
1A40
0000
1F40
35C0
6090
6090
6090
34C0
1F40
ENDCHAR
STARTCHAR otilde
ENCODING 245
SWIDTH 501 0
DWIDTH 6 0
BBX 6 10 0 0
BITMAP
1980
2740
0000
1F40
35C0
6090
6090
6090
34C0
1F40
ENDCHAR
STARTCHAR odieresis
ENCODING 246
SWIDTH 501 0
DWIDTH 6 0
BBX 6 9 0 0
BITMAP
2580
0000
1F40
35C0
6090
6090
6090
34C0
1F40
ENDCHAR
STARTCHAR divide
ENCODING 247
SWIDTH 500 0
DWIDTH 6 0
BBX 6 7 0 1
BITMAP
0500
0500
0000
BFD0
0000
0500
0500
ENDCHAR
STARTCHAR oslash
ENCODING 248
SWIDTH 498 0
DWIDTH 6 0
BBX 6 9 0 -1
BITMAP
0040
1F80
36C0
6290
6590
6890
39C0
2F40
1000
ENDCHAR
STARTCHAR ugrave
ENCODING 249
SWIDTH 483 0
DWIDTH 6 0
BBX 5 10 0 0
BITMAP
2800
0900
0000
60C0
60C0
60C0
60C0
60C0
31C0
2EC0
ENDCHAR
STARTCHAR uacute
ENCODING 250
SWIDTH 483 0
DWIDTH 6 0
BBX 5 10 0 0
BITMAP
0340
0600
0000
60C0
60C0
60C0
60C0
60C0
31C0
2EC0
ENDCHAR
STARTCHAR ucircumflex
ENCODING 251
SWIDTH 483 0
DWIDTH 6 0
BBX 5 10 0 0
BITMAP
0A00
1640
0000
60C0
60C0
60C0
60C0
60C0
31C0
2EC0
ENDCHAR
STARTCHAR udieresis
ENCODING 252
SWIDTH 483 0
DWIDTH 6 0
BBX 5 9 0 0
BITMAP
3580
0000
60C0
60C0
60C0
60C0
60C0
31C0
2EC0
ENDCHAR
STARTCHAR yacute
ENCODING 253
SWIDTH 416 0
DWIDTH 5 0
BBX 5 12 0 -2
BITMAP
0700
0900
0000
9180
6240
3300
2600
1D00
1D00
0C00
1800
7000
ENDCHAR
STARTCHAR thorn
ENCODING 254
SWIDTH 508 0
DWIDTH 6 0
BBX 6 11 0 -2
BITMAP
7000
7000
7B40
75C0
7090
7090
7090
75C0
7B40
7000
7000
ENDCHAR
STARTCHAR ydieresis
ENCODING 255
SWIDTH 416 0
DWIDTH 5 0
BBX 5 11 0 -2
BITMAP
7240
0000
9180
6240
3300
2600
1D00
1D00
0C00
1800
7000
ENDCHAR
STARTCHAR Amacron
ENCODING 256
SWIDTH 576 0
DWIDTH 7 0
BBX 7 11 0 0
BITMAP
1FD0
0000
0300
0740
0A80
0CC0
1890
24A0
3FF0
7034
A028
ENDCHAR
STARTCHAR amacron
ENCODING 257
SWIDTH 479 0
DWIDTH 6 0
BBX 5 9 0 0
BITMAP
2F80
0000
1F40
3180
00C0
1FC0
70C0
71C0
2EC0
ENDCHAR
STARTCHAR Abreve
ENCODING 258
SWIDTH 576 0
DWIDTH 7 0
BBX 7 12 0 0
BITMAP
1880
0B80
0000
0300
0740
0A80
0CC0
1890
24A0
3FF0
7034
A028
ENDCHAR
STARTCHAR abreve
ENCODING 259
SWIDTH 479 0
DWIDTH 6 0
BBX 5 10 0 0
BITMAP
2580
1F40
0000
1F40
3180
00C0
1FC0
70C0
71C0
2EC0
ENDCHAR
STARTCHAR Aogonek
ENCODING 260
SWIDTH 576 0
DWIDTH 7 0
BBX 7 11 0 -2
BITMAP
0300
0740
0A80
0CC0
1890
24A0
3FF0
7034
A028
0020
0034
ENDCHAR
STARTCHAR aogonek
ENCODING 261
SWIDTH 479 0
DWIDTH 6 0
BBX 5 9 0 -2
BITMAP
1F40
3180
00C0
1FC0
70C0
71C0
2EC0
0140
02C0
ENDCHAR
STARTCHAR Cacute
ENCODING 262
SWIDTH 566 0
DWIDTH 7 0
BBX 7 12 0 0
BITMAP
01C0
0240
0000
0B90
2870
3024
7000
6000
7000
3020
2470
0B90
ENDCHAR
STARTCHAR cacute
ENCODING 263
SWIDTH 461 0
DWIDTH 6 0
BBX 5 10 0 0
BITMAP
0340
0900
0000
1F40
31C0
6040
6000
6040
31C0
1F40
ENDCHAR
STARTCHAR Ccircumflex
ENCODING 264
SWIDTH 566 0
DWIDTH 7 0
BBX 7 12 0 0
BITMAP
0740
0980
0000
0B90
2870
3024
7000
6000
7000
3020
2470
0B90
ENDCHAR
STARTCHAR ccircumflex
ENCODING 265
SWIDTH 461 0
DWIDTH 6 0
BBX 5 10 0 0
BITMAP
0D00
2600
0000
1F40
31C0
6040
6000
6040
31C0
1F40
ENDCHAR
STARTCHAR Cdotaccent
ENCODING 266
SWIDTH 566 0
DWIDTH 7 0
BBX 7 11 0 0
BITMAP
0300
0000
0B90
2870
3024
7000
6000
7000
3020
2470
0B90
ENDCHAR
STARTCHAR cdotaccent
ENCODING 267
SWIDTH 461 0
DWIDTH 6 0
BBX 5 9 0 0
BITMAP
0900
0000
1F40
31C0
6040
6000
6040
31C0
1F40
ENDCHAR
STARTCHAR Ccaron
ENCODING 268
SWIDTH 566 0
DWIDTH 7 0
BBX 7 12 0 0
BITMAP
0980
0700
0000
0B90
2870
3024
7000
6000
7000
3020
2470
0B90
ENDCHAR
STARTCHAR ccaron
ENCODING 269
SWIDTH 461 0
DWIDTH 6 0
BBX 5 10 0 0
BITMAP
2600
0D00
0000
1F40
31C0
6040
6000
6040
31C0
1F40
ENDCHAR
STARTCHAR Dcaron
ENCODING 270
SWIDTH 570 0
DWIDTH 7 0
BBX 5 12 1 0
BITMAP
6500
2800
0000
FE00
C280
C0C0
C0C0
C0C0
C0C0
C0C0
C280
FE00
ENDCHAR
STARTCHAR dcaron
ENCODING 271
SWIDTH 569 0
DWIDTH 7 0
BBX 7 9 0 0
BITMAP
00D8
00E4
2EC0
31C0
60C0
60C0
60C0
31C0
2EC0
ENDCHAR
STARTCHAR Dcroat
ENCODING 272
SWIDTH 585 0
DWIDTH 7 0
BBX 7 9 0 0
BITMAP
3F80
34A0
3430
3424
FD24
3424
3430
34A0
3F80
ENDCHAR
STARTCHAR dcroat
ENCODING 273
SWIDTH 529 0
DWIDTH 6 0
BBX 6 9 0 0
BITMAP
00C0
03F0
1EC0
35C0
60C0
60C0
60C0
35C0
1EC0
ENDCHAR
STARTCHAR Emacron
ENCODING 274
SWIDTH 496 0
DWIDTH 6 0
BBX 5 11 1 0
BITMAP
BF00
0000
FF40
C000
C000
C000
FF00
C000
C000
C000
FF80
ENDCHAR
STARTCHAR emacron
ENCODING 275
SWIDTH 468 0
DWIDTH 6 0
BBX 5 9 0 0
BITMAP
2F80
0000
1F40
31C0
60C0
7FC0
6000
3040
1F80
ENDCHAR
STARTCHAR Ebreve
ENCODING 276
SWIDTH 496 0
DWIDTH 6 0
BBX 5 12 1 0
BITMAP
9300
2D00
0000
FF40
C000
C000
C000
FF00
C000
C000
C000
FF80
ENDCHAR
STARTCHAR ebreve
ENCODING 277
SWIDTH 468 0
DWIDTH 6 0
BBX 5 10 0 0
BITMAP
2580
1F00
0000
1F40
31C0
60C0
7FC0
6000
3040
1F80
ENDCHAR
STARTCHAR Edotaccent
ENCODING 278
SWIDTH 496 0
DWIDTH 6 0
BBX 5 11 1 0
BITMAP
1800
0000
FF40
C000
C000
C000
FF00
C000
C000
C000
FF80
ENDCHAR
STARTCHAR edotaccent
ENCODING 279
SWIDTH 468 0
DWIDTH 6 0
BBX 5 9 0 0
BITMAP
0900
0000
1F40
31C0
60C0
7FC0
6000
3040
1F80
ENDCHAR
STARTCHAR Eogonek
ENCODING 280
SWIDTH 496 0
DWIDTH 6 0
BBX 5 11 1 -2
BITMAP
FF40
C000
C000
C000
FF00
C000
C000
C000
FF80
0600
0700
ENDCHAR
STARTCHAR eogonek
ENCODING 281
SWIDTH 468 0
DWIDTH 6 0
BBX 5 9 0 -2
BITMAP
1F40
31C0
60C0
7FC0
6000
3040
1F80
0500
0700
ENDCHAR
STARTCHAR Ecaron
ENCODING 282
SWIDTH 496 0
DWIDTH 6 0
BBX 5 12 1 0
BITMAP
2500
1800
0000
FF40
C000
C000
C000
FF00
C000
C000
C000
FF80
ENDCHAR
STARTCHAR ecaron
ENCODING 283
SWIDTH 468 0
DWIDTH 6 0
BBX 5 10 0 0
BITMAP
1640
0A00
0000
1F40
31C0
60C0
7FC0
6000
3040
1F80
ENDCHAR
STARTCHAR Gcircumflex
ENCODING 284
SWIDTH 590 0
DWIDTH 7 0
BBX 7 12 0 0
BITMAP
0740
0980
0000
0B90
2470
3020
6000
6000
71F4
3024
2834
0BE0
ENDCHAR
STARTCHAR gcircumflex
ENCODING 285
SWIDTH 492 0
DWIDTH 6 0
BBX 5 12 0 -2
BITMAP
0A00
1600
0000
2EC0
71C0
60C0
60C0
60C0
31C0
2EC0
01C0
2F40
ENDCHAR
STARTCHAR Gbreve
ENCODING 286
SWIDTH 590 0
DWIDTH 7 0
BBX 7 12 0 0
BITMAP
18C0
0B80
0000
0B90
2470
3020
6000
6000
71F4
3024
2834
0BE0
ENDCHAR
STARTCHAR gbreve
ENCODING 287
SWIDTH 492 0
DWIDTH 6 0
BBX 5 12 0 -2
BITMAP
3580
1E00
0000
2EC0
71C0
60C0
60C0
60C0
31C0
2EC0
01C0
2F40
ENDCHAR
STARTCHAR Gdotaccent
ENCODING 288
SWIDTH 590 0
DWIDTH 7 0
BBX 7 11 0 0
BITMAP
0300
0000
0B90
2470
3020
6000
6000
71F4
3024
2834
0BE0
ENDCHAR
STARTCHAR gdotaccent
ENCODING 289
SWIDTH 492 0
DWIDTH 6 0
BBX 5 11 0 -2
BITMAP
0900
0000
2EC0
71C0
60C0
60C0
60C0
31C0
2EC0
01C0
2F40
ENDCHAR
STARTCHAR uni0122
ENCODING 290
SWIDTH 590 0
DWIDTH 7 0
BBX 7 12 0 -3
BITMAP
0B90
2470
3020
6000
6000
71F4
3024
2834
0BE0
0000
0200
0200
ENDCHAR
STARTCHAR uni0123
ENCODING 291
SWIDTH 492 0
DWIDTH 6 0
BBX 5 13 0 -2
BITMAP
0500
0900
0900
0000
2EC0
71C0
60C0
60C0
60C0
31C0
2EC0
01C0
2F40
ENDCHAR
STARTCHAR Hcircumflex
ENCODING 292
SWIDTH 620 0
DWIDTH 7 0
BBX 6 12 1 0
BITMAP
1D00
2600
0000
C0A0
C0A0
C0A0
C0A0
FFE0
C0A0
C0A0
C0A0
C0A0
ENDCHAR
STARTCHAR hcircumflex
ENCODING 293
SWIDTH 482 0
DWIDTH 6 0
BBX 5 12 0 0
BITMAP
1D00
2600
0000
6000
6000
7B40
75C0
60C0
60C0
60C0
60C0
60C0
ENDCHAR
STARTCHAR Hbar
ENCODING 294
SWIDTH 611 0
DWIDTH 7 0
BBX 7 9 0 0
BITMAP
3028
3028
BFFC
3028
3FF8
3028
3028
3028
3028
ENDCHAR
STARTCHAR hbar
ENCODING 295
SWIDTH 497 0
DWIDTH 6 0
BBX 6 9 0 0
BITMAP
3000
FC00
3B80
34C0
30D0
3090
3090
3090
3090
ENDCHAR
STARTCHAR Itilde
ENCODING 296
SWIDTH 250 0
DWIDTH 3 0
BBX 5 12 -1 0
BITMAP
2640
6A00
0000
0C00
0C00
0C00
0C00
0C00
0C00
0C00
0C00
0C00
ENDCHAR
STARTCHAR itilde
ENCODING 297
SWIDTH 234 0
DWIDTH 3 0
BBX 4 10 -1 0
BITMAP
36
5A
00
0C
0C
0C
0C
0C
0C
0C
ENDCHAR
STARTCHAR Imacron
ENCODING 298
SWIDTH 250 0
DWIDTH 3 0
BBX 5 11 -1 0
BITMAP
7F40
0000
0C00
0C00
0C00
0C00
0C00
0C00
0C00
0C00
0C00
ENDCHAR
STARTCHAR imacron
ENCODING 299
SWIDTH 234 0
DWIDTH 3 0
BBX 4 9 -1 0
BITMAP
7F
00
0C
0C
0C
0C
0C
0C
0C
ENDCHAR
STARTCHAR Ibreve
ENCODING 300
SWIDTH 250 0
DWIDTH 3 0
BBX 5 12 -1 0
BITMAP
6240
2E00
0000
0C00
0C00
0C00
0C00
0C00
0C00
0C00
0C00
0C00
ENDCHAR
STARTCHAR ibreve
ENCODING 301
SWIDTH 234 0
DWIDTH 3 0
BBX 4 10 -1 0
BITMAP
63
2E
00
0C
0C
0C
0C
0C
0C
0C
ENDCHAR
STARTCHAR Iogonek
ENCODING 302
SWIDTH 250 0
DWIDTH 3 0
BBX 2 11 0 -2
BITMAP
30
30
30
30
30
30
30
30
30
90
B0
ENDCHAR
STARTCHAR iogonek
ENCODING 303
SWIDTH 229 0
DWIDTH 3 0
BBX 2 11 0 -2
BITMAP
20
00
30
30
30
30
30
30
30
90
A0
ENDCHAR
STARTCHAR Idotaccent
ENCODING 304
SWIDTH 250 0
DWIDTH 3 0
BBX 1 11 1 0
BITMAP
C0
00
C0
C0
C0
C0
C0
C0
C0
C0
C0
ENDCHAR
STARTCHAR dotlessi
ENCODING 305
SWIDTH 234 0
DWIDTH 3 0
BBX 1 7 1 0
BITMAP
C0
C0
C0
C0
C0
C0
C0
ENDCHAR
STARTCHAR IJ
ENCODING 306
SWIDTH 733 0
DWIDTH 9 0
BBX 7 9 1 0
BITMAP
C00C
C00C
C00C
C00C
C00C
C00C
C51C
C628
C2E0
ENDCHAR
STARTCHAR ij
ENCODING 307
SWIDTH 452 0
DWIDTH 5 0
BBX 4 11 1 -2
BITMAP
86
00
C6
C6
C6
C6
C6
C6
C6
0A
1D
ENDCHAR
STARTCHAR Jcircumflex
ENCODING 308
SWIDTH 483 0
DWIDTH 6 0
BBX 6 12 0 0
BITMAP
01C0
0260
0000
00C0
00C0
00C0
00C0
00C0
00C0
51C0
6280
2E00
ENDCHAR
STARTCHAR jcircumflex
ENCODING 309
SWIDTH 237 0
DWIDTH 3 0
BBX 3 12 0 -2
BITMAP
74
98
00
30
30
30
30
30
30
30
70
D0
ENDCHAR
STARTCHAR uni0136
ENCODING 310
SWIDTH 544 0
DWIDTH 7 0
BBX 6 12 1 -3
BITMAP
C1C0
C340
CA00
D800
F800
D900
C700
C280
C0D0
0000
0C00
1400
ENDCHAR
STARTCHAR uni0137
ENCODING 311
SWIDTH 450 0
DWIDTH 5 0
BBX 5 12 0 -3
BITMAP
6000
6000
6180
6300
6900
7D00
7700
6240
61C0
0000
0900
0800
ENDCHAR
STARTCHAR kgreenlandic
ENCODING 312
SWIDTH 491 0
DWIDTH 6 0
BBX 5 7 1 0
BITMAP
C700
C900
D800
F400
DC00
CA00
C340
ENDCHAR
STARTCHAR Lacute
ENCODING 313
SWIDTH 475 0
DWIDTH 6 0
BBX 5 12 1 0
BITMAP
7000
8000
0000
C000
C000
C000
C000
C000
C000
C000
C000
FF40
ENDCHAR
STARTCHAR lacute
ENCODING 314
SWIDTH 229 0
DWIDTH 3 0
BBX 2 12 1 0
BITMAP
60
80
00
C0
C0
C0
C0
C0
C0
C0
C0
C0
ENDCHAR
STARTCHAR uni013B
ENCODING 315
SWIDTH 475 0
DWIDTH 6 0
BBX 5 12 1 -3
BITMAP
C000
C000
C000
C000
C000
C000
C000
C000
FF40
0000
1800
1400
ENDCHAR
STARTCHAR uni013C
ENCODING 316
SWIDTH 229 0
DWIDTH 3 0
BBX 2 12 0 -3
BITMAP
30
30
30
30
30
30
30
30
30
00
20
50
ENDCHAR
STARTCHAR Lcaron
ENCODING 317
SWIDTH 475 0
DWIDTH 6 0
BBX 5 9 1 0
BITMAP
C900
C800
C000
C000
C000
C000
C000
C000
FF40
ENDCHAR
STARTCHAR lcaron
ENCODING 318
SWIDTH 302 0
DWIDTH 4 0
BBX 3 9 1 0
BITMAP
D8
D4
C0
C0
C0
C0
C0
C0
C0
ENDCHAR
STARTCHAR Ldot
ENCODING 319
SWIDTH 475 0
DWIDTH 6 0
BBX 5 9 1 0
BITMAP
C000
C000
C000
C000
CC00
C000
C000
C000
FF40
ENDCHAR
STARTCHAR ldot
ENCODING 320
SWIDTH 336 0
DWIDTH 4 0
BBX 3 9 1 0
BITMAP
C0
C0
C0
C0
D8
C0
C0
C0
C0
ENDCHAR
STARTCHAR Lslash
ENCODING 321
SWIDTH 475 0
DWIDTH 6 0
BBX 6 9 0 0
BITMAP
3000
3000
3000
3900
B400
3000
3000
3000
3FD0
ENDCHAR
STARTCHAR lslash
ENCODING 322
SWIDTH 250 0
DWIDTH 3 0
BBX 3 9 0 0
BITMAP
30
30
30
30
38
B0
30
30
30
ENDCHAR
STARTCHAR Nacute
ENCODING 323
SWIDTH 619 0
DWIDTH 7 0
BBX 6 12 1 0
BITMAP
0740
0900
0000
D0A0
E0A0
E4A0
D8A0
C9A0
C6A0
C2A0
C1E0
C0A0
ENDCHAR
STARTCHAR nacute
ENCODING 324
SWIDTH 483 0
DWIDTH 6 0
BBX 5 10 0 0
BITMAP
0340
0600
0000
6B40
75C0
60C0
60C0
60C0
60C0
60C0
ENDCHAR
STARTCHAR uni0145
ENCODING 325
SWIDTH 619 0
DWIDTH 7 0
BBX 6 12 1 -3
BITMAP
D0A0
E0A0
E4A0
D8A0
C9A0
C6A0
C2A0
C1E0
C0A0
0000
0C00
0800
ENDCHAR
STARTCHAR uni0146
ENCODING 326
SWIDTH 483 0
DWIDTH 6 0
BBX 5 10 0 -3
BITMAP
6B40
75C0
60C0
60C0
60C0
60C0
60C0
0000
0900
0800
ENDCHAR
STARTCHAR Ncaron
ENCODING 327
SWIDTH 619 0
DWIDTH 7 0
BBX 6 12 1 0
BITMAP
2600
0D00
0000
D0A0
E0A0
E4A0
D8A0
C9A0
C6A0
C2A0
C1E0
C0A0
ENDCHAR
STARTCHAR ncaron
ENCODING 328
SWIDTH 483 0
DWIDTH 6 0
BBX 5 10 0 0
BITMAP
1A40
0A00
0000
6B40
75C0
60C0
60C0
60C0
60C0
60C0
ENDCHAR
STARTCHAR napostrophe
ENCODING 329
SWIDTH 483 0
DWIDTH 6 0
BBX 5 9 0 0
BITMAP
C000
8000
6B40
75C0
60C0
60C0
60C0
60C0
60C0
ENDCHAR
STARTCHAR Eng
ENCODING 330
SWIDTH 599 0
DWIDTH 7 0
BBX 6 11 1 -2
BITMAP
D090
E090
F490
D890
C990
C690
C2D0
C1D0
C090
00D0
0280
ENDCHAR
STARTCHAR eng
ENCODING 331
SWIDTH 498 0
DWIDTH 6 0
BBX 5 9 0 -2
BITMAP
6B40
75C0
70C0
70C0
70C0
70C0
70C0
00C0
0380
ENDCHAR
STARTCHAR Omacron
ENCODING 332
SWIDTH 600 0
DWIDTH 7 0
BBX 7 11 0 0
BITMAP
0FD0
0000
0B90
2870
3024
6024
6024
6024
3024
2870
0B90
ENDCHAR
STARTCHAR omacron
ENCODING 333
SWIDTH 501 0
DWIDTH 6 0
BBX 6 9 0 0
BITMAP
2F80
0000
1F40
35C0
6090
6090
6090
34C0
1F40
ENDCHAR
STARTCHAR Obreve
ENCODING 334
SWIDTH 600 0
DWIDTH 7 0
BBX 7 12 0 0
BITMAP
0C90
0B80
0000
0B90
2870
3024
6024
6024
6024
3024
2870
0B90
ENDCHAR
STARTCHAR obreve
ENCODING 335
SWIDTH 501 0
DWIDTH 6 0
BBX 6 10 0 0
BITMAP
2580
1F40
0000
1F40
35C0
6090
6090
6090
34C0
1F40
ENDCHAR
STARTCHAR Ohungarumlaut
ENCODING 336
SWIDTH 600 0
DWIDTH 7 0
BBX 7 12 0 0
BITMAP
03A0
0580
0000
0B90
2870
3024
6024
6024
6024
3024
2870
0B90
ENDCHAR
STARTCHAR ohungarumlaut
ENCODING 337
SWIDTH 501 0
DWIDTH 6 0
BBX 6 10 0 0
BITMAP
09C0
0A40
0000
1F40
35C0
6090
6090
6090
34C0
1F40
ENDCHAR
STARTCHAR OE
ENCODING 338
SWIDTH 826 0
DWIDTH 10 0
BBX 9 9 0 0
BITMAP
1BFFC0
349000
609000
609000
60BF40
609000
609000
349000
1BFFC0
ENDCHAR
STARTCHAR oe
ENCODING 339
SWIDTH 777 0
DWIDTH 9 0
BBX 9 7 0 0
BITMAP
1F5E00
35F280
60A180
60BFC0
60A000
35F040
1F5F40
ENDCHAR
STARTCHAR Racute
ENCODING 340
SWIDTH 530 0
DWIDTH 6 0
BBX 5 12 1 0
BITMAP
0A00
1800
0000
FE00
C280
C180
C280
FE00
C600
C340
C280
C1C0
ENDCHAR
STARTCHAR racute
ENCODING 341
SWIDTH 304 0
DWIDTH 4 0
BBX 4 10 0 0
BITMAP
0A
18
00
79
74
60
60
60
60
60
ENDCHAR
STARTCHAR uni0156
ENCODING 342
SWIDTH 530 0
DWIDTH 6 0
BBX 5 12 1 -3
BITMAP
FE00
C280
C180
C280
FE00
C600
C340
C280
C1C0
0000
1800
2400
ENDCHAR
STARTCHAR uni0157
ENCODING 343
SWIDTH 304 0
DWIDTH 4 0
BBX 4 10 0 -3
BITMAP
79
74
60
60
60
60
60
00
20
50
ENDCHAR
STARTCHAR Rcaron
ENCODING 344
SWIDTH 530 0
DWIDTH 6 0
BBX 5 12 1 0
BITMAP
6500
2800
0000
FE00
C280
C180
C280
FE00
C600
C340
C280
C1C0
ENDCHAR
STARTCHAR rcaron
ENCODING 345
SWIDTH 304 0
DWIDTH 4 0
BBX 4 10 0 0
BITMAP
65
28
00
79
74
60
60
60
60
60
ENDCHAR
STARTCHAR Sacute
ENCODING 346
SWIDTH 518 0
DWIDTH 6 0
BBX 6 12 0 0
BITMAP
0280
0200
0000
1F80
3490
7050
3400
1B40
0190
5060
74A0
1F80
ENDCHAR
STARTCHAR sacute
ENCODING 347
SWIDTH 455 0
DWIDTH 5 0
BBX 5 10 0 0
BITMAP
0340
0600
0000
2F40
3180
3400
1E00
0280
6180
2F40
ENDCHAR
STARTCHAR Scircumflex
ENCODING 348
SWIDTH 518 0
DWIDTH 6 0
BBX 6 12 0 0
BITMAP
0A00
0940
0000
1F80
3490
7050
3400
1B40
0190
5060
74A0
1F80
ENDCHAR
STARTCHAR scircumflex
ENCODING 349
SWIDTH 455 0
DWIDTH 5 0
BBX 5 10 0 0
BITMAP
0A00
1640
0000
2F40
3180
3400
1E00
0280
6180
2F40
ENDCHAR
STARTCHAR Scedilla
ENCODING 350
SWIDTH 518 0
DWIDTH 6 0
BBX 6 11 0 -2
BITMAP
1F80
3490
7050
3400
1B40
0190
5060
74A0
1F80
0100
0700
ENDCHAR
STARTCHAR scedilla
ENCODING 351
SWIDTH 455 0
DWIDTH 5 0
BBX 5 9 0 -2
BITMAP
2F40
3180
3400
1E00
0280
6180
2F40
0500
0A00
ENDCHAR
STARTCHAR Scaron
ENCODING 352
SWIDTH 518 0
DWIDTH 6 0
BBX 6 12 0 0
BITMAP
0940
0600
0000
1F80
3490
7050
3400
1B40
0190
5060
74A0
1F80
ENDCHAR
STARTCHAR scaron
ENCODING 353
SWIDTH 455 0
DWIDTH 5 0
BBX 5 10 0 0
BITMAP
1A40
0A00
0000
2F40
3180
3400
1E00
0280
6180
2F40
ENDCHAR
STARTCHAR uni0162
ENCODING 354
SWIDTH 520 0
DWIDTH 6 0
BBX 6 11 0 -2
BITMAP
BFF0
0600
0600
0600
0600
0600
0600
0600
0600
0100
0700
ENDCHAR
STARTCHAR uni0163
ENCODING 355
SWIDTH 295 0
DWIDTH 4 0
BBX 4 11 0 -2
BITMAP
30
30
FC
30
30
30
30
34
2C
04
0D
ENDCHAR
STARTCHAR Tcaron
ENCODING 356
SWIDTH 520 0
DWIDTH 6 0
BBX 6 12 0 0
BITMAP
1940
0A00
0000
BFF0
0600
0600
0600
0600
0600
0600
0600
0600
ENDCHAR
STARTCHAR tcaron
ENCODING 357
SWIDTH 314 0
DWIDTH 4 0
BBX 4 9 0 0
BITMAP
37
36
FC
30
30
30
30
34
2C
ENDCHAR
STARTCHAR Tbar
ENCODING 358
SWIDTH 520 0
DWIDTH 6 0
BBX 6 9 0 0
BITMAP
BFF0
0600
0600
1F80
0600
0600
0600
0600
0600
ENDCHAR
STARTCHAR tbar
ENCODING 359
SWIDTH 295 0
DWIDTH 4 0
BBX 4 9 0 0
BITMAP
30
30
FC
30
FD
30
30
34
1C
ENDCHAR
STARTCHAR Utilde
ENCODING 360
SWIDTH 561 0
DWIDTH 7 0
BBX 6 12 0 0
BITMAP
0D80
1680
0000
6030
6030
6030
6030
6030
6030
7030
3460
1F80
ENDCHAR
STARTCHAR utilde
ENCODING 361
SWIDTH 483 0
DWIDTH 6 0
BBX 5 10 0 0
BITMAP
1980
2740
0000
60C0
60C0
60C0
60C0
60C0
31C0
2EC0
ENDCHAR
STARTCHAR Umacron
ENCODING 362
SWIDTH 561 0
DWIDTH 7 0
BBX 6 11 0 0
BITMAP
1FC0
0000
6030
6030
6030
6030
6030
6030
7030
3460
1F80
ENDCHAR
STARTCHAR umacron
ENCODING 363
SWIDTH 483 0
DWIDTH 6 0
BBX 5 9 0 0
BITMAP
2F80
0000
60C0
60C0
60C0
60C0
60C0
31C0
2EC0
ENDCHAR
STARTCHAR Ubreve
ENCODING 364
SWIDTH 561 0
DWIDTH 7 0
BBX 6 12 0 0
BITMAP
18C0
0B40
0000
6030
6030
6030
6030
6030
6030
7030
3460
1F80
ENDCHAR
STARTCHAR ubreve
ENCODING 365
SWIDTH 483 0
DWIDTH 6 0
BBX 5 10 0 0
BITMAP
2580
1F00
0000
60C0
60C0
60C0
60C0
60C0
31C0
2EC0
ENDCHAR
STARTCHAR Uring
ENCODING 366
SWIDTH 561 0
DWIDTH 7 0
BBX 6 13 0 0
BITMAP
0640
0880
0640
0000
6030
6030
6030
6030
6030
6030
7030
3460
1F80
ENDCHAR
STARTCHAR uring
ENCODING 367
SWIDTH 483 0
DWIDTH 6 0
BBX 5 11 0 0
BITMAP
0A00
1500
0A00
0000
60C0
60C0
60C0
60C0
60C0
31C0
2EC0
ENDCHAR
STARTCHAR Uhungarumlaut
ENCODING 368
SWIDTH 561 0
DWIDTH 7 0
BBX 6 12 0 0
BITMAP
0690
0980
0000
6030
6030
6030
6030
6030
6030
7030
3460
1F80
ENDCHAR
STARTCHAR uhungarumlaut
ENCODING 369
SWIDTH 483 0
DWIDTH 6 0
BBX 5 10 0 0
BITMAP
0DC0
1A40
0000
60C0
60C0
60C0
60C0
60C0
31C0
2EC0
ENDCHAR
STARTCHAR Uogonek
ENCODING 370
SWIDTH 561 0
DWIDTH 7 0
BBX 6 11 0 -2
BITMAP
6030
6030
6030
6030
6030
6030
7030
3460
1F80
0200
0280
ENDCHAR
STARTCHAR uogonek
ENCODING 371
SWIDTH 483 0
DWIDTH 6 0
BBX 5 9 0 -2
BITMAP
60C0
60C0
60C0
60C0
60C0
31C0
2EC0
0140
02C0
ENDCHAR
STARTCHAR Wcircumflex
ENCODING 372
SWIDTH 761 0
DWIDTH 9 0
BBX 9 12 0 0
BITMAP
00D000
026000
000000
60D180
60D280
31A240
326300
262300
272600
1A1A00
1D1D00
0D0D00
ENDCHAR
STARTCHAR wcircumflex
ENCODING 373
SWIDTH 649 0
DWIDTH 8 0
BBX 8 10 0 0
BITMAP
0280
0580
0000
9249
6388
22CC
3698
2DA4
2C74
1830
ENDCHAR
STARTCHAR Ycircumflex
ENCODING 374
SWIDTH 524 0
DWIDTH 6 0
BBX 6 12 0 0
BITMAP
0A00
0940
0000
A070
7090
24C0
1980
0F00
0600
0600
0600
0600
ENDCHAR
STARTCHAR ycircumflex
ENCODING 375
SWIDTH 416 0
DWIDTH 5 0
BBX 5 12 0 -2
BITMAP
1D00
2600
0000
9180
6240
3300
2600
1D00
1D00
0C00
1800
7000
ENDCHAR
STARTCHAR Ydieresis
ENCODING 376
SWIDTH 524 0
DWIDTH 6 0
BBX 6 11 0 0
BITMAP
24C0
0000
A070
7090
24C0
1980
0F00
0600
0600
0600
0600
ENDCHAR
STARTCHAR Zacute
ENCODING 377
SWIDTH 522 0
DWIDTH 6 0
BBX 6 12 0 0
BITMAP
0280
0600
0000
7FE0
00D0
0180
0340
0A00
0C00
2800
3000
7FE0
ENDCHAR
STARTCHAR zacute
ENCODING 378
SWIDTH 438 0
DWIDTH 5 0
BBX 5 10 0 0
BITMAP
0700
0900
0000
7F80
0240
0600
0D00
2800
3000
7F80
ENDCHAR
STARTCHAR Zdotaccent
ENCODING 379
SWIDTH 522 0
DWIDTH 6 0
BBX 6 11 0 0
BITMAP
0600
0000
7FE0
00D0
0180
0340
0A00
0C00
2800
3000
7FE0
ENDCHAR
STARTCHAR zdotaccent
ENCODING 380
SWIDTH 438 0
DWIDTH 5 0
BBX 5 9 0 0
BITMAP
0D00
0000
7F80
0240
0600
0D00
2800
3000
7F80
ENDCHAR
STARTCHAR Zcaron
ENCODING 381
SWIDTH 522 0
DWIDTH 6 0
BBX 6 12 0 0
BITMAP
0940
0600
0000
7FE0
00D0
0180
0340
0A00
0C00
2800
3000
7FE0
ENDCHAR
STARTCHAR zcaron
ENCODING 382
SWIDTH 438 0
DWIDTH 5 0
BBX 5 10 0 0
BITMAP
2600
0D00
0000
7F80
0240
0600
0D00
2800
3000
7F80
ENDCHAR
STARTCHAR longs
ENCODING 383
SWIDTH 234 0
DWIDTH 3 0
BBX 3 9 1 0
BITMAP
B4
C0
C0
C0
C0
C0
C0
C0
C0
ENDCHAR
STARTCHAR uni018F
ENCODING 399
SWIDTH 597 0
DWIDTH 7 0
BBX 7 9 0 0
BITMAP
1F80
10A0
0034
0024
7FF4
6024
6034
34A0
1B80
ENDCHAR
STARTCHAR florin
ENCODING 402
SWIDTH 309 0
DWIDTH 4 0
BBX 4 11 0 -2
BITMAP
1D
24
BC
24
24
24
24
24
24
30
E0
ENDCHAR
STARTCHAR Ohorn
ENCODING 416
SWIDTH 592 0
DWIDTH 7 0
BBX 7 10 0 0
BITMAP
0004
0B8C
24B4
7030
6024
6024
6024
7034
2460
0B80
ENDCHAR
STARTCHAR ohorn
ENCODING 417
SWIDTH 502 0
DWIDTH 6 0
BBX 6 8 0 0
BITMAP
0010
1F60
35E0
6090
6090
6090
35C0
1F40
ENDCHAR
STARTCHAR Uhorn
ENCODING 431
SWIDTH 608 0
DWIDTH 7 0
BBX 8 10 0 0
BITMAP
0002
6036
603D
6030
6030
6030
6030
7030
34A0
1B80
ENDCHAR
STARTCHAR uhorn
ENCODING 432
SWIDTH 549 0
DWIDTH 7 0
BBX 7 7 0 0
BITMAP
60D4
60F0
60C0
60C0
60C0
31C0
2EC0
ENDCHAR
STARTCHAR uni01F0
ENCODING 496
SWIDTH 237 0
DWIDTH 3 0
BBX 3 12 0 -2
BITMAP
98
70
00
30
30
30
30
30
30
30
70
D0
ENDCHAR
STARTCHAR Aringacute
ENCODING 506
SWIDTH 576 0
DWIDTH 7 0
BBX 7 12 0 0
BITMAP
0180
0140
0700
0740
0740
0A80
0CC0
1890
24A0
3FF0
7034
A028
ENDCHAR
STARTCHAR aringacute
ENCODING 507
SWIDTH 479 0
DWIDTH 6 0
BBX 5 10 0 0
BITMAP
0240
0200
0A00
1F40
3180
00C0
1FC0
70C0
71C0
2EC0
ENDCHAR
STARTCHAR AEacute
ENCODING 508
SWIDTH 812 0
DWIDTH 10 0
BBX 10 12 0 0
BITMAP
007400
009000
000000
00FFD0
01E000
036000
067000
0D3F80
1C3000
2FF000
703000
903FD0
ENDCHAR
STARTCHAR aeacute
ENCODING 509
SWIDTH 728 0
DWIDTH 9 0
BBX 9 10 0 0
BITMAP
006000
008000
000000
2E7D00
72D300
01C240
2FFF40
61C000
62D100
2E7E00
ENDCHAR
STARTCHAR Oslashacute
ENCODING 510
SWIDTH 600 0
DWIDTH 7 0
BBX 7 13 0 -1
BITMAP
01C0
0240
0000
0BA4
2870
30B4
60A4
6268
6224
3924
2870
2B90
1000
ENDCHAR
STARTCHAR oslashacute
ENCODING 511
SWIDTH 498 0
DWIDTH 6 0
BBX 6 11 0 -1
BITMAP
0340
0900
0040
1F80
36C0
6290
6590
6890
39C0
2F40
1000
ENDCHAR
STARTCHAR uni0218
ENCODING 536
SWIDTH 518 0
DWIDTH 6 0
BBX 6 12 0 -3
BITMAP
1F80
3490
7050
3400
1B40
0190
5060
74A0
1F80
0000
0600
0500
ENDCHAR
STARTCHAR uni0219
ENCODING 537
SWIDTH 455 0
DWIDTH 5 0
BBX 5 10 0 -3
BITMAP
2F40
3180
3400
1E00
0280
6180
2F40
0000
0900
0800
ENDCHAR
STARTCHAR uni021A
ENCODING 538
SWIDTH 520 0
DWIDTH 6 0
BBX 6 12 0 -3
BITMAP
BFF0
0600
0600
0600
0600
0600
0600
0600
0600
0000
0600
0900
ENDCHAR
STARTCHAR uni021B
ENCODING 539
SWIDTH 295 0
DWIDTH 4 0
BBX 3 12 0 -3
BITMAP
30
30
FC
30
30
30
30
34
2C
00
08
14
ENDCHAR
STARTCHAR uni0237
ENCODING 567
SWIDTH 237 0
DWIDTH 3 0
BBX 2 9 0 -2
BITMAP
30
30
30
30
30
30
30
70
D0
ENDCHAR
STARTCHAR uni0259
ENCODING 601
SWIDTH 465 0
DWIDTH 6 0
BBX 5 7 0 0
BITMAP
2E00
1180
00C0
7FC0
60C0
3280
1E00
ENDCHAR
STARTCHAR uni02BC
ENCODING 700
SWIDTH 194 0
DWIDTH 2 0
BBX 2 3 0 6
BITMAP
60
60
50
ENDCHAR
STARTCHAR circumflex
ENCODING 710
SWIDTH 428 0
DWIDTH 5 0
BBX 3 2 1 7
BITMAP
74
98
ENDCHAR
STARTCHAR caron
ENCODING 711
SWIDTH 403 0
DWIDTH 5 0
BBX 3 2 1 7
BITMAP
98
70
ENDCHAR
STARTCHAR uni02C9
ENCODING 713
SWIDTH 414 0
DWIDTH 5 0
BBX 5 1 0 7
BITMAP
7F40
ENDCHAR
STARTCHAR breve
ENCODING 728
SWIDTH 426 0
DWIDTH 5 0
BBX 4 2 1 7
BITMAP
89
B8
ENDCHAR
STARTCHAR dotaccent
ENCODING 729
SWIDTH 242 0
DWIDTH 3 0
BBX 1 1 1 7
BITMAP
C0
ENDCHAR
STARTCHAR ring
ENCODING 730
SWIDTH 334 0
DWIDTH 4 0
BBX 4 3 0 7
BITMAP
28
55
28
ENDCHAR
STARTCHAR ogonek
ENCODING 731
SWIDTH 253 0
DWIDTH 3 0
BBX 2 3 0 -2
BITMAP
10
50
70
ENDCHAR
STARTCHAR tilde
ENCODING 732
SWIDTH 427 0
DWIDTH 5 0
BBX 5 2 0 7
BITMAP
2640
6700
ENDCHAR
STARTCHAR hungarumlaut
ENCODING 733
SWIDTH 331 0
DWIDTH 4 0
BBX 4 2 0 7
BITMAP
36
69
ENDCHAR
STARTCHAR uni02F3
ENCODING 755
SWIDTH 263 0
DWIDTH 3 0
BBX 2 2 1 -3
BITMAP
D0
D0
ENDCHAR
STARTCHAR gravecomb
ENCODING 768
SWIDTH 0 0
DWIDTH 0 0
BBX 2 2 -4 7
BITMAP
D0
60
ENDCHAR
STARTCHAR acutecomb
ENCODING 769
SWIDTH 0 0
DWIDTH 0 0
BBX 2 2 -3 7
BITMAP
A0
80
ENDCHAR
STARTCHAR tildecomb
ENCODING 771
SWIDTH 0 0
DWIDTH 0 0
BBX 5 2 -5 7
BITMAP
3640
6A00
ENDCHAR
STARTCHAR hookabovecomb
ENCODING 777
SWIDTH 0 0
DWIDTH 0 0
BBX 3 3 -4 7
BITMAP
60
24
20
ENDCHAR
STARTCHAR uni030F
ENCODING 783
SWIDTH 0 0
DWIDTH 0 0
BBX 4 2 -5 7
BITMAP
69
2A
ENDCHAR
STARTCHAR dotbelowcomb
ENCODING 803
SWIDTH 0 0
DWIDTH 0 0
BBX 1 1 -4 -2
BITMAP
C0
ENDCHAR
STARTCHAR tonos
ENCODING 900
SWIDTH 256 0
DWIDTH 3 0
BBX 2 2 1 7
BITMAP
90
80
ENDCHAR
STARTCHAR dieresistonos
ENCODING 901
SWIDTH 452 0
DWIDTH 5 0
BBX 5 3 0 7
BITMAP
0900
0800
6180
ENDCHAR
STARTCHAR Alphatonos
ENCODING 902
SWIDTH 576 0
DWIDTH 7 0
BBX 7 9 0 0
BITMAP
3700
2740
0A80
0CC0
1890
24A0
3FF0
7034
A028
ENDCHAR
STARTCHAR anoteleia
ENCODING 903
SWIDTH 243 0
DWIDTH 3 0
BBX 1 2 1 3
BITMAP
C0
40
ENDCHAR
STARTCHAR Epsilontonos
ENCODING 904
SWIDTH 496 0
DWIDTH 6 0
BBX 7 9 -1 0
BITMAP
DFF4
8C00
0C00
0C00
0FF0
0C00
0C00
0C00
0FF8
ENDCHAR
STARTCHAR Etatonos
ENCODING 905
SWIDTH 620 0
DWIDTH 7 0
BBX 8 9 -1 0
BITMAP
9C0A
8C0A
0C0A
0C0A
0FFE
0C0A
0C0A
0C0A
0C0A
ENDCHAR
STARTCHAR Iotatonos
ENCODING 906
SWIDTH 250 0
DWIDTH 3 0
BBX 3 9 -1 0
BITMAP
9C
8C
0C
0C
0C
0C
0C
0C
0C
ENDCHAR
STARTCHAR Omicrontonos
ENCODING 908
SWIDTH 610 0
DWIDTH 7 0
BBX 7 9 0 0
BITMAP
CBD0
A870
3024
3028
3018
3028
3024
2870
0BD0
ENDCHAR
STARTCHAR Upsilontonos
ENCODING 910
SWIDTH 573 0
DWIDTH 7 0
BBX 8 9 -1 0
BITMAP
CD09
8A0C
0318
0274
01E0
00D0
0090
0090
0090
ENDCHAR
STARTCHAR Omegatonos
ENCODING 911
SWIDTH 591 0
DWIDTH 7 0
BBX 7 9 0 0
BITMAP
CB80
A860
3030
7024
7024
3024
3030
1860
7DF4
ENDCHAR
STARTCHAR iotadieresistonos
ENCODING 912
SWIDTH 299 0
DWIDTH 4 0
BBX 5 11 -1 0
BITMAP
0900
0900
6180
0000
0C00
0C00
0C00
0C00
0C00
0D00
0B00
ENDCHAR
STARTCHAR Alpha
ENCODING 913
SWIDTH 576 0
DWIDTH 7 0
BBX 7 9 0 0
BITMAP
0300
0740
0A80
0CC0
1890
24A0
3FF0
7034
A028
ENDCHAR
STARTCHAR Beta
ENCODING 914
SWIDTH 545 0
DWIDTH 7 0
BBX 5 9 1 0
BITMAP
FE00
C280
C180
C240
FF00
C280
C180
C280
FE00
ENDCHAR
STARTCHAR Gamma
ENCODING 915
SWIDTH 487 0
DWIDTH 6 0
BBX 5 9 1 0
BITMAP
FF40
C000
C000
C000
C000
C000
C000
C000
C000
ENDCHAR
STARTCHAR Delta.dup1
ENCODING 916
SWIDTH 614 0
DWIDTH 7 0
BBX 7 9 0 0
BITMAP
0340
0780
0AC0
0C90
1860
2430
3024
6028
BFFC
ENDCHAR
STARTCHAR Epsilon
ENCODING 917
SWIDTH 496 0
DWIDTH 6 0
BBX 5 9 1 0
BITMAP
FF40
C000
C000
C000
FF00
C000
C000
C000
FF80
ENDCHAR
STARTCHAR Zeta
ENCODING 918
SWIDTH 522 0
DWIDTH 6 0
BBX 6 9 0 0
BITMAP
7FE0
00D0
0180
0340
0A00
0C00
2800
3000
7FE0
ENDCHAR
STARTCHAR Eta
ENCODING 919
SWIDTH 620 0
DWIDTH 7 0
BBX 6 9 1 0
BITMAP
C0A0
C0A0
C0A0
C0A0
FFE0
C0A0
C0A0
C0A0
C0A0
ENDCHAR
STARTCHAR Theta
ENCODING 920
SWIDTH 593 0
DWIDTH 7 0
BBX 7 9 0 0
BITMAP
0B80
2860
7034
6024
6BA4
6024
7034
2860
0B80
ENDCHAR
STARTCHAR Iota
ENCODING 921
SWIDTH 250 0
DWIDTH 3 0
BBX 1 9 1 0
BITMAP
C0
C0
C0
C0
C0
C0
C0
C0
C0
ENDCHAR
STARTCHAR Kappa
ENCODING 922
SWIDTH 544 0
DWIDTH 7 0
BBX 6 9 1 0
BITMAP
C1C0
C340
CA00
D800
F800
D900
C700
C280
C0D0
ENDCHAR
STARTCHAR Lambda
ENCODING 923
SWIDTH 572 0
DWIDTH 7 0
BBX 7 9 0 0
BITMAP
0700
0B40
0A80
0DC0
18D0
2490
3460
7030
A024
ENDCHAR
STARTCHAR Mu
ENCODING 924
SWIDTH 755 0
DWIDTH 9 0
BBX 7 9 1 0
BITMAP
D01C
E02C
F03C
E46C
D89C
CCCC
C98C
C74C
C30C
ENDCHAR
STARTCHAR Nu
ENCODING 925
SWIDTH 619 0
DWIDTH 7 0
BBX 6 9 1 0
BITMAP
D0A0
E0A0
E4A0
D8A0
C9A0
C6A0
C2A0
C1E0
C0A0
ENDCHAR
STARTCHAR Xi
ENCODING 926
SWIDTH 502 0
DWIDTH 6 0
BBX 6 9 0 0
BITMAP
7FD0
0000
0000
0000
3FC0
0000
0000
0000
7FD0
ENDCHAR
STARTCHAR Omicron
ENCODING 927
SWIDTH 600 0
DWIDTH 7 0
BBX 7 9 0 0
BITMAP
0B90
2870
3024
6024
6024
6024
3024
2870
0B90
ENDCHAR
STARTCHAR Pi
ENCODING 928
SWIDTH 620 0
DWIDTH 7 0
BBX 6 9 1 0
BITMAP
FFD0
C090
C090
C090
C090
C090
C090
C090
C090
ENDCHAR
STARTCHAR Rho
ENCODING 929
SWIDTH 554 0
DWIDTH 7 0
BBX 5 9 1 0
BITMAP
FF40
C1C0
C0C0
C1C0
FF40
C000
C000
C000
C000
ENDCHAR
STARTCHAR Sigma
ENCODING 931
SWIDTH 502 0
DWIDTH 6 0
BBX 6 9 0 0
BITMAP
BFD0
7000
2800
0D00
0600
0D00
2800
7000
BFE0
ENDCHAR
STARTCHAR Tau
ENCODING 932
SWIDTH 520 0
DWIDTH 6 0
BBX 6 9 0 0
BITMAP
BFF0
0600
0600
0600
0600
0600
0600
0600
0600
ENDCHAR
STARTCHAR Upsilon
ENCODING 933
SWIDTH 524 0
DWIDTH 6 0
BBX 6 9 0 0
BITMAP
A070
7090
24C0
1980
0F00
0600
0600
0600
0600
ENDCHAR
STARTCHAR Phi
ENCODING 934
SWIDTH 621 0
DWIDTH 7 0
BBX 7 9 0 0
BITMAP
0240
1FE0
3668
625C
A24C
625C
3668
1BE0
0240
ENDCHAR
STARTCHAR Chi
ENCODING 935
SWIDTH 550 0
DWIDTH 7 0
BBX 6 9 0 0
BITMAP
7070
2490
1DC0
0B40
0700
0F40
19C0
3490
7070
ENDCHAR
STARTCHAR Psi
ENCODING 936
SWIDTH 600 0
DWIDTH 7 0
BBX 7 9 0 0
BITMAP
A318
A318
A318
6318
6324
3770
1BD0
0300
0300
ENDCHAR
STARTCHAR Omega.dup2
ENCODING 937
SWIDTH 581 0
DWIDTH 7 0
BBX 7 9 0 0
BITMAP
0B80
24A0
7030
6034
6034
6030
3030
2490
7DF0
ENDCHAR
STARTCHAR Iotadieresis
ENCODING 938
SWIDTH 250 0
DWIDTH 3 0
BBX 5 11 -1 0
BITMAP
6240
0000
0C00
0C00
0C00
0C00
0C00
0C00
0C00
0C00
0C00
ENDCHAR
STARTCHAR Upsilondieresis
ENCODING 939
SWIDTH 524 0
DWIDTH 6 0
BBX 6 11 0 0
BITMAP
24C0
0000
A070
7090
24C0
1980
0F00
0600
0600
0600
0600
ENDCHAR
STARTCHAR alphatonos
ENCODING 940
SWIDTH 494 0
DWIDTH 6 0
BBX 6 10 0 0
BITMAP
0300
0200
0000
1E80
35C0
60C0
60C0
60C0
35D0
1EA0
ENDCHAR
STARTCHAR epsilontonos
ENCODING 941
SWIDTH 470 0
DWIDTH 6 0
BBX 5 10 0 0
BITMAP
0600
0500
0000
2F40
71C0
7000
2E00
6000
61C0
2F40
ENDCHAR
STARTCHAR etatonos
ENCODING 942
SWIDTH 498 0
DWIDTH 6 0
BBX 5 12 0 -2
BITMAP
0600
0500
0000
6B80
75C0
70C0
70C0
70C0
70C0
70C0
00C0
00C0
ENDCHAR
STARTCHAR iotatonos
ENCODING 943
SWIDTH 299 0
DWIDTH 4 0
BBX 2 10 1 0
BITMAP
90
80
00
C0
C0
C0
C0
C0
D0
B0
ENDCHAR
STARTCHAR upsilondieresistonos
ENCODING 944
SWIDTH 480 0
DWIDTH 6 0
BBX 5 11 0 0
BITMAP
0600
0500
2180
0000
6180
60C0
60C0
60C0
70C0
3280
1E00
ENDCHAR
STARTCHAR alpha
ENCODING 945
SWIDTH 494 0
DWIDTH 6 0
BBX 6 7 0 0
BITMAP
1E80
35C0
60C0
60C0
60C0
35D0
1EA0
ENDCHAR
STARTCHAR beta
ENCODING 946
SWIDTH 517 0
DWIDTH 6 0
BBX 5 11 1 -2
BITMAP
7D00
D700
C240
C300
DE00
C240
C280
D240
EE00
C000
C000
ENDCHAR
STARTCHAR gamma
ENCODING 947
SWIDTH 444 0
DWIDTH 5 0
BBX 5 9 0 -2
BITMAP
A0C0
6180
3240
2700
1E00
0D00
0900
0900
0900
ENDCHAR
STARTCHAR delta
ENCODING 948
SWIDTH 498 0
DWIDTH 6 0
BBX 6 9 0 0
BITMAP
1F40
2400
1900
1F80
35C0
6090
6090
35C0
1F40
ENDCHAR
STARTCHAR epsilon
ENCODING 949
SWIDTH 470 0
DWIDTH 6 0
BBX 5 7 0 0
BITMAP
2F40
71C0
7000
2E00
6000
61C0
2F40
ENDCHAR
STARTCHAR zeta
ENCODING 950
SWIDTH 462 0
DWIDTH 6 0
BBX 5 11 0 -2
BITMAP
7FC0
0240
0700
0900
1800
2400
3000
3400
1E40
0280
0140
ENDCHAR
STARTCHAR eta
ENCODING 951
SWIDTH 498 0
DWIDTH 6 0
BBX 5 9 0 -2
BITMAP
6B80
75C0
70C0
70C0
70C0
70C0
70C0
00C0
00C0
ENDCHAR
STARTCHAR theta
ENCODING 952
SWIDTH 496 0
DWIDTH 6 0
BBX 6 9 0 0
BITMAP
1F40
35C0
70C0
6090
7FD0
6090
70C0
35C0
1F40
ENDCHAR
STARTCHAR iota
ENCODING 953
SWIDTH 299 0
DWIDTH 4 0
BBX 2 7 1 0
BITMAP
C0
C0
C0
C0
C0
D0
B0
ENDCHAR
STARTCHAR kappa
ENCODING 954
SWIDTH 491 0
DWIDTH 6 0
BBX 5 7 1 0
BITMAP
C700
C900
D800
F400
DC00
CA00
C340
ENDCHAR
STARTCHAR lambda
ENCODING 955
SWIDTH 485 0
DWIDTH 6 0
BBX 6 9 0 0
BITMAP
3400
1800
0C00
0D00
1E00
2700
3240
7180
A090
ENDCHAR
STARTCHAR uni03BC
ENCODING 956
SWIDTH 498 0
DWIDTH 6 0
BBX 4 9 1 -2
BITMAP
C3
C3
C3
C3
C3
D7
FB
C0
C0
ENDCHAR
STARTCHAR nu
ENCODING 957
SWIDTH 427 0
DWIDTH 5 0
BBX 5 7 0 0
BITMAP
9180
6240
3200
2700
2A00
1D00
0C00
ENDCHAR
STARTCHAR xi
ENCODING 958
SWIDTH 431 0
DWIDTH 5 0
BBX 5 11 0 -2
BITMAP
1F40
3400
3400
1F00
3400
6000
6000
3400
0B40
0180
0140
ENDCHAR
STARTCHAR omicron
ENCODING 959
SWIDTH 501 0
DWIDTH 6 0
BBX 6 7 0 0
BITMAP
1F40
35C0
6090
6090
6090
34C0
1F40
ENDCHAR
STARTCHAR pi
ENCODING 960
SWIDTH 520 0
DWIDTH 6 0
BBX 6 7 0 0
BITMAP
BFE0
30C0
30C0
30C0
30C0
30C0
30B0
ENDCHAR
STARTCHAR rho
ENCODING 961
SWIDTH 498 0
DWIDTH 6 0
BBX 6 9 0 -2
BITMAP
1F40
35C0
3090
7090
7090
75C0
7B40
7000
7000
ENDCHAR
STARTCHAR sigma1
ENCODING 962
SWIDTH 472 0
DWIDTH 6 0
BBX 5 9 0 -2
BITMAP
1F40
35C0
6040
6000
6000
3400
1B40
0180
0140
ENDCHAR
STARTCHAR sigma
ENCODING 963
SWIDTH 498 0
DWIDTH 6 0
BBX 6 7 0 0
BITMAP
1FE0
3580
6090
6090
6090
35C0
1F40
ENDCHAR
STARTCHAR tau
ENCODING 964
SWIDTH 460 0
DWIDTH 6 0
BBX 5 7 0 0
BITMAP
7FC0
0900
0900
0900
0900
0900
0740
ENDCHAR
STARTCHAR upsilon
ENCODING 965
SWIDTH 480 0
DWIDTH 6 0
BBX 5 7 0 0
BITMAP
6180
60C0
60C0
60C0
70C0
3280
1E00
ENDCHAR
STARTCHAR phi
ENCODING 966
SWIDTH 617 0
DWIDTH 7 0
BBX 7 10 0 -3
BITMAP
22E0
7364
6358
634C
6358
3774
1BD0
0340
0340
0340
ENDCHAR
STARTCHAR chi
ENCODING 967
SWIDTH 438 0
DWIDTH 5 0
BBX 6 9 0 -2
BITMAP
A1C0
2640
1B00
0E00
0900
1E00
2B00
3280
60D0
ENDCHAR
STARTCHAR psi
ENCODING 968
SWIDTH 612 0
DWIDTH 7 0
BBX 7 10 0 -3
BITMAP
6324
6318
6318
6318
6318
3774
1BD0
0300
0300
0300
ENDCHAR
STARTCHAR omega
ENCODING 969
SWIDTH 711 0
DWIDTH 9 0
BBX 8 7 0 0
BITMAP
2409
3006
6186
6186
61C6
36D9
1E78
ENDCHAR
STARTCHAR iotadieresis
ENCODING 970
SWIDTH 299 0
DWIDTH 4 0
BBX 4 9 0 0
BITMAP
C9
00
30
30
30
30
30
34
2C
ENDCHAR
STARTCHAR upsilondieresis
ENCODING 971
SWIDTH 480 0
DWIDTH 6 0
BBX 5 9 0 0
BITMAP
3180
0000
6180
60C0
60C0
60C0
70C0
3280
1E00
ENDCHAR
STARTCHAR omicrontonos
ENCODING 972
SWIDTH 501 0
DWIDTH 6 0
BBX 6 10 0 0
BITMAP
0600
0500
0000
1F40
35C0
6090
6090
6090
34C0
1F40
ENDCHAR
STARTCHAR upsilontonos
ENCODING 973
SWIDTH 480 0
DWIDTH 6 0
BBX 5 10 0 0
BITMAP
0600
0500
0000
6180
60C0
60C0
60C0
70C0
3280
1E00
ENDCHAR
STARTCHAR omegatonos
ENCODING 974
SWIDTH 711 0
DWIDTH 9 0
BBX 8 10 0 0
BITMAP
00C0
0080
0000
2409
3006
6186
6186
61C6
36D9
1E78
ENDCHAR
STARTCHAR theta1
ENCODING 977
SWIDTH 507 0
DWIDTH 6 0
BBX 6 9 0 0
BITMAP
0B40
1CC0
18C0
0DC0
62E0
60C0
60C0
31C0
1F40
ENDCHAR
STARTCHAR Upsilon1
ENCODING 978
SWIDTH 465 0
DWIDTH 6 0
BBX 6 9 0 0
BITMAP
D0A0
7180
3640
1B00
0E00
0900
0900
0900
0900
ENDCHAR
STARTCHAR omega1
ENCODING 982
SWIDTH 678 0
DWIDTH 8 0
BBX 8 7 0 0
BITMAP
7FFE
300D
7189
6189
3189
32CC
1E78
ENDCHAR
STARTCHAR uni0400
ENCODING 1024
SWIDTH 496 0
DWIDTH 6 0
BBX 5 12 1 0
BITMAP
7000
2400
0000
FF40
C000
C000
C000
FF00
C000
C000
C000
FF80
ENDCHAR
STARTCHAR uni0401
ENCODING 1025
SWIDTH 496 0
DWIDTH 6 0
BBX 5 11 1 0
BITMAP
9300
0000
FF40
C000
C000
C000
FF00
C000
C000
C000
FF80
ENDCHAR
STARTCHAR uni0402
ENCODING 1026
SWIDTH 650 0
DWIDTH 8 0
BBX 8 9 0 0
BITMAP
BFF0
0900
0900
0BF4
0A1C
0909
0909
091C
0934
ENDCHAR
STARTCHAR uni0403
ENCODING 1027
SWIDTH 487 0
DWIDTH 6 0
BBX 5 12 1 0
BITMAP
0A00
0800
0000
FF40
C000
C000
C000
C000
C000
C000
C000
C000
ENDCHAR
STARTCHAR uni0404
ENCODING 1028
SWIDTH 589 0
DWIDTH 7 0
BBX 7 9 0 0
BITMAP
0B90
2870
3034
7000
7F80
6000
3034
2870
0B90
ENDCHAR
STARTCHAR uni0405
ENCODING 1029
SWIDTH 518 0
DWIDTH 6 0
BBX 6 9 0 0
BITMAP
1F80
3490
7050
3400
1B40
0190
5060
74A0
1F80
ENDCHAR
STARTCHAR uni0406
ENCODING 1030
SWIDTH 250 0
DWIDTH 3 0
BBX 1 9 1 0
BITMAP
C0
C0
C0
C0
C0
C0
C0
C0
C0
ENDCHAR
STARTCHAR uni0407
ENCODING 1031
SWIDTH 250 0
DWIDTH 3 0
BBX 5 11 -1 0
BITMAP
6240
0000
0C00
0C00
0C00
0C00
0C00
0C00
0C00
0C00
0C00
ENDCHAR
STARTCHAR uni0408
ENCODING 1032
SWIDTH 483 0
DWIDTH 6 0
BBX 5 9 0 0
BITMAP
00C0
00C0
00C0
00C0
00C0
00C0
51C0
6280
2E00
ENDCHAR
STARTCHAR uni0409
ENCODING 1033
SWIDTH 923 0
DWIDTH 11 0
BBX 11 9 0 0
BITMAP
0FF400
0C2400
1C2400
1C2FE0
182434
182428
182428
242434
A02FE0
ENDCHAR
STARTCHAR uni040A
ENCODING 1034
SWIDTH 927 0
DWIDTH 11 0
BBX 10 9 1 0
BITMAP
C09000
C09000
C09000
C09000
FFFF80
C09090
C09060
C09090
C0BF80
ENDCHAR
STARTCHAR uni040B
ENCODING 1035
SWIDTH 705 0
DWIDTH 8 0
BBX 8 9 0 0
BITMAP
BFF0
0900
0900
0BF8
0A0D
0909
090A
090A
090A
ENDCHAR
STARTCHAR uni040C
ENCODING 1036
SWIDTH 544 0
DWIDTH 7 0
BBX 6 12 1 0
BITMAP
0A00
1800
0000
C1C0
C340
CA00
D800
F800
D900
C700
C280
C0D0
ENDCHAR
STARTCHAR uni040D
ENCODING 1037
SWIDTH 619 0
DWIDTH 7 0
BBX 6 12 1 0
BITMAP
2800
0800
0000
C0D0
C1D0
C290
C690
C990
D890
E490
E090
D090
ENDCHAR
STARTCHAR uni040E
ENCODING 1038
SWIDTH 547 0
DWIDTH 7 0
BBX 6 12 0 0
BITMAP
18C0
0B40
0000
7070
34A0
28D0
1DC0
0E80
0740
0700
0600
2C00
ENDCHAR
STARTCHAR uni040F
ENCODING 1039
SWIDTH 621 0
DWIDTH 7 0
BBX 6 11 1 -2
BITMAP
C090
C090
C090
C090
C090
C090
C090
C090
FFD0
0900
0900
ENDCHAR
STARTCHAR uni0410
ENCODING 1040
SWIDTH 576 0
DWIDTH 7 0
BBX 7 9 0 0
BITMAP
0300
0740
0A80
0CC0
1890
24A0
3FF0
7034
A028
ENDCHAR
STARTCHAR uni0411
ENCODING 1041
SWIDTH 549 0
DWIDTH 7 0
BBX 5 9 1 0
BITMAP
FF40
C000
C000
C000
FF40
C1C0
C0C0
C1C0
FF40
ENDCHAR
STARTCHAR uni0412
ENCODING 1042
SWIDTH 545 0
DWIDTH 7 0
BBX 5 9 1 0
BITMAP
FE00
C280
C180
C240
FF00
C280
C180
C280
FE00
ENDCHAR
STARTCHAR uni0413
ENCODING 1043
SWIDTH 487 0
DWIDTH 6 0
BBX 5 9 1 0
BITMAP
FF40
C000
C000
C000
C000
C000
C000
C000
C000
ENDCHAR
STARTCHAR uni0414
ENCODING 1044
SWIDTH 660 0
DWIDTH 8 0
BBX 8 11 0 -2
BITMAP
0FF8
0C28
0C28
0C28
0C28
1C28
1828
2428
BFFE
900A
900A
ENDCHAR
STARTCHAR uni0415
ENCODING 1045
SWIDTH 496 0
DWIDTH 6 0
BBX 5 9 1 0
BITMAP
FF40
C000
C000
C000
FF00
C000
C000
C000
FF80
ENDCHAR
STARTCHAR uni0416
ENCODING 1046
SWIDTH 791 0
DWIDTH 10 0
BBX 9 9 0 0
BITMAP
7091C0
249240
189700
099900
0BFC00
0D9A00
189700
349280
6091C0
ENDCHAR
STARTCHAR uni0417
ENCODING 1047
SWIDTH 517 0
DWIDTH 6 0
BBX 6 9 0 0
BITMAP
1F80
70D0
10A0
0090
0B80
0090
5060
7090
1F80
ENDCHAR
STARTCHAR uni0418
ENCODING 1048
SWIDTH 619 0
DWIDTH 7 0
BBX 6 9 1 0
BITMAP
C0D0
C1D0
C290
C690
C990
D890
E490
E090
D090
ENDCHAR
STARTCHAR uni0419
ENCODING 1049
SWIDTH 619 0
DWIDTH 7 0
BBX 6 12 1 0
BITMAP
3240
1E00
0000
C0D0
C1D0
C290
C690
C990
D890
E490
E090
D090
ENDCHAR
STARTCHAR uni041A
ENCODING 1050
SWIDTH 560 0
DWIDTH 7 0
BBX 6 9 1 0
BITMAP
C1C0
C340
CA00
DC00
EC00
CA00
C340
C280
C0D0
ENDCHAR
STARTCHAR uni041B
ENCODING 1051
SWIDTH 615 0
DWIDTH 7 0
BBX 7 9 0 0
BITMAP
0FF4
0C24
1C24
1C24
1824
1824
1824
2424
A024
ENDCHAR
STARTCHAR uni041C
ENCODING 1052
SWIDTH 755 0
DWIDTH 9 0
BBX 7 9 1 0
BITMAP
D01C
E02C
F03C
E46C
D89C
CCCC
C98C
C74C
C30C
ENDCHAR
STARTCHAR uni041D
ENCODING 1053
SWIDTH 620 0
DWIDTH 7 0
BBX 6 9 1 0
BITMAP
C0A0
C0A0
C0A0
C0A0
FFE0
C0A0
C0A0
C0A0
C0A0
ENDCHAR
STARTCHAR uni041E
ENCODING 1054
SWIDTH 600 0
DWIDTH 7 0
BBX 7 9 0 0
BITMAP
0B90
2870
3024
6024
6024
6024
3024
2870
0B90
ENDCHAR
STARTCHAR uni041F
ENCODING 1055
SWIDTH 620 0
DWIDTH 7 0
BBX 6 9 1 0
BITMAP
FFD0
C090
C090
C090
C090
C090
C090
C090
C090
ENDCHAR
STARTCHAR uni0420
ENCODING 1056
SWIDTH 554 0
DWIDTH 7 0
BBX 5 9 1 0
BITMAP
FF40
C1C0
C0C0
C1C0
FF40
C000
C000
C000
C000
ENDCHAR
STARTCHAR uni0421
ENCODING 1057
SWIDTH 566 0
DWIDTH 7 0
BBX 7 9 0 0
BITMAP
0B90
2870
3024
7000
6000
7000
3020
2470
0B90
ENDCHAR
STARTCHAR uni0422
ENCODING 1058
SWIDTH 520 0
DWIDTH 6 0
BBX 6 9 0 0
BITMAP
BFF0
0600
0600
0600
0600
0600
0600
0600
0600
ENDCHAR
STARTCHAR uni0423
ENCODING 1059
SWIDTH 547 0
DWIDTH 7 0
BBX 6 9 0 0
BITMAP
7070
34A0
28D0
1DC0
0E80
0740
0700
0600
2C00
ENDCHAR
STARTCHAR uni0424
ENCODING 1060
SWIDTH 676 0
DWIDTH 8 0
BBX 8 9 0 0
BITMAP
0180
1BF4
359C
618A
6186
618A
359C
1BF4
0180
ENDCHAR
STARTCHAR uni0425
ENCODING 1061
SWIDTH 550 0
DWIDTH 7 0
BBX 6 9 0 0
BITMAP
7070
2490
1DC0
0B40
0700
0F40
19C0
3490
7070
ENDCHAR
STARTCHAR uni0426
ENCODING 1062
SWIDTH 639 0
DWIDTH 8 0
BBX 7 11 1 -2
BITMAP
C090
C090
C090
C090
C090
C090
C090
C090
FFF4
0024
0020
ENDCHAR
STARTCHAR uni0427
ENCODING 1063
SWIDTH 600 0
DWIDTH 7 0
BBX 7 9 0 0
BITMAP
7034
7034
7034
3034
3474
1FF4
0034
0034
0034
ENDCHAR
STARTCHAR uni0428
ENCODING 1064
SWIDTH 814 0
DWIDTH 10 0
BBX 8 9 1 0
BITMAP
C246
C246
C246
C246
C246
C246
C246
C246
FFFE
ENDCHAR
STARTCHAR uni0429
ENCODING 1065
SWIDTH 841 0
DWIDTH 10 0
BBX 9 11 1 -2
BITMAP
C24600
C24600
C24600
C24600
C24600
C24600
C24600
C24600
FFFF80
000140
000140
ENDCHAR
STARTCHAR uni042A
ENCODING 1066
SWIDTH 651 0
DWIDTH 8 0
BBX 8 9 0 0
BITMAP
BD00
0D00
0D00
0D00
0FF4
0D0C
0D09
0D1C
0FF4
ENDCHAR
STARTCHAR uni042B
ENCODING 1067
SWIDTH 755 0
DWIDTH 9 0
BBX 7 9 1 0
BITMAP
C00C
C00C
C00C
C00C
FF4C
C1CC
C0DC
C1CC
FF4C
ENDCHAR
STARTCHAR uni042C
ENCODING 1068
SWIDTH 551 0
DWIDTH 7 0
BBX 5 9 1 0
BITMAP
C000
C000
C000
C000
FF40
C1C0
C0C0
C1C0
FF40
ENDCHAR
STARTCHAR uni042D
ENCODING 1069
SWIDTH 589 0
DWIDTH 7 0
BBX 6 9 1 0
BITMAP
2E00
9180
C0D0
0090
1FD0
0090
C0D0
91C0
2E00
ENDCHAR
STARTCHAR uni042E
ENCODING 1070
SWIDTH 765 0
DWIDTH 9 0
BBX 8 9 1 0
BITMAP
C2F4
CA1D
CD06
CC06
FC06
CC06
CD06
C60D
C2F4
ENDCHAR
STARTCHAR uni042F
ENCODING 1071
SWIDTH 562 0
DWIDTH 7 0
BBX 6 9 0 0
BITMAP
1BE0
3460
3060
3060
2460
0FE0
1C60
2460
7060
ENDCHAR
STARTCHAR uni0430
ENCODING 1072
SWIDTH 479 0
DWIDTH 6 0
BBX 5 7 0 0
BITMAP
1F40
3180
00C0
1FC0
70C0
71C0
2EC0
ENDCHAR
STARTCHAR uni0431
ENCODING 1073
SWIDTH 484 0
DWIDTH 6 0
BBX 6 9 0 0
BITMAP
01C0
1E40
2400
6B40
71C0
6090
6090
35C0
1F40
ENDCHAR
STARTCHAR uni0432
ENCODING 1074
SWIDTH 503 0
DWIDTH 6 0
BBX 5 7 1 0
BITMAP
FE00
C300
FE00
C340
C240
C340
FE00
ENDCHAR
STARTCHAR uni0433
ENCODING 1075
SWIDTH 371 0
DWIDTH 4 0
BBX 4 7 1 0
BITMAP
FD
C0
C0
C0
C0
C0
C0
ENDCHAR
STARTCHAR uni0434
ENCODING 1076
SWIDTH 536 0
DWIDTH 6 0
BBX 6 9 0 -2
BITMAP
1FD0
1890
1890
1890
2490
3090
BFF0
9030
9030
ENDCHAR
STARTCHAR uni0435
ENCODING 1077
SWIDTH 468 0
DWIDTH 6 0
BBX 5 7 0 0
BITMAP
1F40
31C0
60C0
7FC0
6000
3040
1F80
ENDCHAR
STARTCHAR uni0436
ENCODING 1078
SWIDTH 662 0
DWIDTH 8 0
BBX 8 7 0 0
BITMAP
624D
3658
1A64
0FF0
2A64
365C
A249
ENDCHAR
STARTCHAR uni0437
ENCODING 1079
SWIDTH 446 0
DWIDTH 5 0
BBX 5 7 0 0
BITMAP
2F40
6280
1F00
0280
0180
6280
2E00
ENDCHAR
STARTCHAR uni0438
ENCODING 1080
SWIDTH 509 0
DWIDTH 6 0
BBX 5 7 1 0
BITMAP
C340
C740
CA40
D640
E240
E240
C240
ENDCHAR
STARTCHAR uni0439
ENCODING 1081
SWIDTH 509 0
DWIDTH 6 0
BBX 5 10 1 0
BITMAP
9600
7D00
0000
C340
C740
CA40
D640
E240
E240
C240
ENDCHAR
STARTCHAR uni043A
ENCODING 1082
SWIDTH 479 0
DWIDTH 6 0
BBX 5 7 1 0
BITMAP
C300
C900
D800
F400
DC00
CA00
C340
ENDCHAR
STARTCHAR uni043B
ENCODING 1083
SWIDTH 509 0
DWIDTH 6 0
BBX 6 7 0 0
BITMAP
1FD0
2890
2490
2490
2490
3490
A090
ENDCHAR
STARTCHAR uni043C
ENCODING 1084
SWIDTH 645 0
DWIDTH 8 0
BBX 6 7 1 0
BITMAP
D0B0
E0F0
F1F0
E6B0
DA70
CE30
C930
ENDCHAR
STARTCHAR uni043D
ENCODING 1085
SWIDTH 508 0
DWIDTH 6 0
BBX 5 7 1 0
BITMAP
C240
C240
C240
FF40
C240
C240
C240
ENDCHAR
STARTCHAR uni043E
ENCODING 1086
SWIDTH 501 0
DWIDTH 6 0
BBX 6 7 0 0
BITMAP
1F40
35C0
6090
6090
6090
34C0
1F40
ENDCHAR
STARTCHAR uni043F
ENCODING 1087
SWIDTH 509 0
DWIDTH 6 0
BBX 5 7 1 0
BITMAP
FF40
C240
C240
C240
C240
C240
C240
ENDCHAR
STARTCHAR uni0440
ENCODING 1088
SWIDTH 493 0
DWIDTH 6 0
BBX 6 9 0 -2
BITMAP
6B40
75C0
6090
6090
6090
71C0
7B40
6000
6000
ENDCHAR
STARTCHAR uni0441
ENCODING 1089
SWIDTH 461 0
DWIDTH 6 0
BBX 5 7 0 0
BITMAP
1F40
31C0
6040
6000
6040
31C0
1F40
ENDCHAR
STARTCHAR uni0442
ENCODING 1090
SWIDTH 424 0
DWIDTH 5 0
BBX 5 7 0 0
BITMAP
BF80
0C00
0C00
0C00
0C00
0C00
0C00
ENDCHAR
STARTCHAR uni0443
ENCODING 1091
SWIDTH 416 0
DWIDTH 5 0
BBX 5 9 0 -2
BITMAP
9180
6240
3300
2600
1D00
1D00
0C00
1800
7000
ENDCHAR
STARTCHAR uni0444
ENCODING 1092
SWIDTH 628 0
DWIDTH 8 0
BBX 7 11 0 -2
BITMAP
0240
0240
1FF0
3268
625C
624C
624C
3268
2FF0
0240
0240
ENDCHAR
STARTCHAR uni0445
ENCODING 1093
SWIDTH 438 0
DWIDTH 5 0
BBX 5 7 0 0
BITMAP
6280
3700
1E00
0D00
1E00
3340
6180
ENDCHAR
STARTCHAR uni0446
ENCODING 1094
SWIDTH 524 0
DWIDTH 6 0
BBX 5 9 1 -2
BITMAP
C240
C240
C240
C240
C240
C240
FFC0
00C0
0080
ENDCHAR
STARTCHAR uni0447
ENCODING 1095
SWIDTH 479 0
DWIDTH 6 0
BBX 5 7 0 0
BITMAP
60C0
60C0
60C0
71C0
2FC0
00C0
00C0
ENDCHAR
STARTCHAR uni0448
ENCODING 1096
SWIDTH 703 0
DWIDTH 8 0
BBX 7 7 1 0
BITMAP
C618
C618
C618
C618
C618
C618
FFF8
ENDCHAR
STARTCHAR uni0449
ENCODING 1097
SWIDTH 722 0
DWIDTH 9 0
BBX 9 9 0 -2
BITMAP
718A00
718A00
718A00
718A00
718A00
718A00
7FFF40
000240
000240
ENDCHAR
STARTCHAR uni044A
ENCODING 1098
SWIDTH 538 0
DWIDTH 6 0
BBX 6 7 0 0
BITMAP
B800
1800
1FD0
1870
1830
1870
1FD0
ENDCHAR
STARTCHAR uni044B
ENCODING 1099
SWIDTH 679 0
DWIDTH 8 0
BBX 6 7 1 0
BITMAP
C030
C030
FD30
C330
C330
C330
FD30
ENDCHAR
STARTCHAR uni044C
ENCODING 1100
SWIDTH 478 0
DWIDTH 6 0
BBX 4 7 1 0
BITMAP
C0
C0
FD
C3
C3
C3
FD
ENDCHAR
STARTCHAR uni044D
ENCODING 1101
SWIDTH 472 0
DWIDTH 6 0
BBX 5 7 0 0
BITMAP
2E00
5180
0FC0
00C0
11C0
7280
2E00
ENDCHAR
STARTCHAR uni044E
ENCODING 1102
SWIDTH 706 0
DWIDTH 8 0
BBX 7 7 1 0
BITMAP
C2E0
CA28
FD1C
CC0C
C91C
C628
C2E0
ENDCHAR
STARTCHAR uni044F
ENCODING 1103
SWIDTH 482 0
DWIDTH 6 0
BBX 5 7 0 0
BITMAP
2FC0
60C0
60C0
2FC0
24C0
30C0
A0C0
ENDCHAR
STARTCHAR uni0450
ENCODING 1104
SWIDTH 468 0
DWIDTH 6 0
BBX 5 10 0 0
BITMAP
2800
0900
0000
1F40
31C0
60C0
7FC0
6000
3040
1F80
ENDCHAR
STARTCHAR uni0451
ENCODING 1105
SWIDTH 468 0
DWIDTH 6 0
BBX 5 9 0 0
BITMAP
3580
0000
1F40
31C0
60C0
7FC0
6000
3040
1F80
ENDCHAR
STARTCHAR uni0452
ENCODING 1106
SWIDTH 482 0
DWIDTH 6 0
BBX 5 11 0 -2
BITMAP
6000
FD00
7B40
75C0
60C0
60C0
60C0
60C0
60C0
00C0
0340
ENDCHAR
STARTCHAR uni0453
ENCODING 1107
SWIDTH 371 0
DWIDTH 4 0
BBX 4 10 1 0
BITMAP
28
20
00
FD
C0
C0
C0
C0
C0
C0
ENDCHAR
STARTCHAR uni0454
ENCODING 1108
SWIDTH 472 0
DWIDTH 6 0
BBX 5 7 0 0
BITMAP
1F40
21C0
7D40
6000
7040
35C0
1F40
ENDCHAR
STARTCHAR uni0455
ENCODING 1109
SWIDTH 455 0
DWIDTH 5 0
BBX 5 7 0 0
BITMAP
2F40
3180
3400
1E00
0280
6180
2F40
ENDCHAR
STARTCHAR uni0456
ENCODING 1110
SWIDTH 229 0
DWIDTH 3 0
BBX 1 9 1 0
BITMAP
80
00
C0
C0
C0
C0
C0
C0
C0
ENDCHAR
STARTCHAR uni0457
ENCODING 1111
SWIDTH 234 0
DWIDTH 3 0
BBX 5 9 -1 0
BITMAP
6240
0000
0C00
0C00
0C00
0C00
0C00
0C00
0C00
ENDCHAR
STARTCHAR uni0458
ENCODING 1112
SWIDTH 223 0
DWIDTH 3 0
BBX 2 11 0 -2
BITMAP
60
00
60
60
60
60
60
60
60
60
D0
ENDCHAR
STARTCHAR uni0459
ENCODING 1113
SWIDTH 729 0
DWIDTH 9 0
BBX 9 7 0 0
BITMAP
1FC000
24C000
24C000
24FE00
24C340
30C340
A0FE00
ENDCHAR
STARTCHAR uni045A
ENCODING 1114
SWIDTH 743 0
DWIDTH 9 0
BBX 8 7 1 0
BITMAP
C240
C240
C240
FFF8
C249
C249
C2F8
ENDCHAR
STARTCHAR uni045B
ENCODING 1115
SWIDTH 499 0
DWIDTH 6 0
BBX 5 9 0 0
BITMAP
6000
FD00
7B40
75C0
60C0
60C0
60C0
60C0
60C0
ENDCHAR
STARTCHAR uni045C
ENCODING 1116
SWIDTH 479 0
DWIDTH 6 0
BBX 5 10 1 0
BITMAP
0D00
2400
0000
C300
C900
D800
F400
DC00
CA00
C340
ENDCHAR
STARTCHAR uni045D
ENCODING 1117
SWIDTH 509 0
DWIDTH 6 0
BBX 5 10 1 0
BITMAP
7000
2400
0000
C340
C740
CA40
D640
E240
E240
C240
ENDCHAR
STARTCHAR uni045E
ENCODING 1118
SWIDTH 416 0
DWIDTH 5 0
BBX 5 12 0 -2
BITMAP
3240
2E00
0000
9180
6240
3300
2600
1D00
1D00
0C00
1800
7000
ENDCHAR
STARTCHAR uni045F
ENCODING 1119
SWIDTH 509 0
DWIDTH 6 0
BBX 5 9 1 -2
BITMAP
C240
C240
C240
C240
C240
C240
FF40
1800
1800
ENDCHAR
STARTCHAR uni0460
ENCODING 1120
SWIDTH 754 0
DWIDTH 9 0
BBX 8 9 1 0
BITMAP
C309
C309
C309
C309
C309
C309
C309
D74C
7DF4
ENDCHAR
STARTCHAR uni0461
ENCODING 1121
SWIDTH 650 0
DWIDTH 8 0
BBX 8 7 0 0
BITMAP
624D
624D
624D
624D
624C
738C
2EB4
ENDCHAR
STARTCHAR uni0462
ENCODING 1122
SWIDTH 551 0
DWIDTH 7 0
BBX 7 9 -1 0
BITMAP
0C00
7F00
0C00
0C00
0FF4
0C1C
0C0C
0C1C
0FF4
ENDCHAR
STARTCHAR uni0463
ENCODING 1123
SWIDTH 477 0
DWIDTH 6 0
BBX 5 9 0 0
BITMAP
3000
3000
FD00
3000
3000
3F80
30C0
30C0
3F40
ENDCHAR
STARTCHAR uni0464
ENCODING 1124
SWIDTH 772 0
DWIDTH 9 0
BBX 8 9 1 0
BITMAP
C2F4
C61C
CD09
CC00
FFE0
CC00
CD09
CA1C
C2F4
ENDCHAR
STARTCHAR uni0465
ENCODING 1125
SWIDTH 646 0
DWIDTH 8 0
BBX 6 7 1 0
BITMAP
C7D0
CC30
FFD0
D800
CC10
C930
C3D0
ENDCHAR
STARTCHAR uni0466
ENCODING 1126
SWIDTH 526 0
DWIDTH 6 0
BBX 7 9 0 0
BITMAP
0700
0B40
0A80
0D80
18C0
2FD0
3660
6630
A634
ENDCHAR
STARTCHAR uni0467
ENCODING 1127
SWIDTH 470 0
DWIDTH 6 0
BBX 6 7 0 0
BITMAP
0900
0E00
1B00
2640
3F80
69C0
9990
ENDCHAR
STARTCHAR uni0468
ENCODING 1128
SWIDTH 759 0
DWIDTH 9 0
BBX 8 9 1 0
BITMAP
C0A0
C0F0
C1B0
C264
C358
FFFC
C699
C99A
CC96
ENDCHAR
STARTCHAR uni0469
ENCODING 1129
SWIDTH 654 0
DWIDTH 8 0
BBX 7 7 1 0
BITMAP
C280
C3C0
C690
C9A0
FFE0
DEB0
EAA4
ENDCHAR
STARTCHAR uni046A
ENCODING 1130
SWIDTH 747 0
DWIDTH 9 0
BBX 8 9 0 0
BITMAP
1FFD
0918
0724
02B0
1FFD
34C7
30C3
70C3
70C3
ENDCHAR
STARTCHAR uni046B
ENCODING 1131
SWIDTH 645 0
DWIDTH 8 0
BBX 6 7 1 0
BITMAP
7FC0
2580
1B00
7F90
D960
C930
C930
ENDCHAR
STARTCHAR uni046C
ENCODING 1132
SWIDTH 980 0
DWIDTH 12 0
BBX 10 9 1 0
BITMAP
C1FFC0
C0D280
C06300
C03A00
FFFF90
C35CA0
C61C30
C61C30
C61C30
ENDCHAR
STARTCHAR uni046D
ENCODING 1133
SWIDTH 856 0
DWIDTH 10 0
BBX 9 7 1 0
BITMAP
C2FE00
C18C00
C0A800
FFFE00
C63340
C93240
C93240
ENDCHAR
STARTCHAR uni046E
ENCODING 1134
SWIDTH 454 0
DWIDTH 5 0
BBX 5 15 0 -3
BITMAP
2600
0D00
0000
7E00
0240
0280
0240
2E00
0240
0180
0240
3E00
A000
6000
2000
ENDCHAR
STARTCHAR uni046F
ENCODING 1135
SWIDTH 423 0
DWIDTH 5 0
BBX 5 13 0 -3
BITMAP
2600
1C00
0000
7E00
0240
2E00
0240
0240
0240
3E00
A000
6000
2000
ENDCHAR
STARTCHAR uni0470
ENCODING 1136
SWIDTH 600 0
DWIDTH 7 0
BBX 7 9 0 0
BITMAP
A318
A318
A318
6318
6324
3770
1BD0
0300
0300
ENDCHAR
STARTCHAR uni0471
ENCODING 1137
SWIDTH 612 0
DWIDTH 7 0
BBX 7 10 0 -3
BITMAP
6324
6318
6318
6318
6318
3774
1BD0
0300
0300
0300
ENDCHAR
STARTCHAR uni0472
ENCODING 1138
SWIDTH 593 0
DWIDTH 7 0
BBX 7 9 0 0
BITMAP
0B80
2460
7034
6024
7FF4
6024
7034
2860
0B80
ENDCHAR
STARTCHAR uni0473
ENCODING 1139
SWIDTH 497 0
DWIDTH 6 0
BBX 6 7 0 0
BITMAP
1F40
2080
7FD0
6090
6090
35C0
1F40
ENDCHAR
STARTCHAR uni0474
ENCODING 1140
SWIDTH 553 0
DWIDTH 7 0
BBX 7 9 0 0
BITMAP
9024
6060
3090
24C0
24C0
1980
0E40
0B00
0600
ENDCHAR
STARTCHAR uni0475
ENCODING 1141
SWIDTH 443 0
DWIDTH 5 0
BBX 5 7 0 0
BITMAP
A0C0
6280
3240
2700
1A00
1D00
0C00
ENDCHAR
STARTCHAR uni0476
ENCODING 1142
SWIDTH 553 0
DWIDTH 7 0
BBX 7 10 0 0
BITMAP
3A00
AA24
6060
3090
24C0
24C0
1980
0E40
0B00
0600
ENDCHAR
STARTCHAR uni0477
ENCODING 1143
SWIDTH 443 0
DWIDTH 5 0
BBX 5 10 0 0
BITMAP
AD00
2A00
0000
A0C0
6280
3240
2700
1A00
1D00
0C00
ENDCHAR
STARTCHAR uni0478
ENCODING 1144
SWIDTH 1017 0
DWIDTH 12 0
BBX 12 11 0 -2
BITMAP
0B9000
287000
302586
6024CA
6024D9
60249C
302478
287034
0B9020
000060
0001D0
ENDCHAR
STARTCHAR uni0479
ENCODING 1145
SWIDTH 918 0
DWIDTH 11 0
BBX 11 9 0 -2
BITMAP
1F4A18
35C624
609330
609260
6091E0
34C0D0
1F40C0
000180
000700
ENDCHAR
STARTCHAR uni047A
ENCODING 1146
SWIDTH 593 0
DWIDTH 7 0
BBX 7 11 0 -1
BITMAP
0200
0B80
2660
7034
6024
6024
6024
7034
2660
0B80
0200
ENDCHAR
STARTCHAR uni047B
ENCODING 1147
SWIDTH 498 0
DWIDTH 6 0
BBX 6 9 0 -1
BITMAP
0500
1F40
35C0
6090
6090
6090
35C0
1F40
0500
ENDCHAR
STARTCHAR uni047C
ENCODING 1148
SWIDTH 752 0
DWIDTH 9 0
BBX 8 12 1 0
BITMAP
0B40
09A0
0200
6224
D00C
C00D
C00D
C30D
C30D
C30D
D75C
79B4
ENDCHAR
STARTCHAR uni047D
ENCODING 1149
SWIDTH 654 0
DWIDTH 8 0
BBX 8 10 0 0
BITMAP
0780
0574
0080
2564
300C
600C
614D
624C
328C
2EB4
ENDCHAR
STARTCHAR uni047E
ENCODING 1150
SWIDTH 754 0
DWIDTH 9 0
BBX 8 12 1 0
BITMAP
1FE0
0300
0000
C309
C309
C309
C309
C309
C309
C309
D74C
7DF4
ENDCHAR
STARTCHAR uni047F
ENCODING 1151
SWIDTH 650 0
DWIDTH 8 0
BBX 8 10 0 0
BITMAP
0FF0
0240
0000
624D
624D
624D
624D
624C
738C
2EB4
ENDCHAR
STARTCHAR uni0480
ENCODING 1152
SWIDTH 570 0
DWIDTH 7 0
BBX 6 11 0 -2
BITMAP
0B80
2460
7030
6000
6000
6000
7000
2400
0B00
0300
0300
ENDCHAR
STARTCHAR uni0481
ENCODING 1153
SWIDTH 472 0
DWIDTH 6 0
BBX 5 9 0 -2
BITMAP
1F40
35C0
6040
6000
6000
3400
1D00
0900
0900
ENDCHAR
STARTCHAR uni0482
ENCODING 1154
SWIDTH 547 0
DWIDTH 7 0
BBX 5 8 1 0
BITMAP
0240
2600
0A00
0980
9400
7400
6900
8000
ENDCHAR
STARTCHAR uni0483
ENCODING 1155
SWIDTH 0 0
DWIDTH 0 0
BBX 4 3 -5 7
BITMAP
02
BF
50
ENDCHAR
STARTCHAR uni0484
ENCODING 1156
SWIDTH 0 0
DWIDTH 0 0
BBX 5 2 -5 8
BITMAP
1B00
7540
ENDCHAR
STARTCHAR uni0485
ENCODING 1157
SWIDTH 0 0
DWIDTH 0 0
BBX 2 2 -4 8
BITMAP
60
20
ENDCHAR
STARTCHAR uni0486
ENCODING 1158
SWIDTH 0 0
DWIDTH 0 0
BBX 2 2 -3 8
BITMAP
90
80
ENDCHAR
STARTCHAR uni0488
ENCODING 1160
SWIDTH 0 0
DWIDTH 0 0
BBX 12 12 -9 -3
BITMAP
003800
005400
1D00B0
110054
000000
74001C
440015
000000
1D00B0
110054
003800
005400
ENDCHAR
STARTCHAR uni0489
ENCODING 1161
SWIDTH 0 0
DWIDTH 0 0
BBX 11 11 -9 -2
BITMAP
001400
002000
080060
090040
000000
640028
000004
000000
050080
192050
002000
ENDCHAR
STARTCHAR uni048A
ENCODING 1162
SWIDTH 666 0
DWIDTH 8 0
BBX 7 14 1 -2
BITMAP
2580
1F40
0000
C0D0
C1D0
C290
C690
C990
D890
E490
E0A0
D0B8
0024
0020
ENDCHAR
STARTCHAR uni048B
ENCODING 1163
SWIDTH 550 0
DWIDTH 7 0
BBX 6 12 1 -2
BITMAP
6300
2D00
0000
C340
C740
CA40
D640
E240
E240
C2D0
00D0
0080
ENDCHAR
STARTCHAR uni048C
ENCODING 1164
SWIDTH 551 0
DWIDTH 7 0
BBX 7 9 -1 0
BITMAP
0C00
7F00
0C00
0C00
0FF4
0C1C
0C0C
0C1C
0FF4
ENDCHAR
STARTCHAR uni048D
ENCODING 1165
SWIDTH 477 0
DWIDTH 6 0
BBX 5 10 0 0
BITMAP
3000
FD00
3000
3000
3000
3F40
31C0
30C0
30C0
3F40
ENDCHAR
STARTCHAR uni048E
ENCODING 1166
SWIDTH 557 0
DWIDTH 7 0
BBX 5 9 1 0
BITMAP
FF40
C1C0
C0C0
C3C0
FFC0
C040
C000
C000
C000
ENDCHAR
STARTCHAR uni048F
ENCODING 1167
SWIDTH 496 0
DWIDTH 6 0
BBX 6 9 0 -2
BITMAP
6B40
75C0
6090
6090
6190
76C0
7BD0
6000
6000
ENDCHAR
STARTCHAR uni0490
ENCODING 1168
SWIDTH 479 0
DWIDTH 6 0
BBX 5 11 1 0
BITMAP
0240
0240
FF40
C000
C000
C000
C000
C000
C000
C000
C000
ENDCHAR
STARTCHAR uni0491
ENCODING 1169
SWIDTH 395 0
DWIDTH 5 0
BBX 5 9 0 0
BITMAP
0240
0240
7F40
7000
7000
7000
7000
7000
7000
ENDCHAR
STARTCHAR uni0492
ENCODING 1170
SWIDTH 487 0
DWIDTH 6 0
BBX 6 9 0 0
BITMAP
3FD0
3000
3000
3000
FD00
3000
3000
3000
3000
ENDCHAR
STARTCHAR uni0493
ENCODING 1171
SWIDTH 371 0
DWIDTH 4 0
BBX 5 7 0 0
BITMAP
3F40
3000
3000
FD00
3000
3000
3000
ENDCHAR
STARTCHAR uni0494
ENCODING 1172
SWIDTH 539 0
DWIDTH 6 0
BBX 5 11 1 -2
BITMAP
FF40
C000
C000
C000
FD00
C240
C180
C180
C180
0280
0600
ENDCHAR
STARTCHAR uni0495
ENCODING 1173
SWIDTH 443 0
DWIDTH 5 0
BBX 5 9 0 -2
BITMAP
7F40
7000
7000
7E00
7280
7180
7180
0240
0600
ENDCHAR
STARTCHAR uni0496
ENCODING 1174
SWIDTH 833 0
DWIDTH 10 0
BBX 10 11 0 -2
BITMAP
7091C0
249240
189700
099900
0BFC00
0D9A00
189700
349280
6091F0
000060
000060
ENDCHAR
STARTCHAR uni0497
ENCODING 1175
SWIDTH 696 0
DWIDTH 8 0
BBX 8 9 0 -2
BITMAP
624D
3658
1A64
0FF0
2A64
365C
A24B
0003
0003
ENDCHAR
STARTCHAR uni0498
ENCODING 1176
SWIDTH 517 0
DWIDTH 6 0
BBX 6 11 0 -2
BITMAP
1F80
70D0
10A0
0090
0B80
0090
5060
7090
1F80
0600
0600
ENDCHAR
STARTCHAR uni0499
ENCODING 1177
SWIDTH 446 0
DWIDTH 5 0
BBX 5 9 0 -2
BITMAP
2F40
6280
1F00
0280
0180
6280
2F00
0D00
0D00
ENDCHAR
STARTCHAR uni049A
ENCODING 1178
SWIDTH 617 0
DWIDTH 7 0
BBX 6 11 1 -2
BITMAP
C1C0
C340
CA00
DC00
EC00
CA00
C340
C280
C0F0
0070
0070
ENDCHAR
STARTCHAR uni049B
ENCODING 1179
SWIDTH 524 0
DWIDTH 6 0
BBX 5 9 1 -2
BITMAP
C300
C900
D800
F400
DC00
CA00
C3C0
00C0
00C0
ENDCHAR
STARTCHAR uni049C
ENCODING 1180
SWIDTH 553 0
DWIDTH 7 0
BBX 6 9 1 0
BITMAP
C0C0
C280
D300
E600
FD00
E700
D340
C180
C0D0
ENDCHAR
STARTCHAR uni049D
ENCODING 1181
SWIDTH 498 0
DWIDTH 6 0
BBX 5 7 1 0
BITMAP
C240
D300
E900
FD00
EA00
C300
C280
ENDCHAR
STARTCHAR uni049E
ENCODING 1182
SWIDTH 570 0
DWIDTH 7 0
BBX 7 9 0 0
BITMAP
3034
FDA0
31C0
3740
3F00
3280
30D0
3060
3034
ENDCHAR
STARTCHAR uni049F
ENCODING 1183
SWIDTH 462 0
DWIDTH 6 0
BBX 7 9 -1 0
BITMAP
0C00
7F00
0C70
0C90
0DC0
0F80
0CC0
0CA0
0C34
ENDCHAR
STARTCHAR uni04A0
ENCODING 1184
SWIDTH 710 0
DWIDTH 9 0
BBX 8 9 0 0
BITMAP
BE07
060D
0628
0670
07E0
0634
0618
0609
0607
ENDCHAR
STARTCHAR uni04A1
ENCODING 1185
SWIDTH 607 0
DWIDTH 7 0
BBX 7 7 0 0
BITMAP
BE28
0A30
0A90
0BC0
0AA0
0A34
0A1C
ENDCHAR
STARTCHAR uni04A2
ENCODING 1186
SWIDTH 662 0
DWIDTH 8 0
BBX 7 11 1 -2
BITMAP
C0A0
C0A0
C0A0
C0A0
FFE0
C0A0
C0A0
C0A0
C0B4
0024
0024
ENDCHAR
STARTCHAR uni04A3
ENCODING 1187
SWIDTH 541 0
DWIDTH 7 0
BBX 5 9 1 -2
BITMAP
C240
C240
C240
FF40
C240
C240
C2C0
00C0
00C0
ENDCHAR
STARTCHAR uni04A4
ENCODING 1188
SWIDTH 829 0
DWIDTH 10 0
BBX 9 9 1 0
BITMAP
C0BF40
C0A000
C0A000
C0A000
FFE000
C0A000
C0A000
C0A000
C0A000
ENDCHAR
STARTCHAR uni04A5
ENCODING 1189
SWIDTH 614 0
DWIDTH 7 0
BBX 7 7 0 0
BITMAP
70FC
70C0
70C0
7FC0
70C0
70C0
70C0
ENDCHAR
STARTCHAR uni04A6
ENCODING 1190
SWIDTH 880 0
DWIDTH 11 0
BBX 9 11 1 -2
BITMAP
FFD000
C09000
C09000
C09000
C0BE00
C09240
C09180
C090C0
C091C0
000280
000600
ENDCHAR
STARTCHAR uni04A7
ENCODING 1191
SWIDTH 755 0
DWIDTH 9 0
BBX 9 9 0 -2
BITMAP
7FD000
70D000
70D000
70FD00
70D340
70D180
70D180
000340
000600
ENDCHAR
STARTCHAR uni04A8
ENCODING 1192
SWIDTH 641 0
DWIDTH 8 0
BBX 8 9 0 0
BITMAP
18B4
3698
724C
630C
630D
634C
324C
29A4
0BFD
ENDCHAR
STARTCHAR uni04A9
ENCODING 1193
SWIDTH 528 0
DWIDTH 6 0
BBX 6 7 0 0
BITMAP
26C0
36A0
6660
6660
6660
3690
1FF0
ENDCHAR
STARTCHAR uni04AA
ENCODING 1194
SWIDTH 566 0
DWIDTH 7 0
BBX 7 11 0 -2
BITMAP
0B90
2870
3024
7000
6000
7000
3020
2470
0B90
0300
0300
ENDCHAR
STARTCHAR uni04AB
ENCODING 1195
SWIDTH 461 0
DWIDTH 6 0
BBX 5 9 0 -2
BITMAP
1F40
31C0
6040
6000
6040
31C0
1F40
0900
0900
ENDCHAR
STARTCHAR uni04AC
ENCODING 1196
SWIDTH 520 0
DWIDTH 6 0
BBX 6 11 0 -2
BITMAP
BFF0
0600
0600
0600
0600
0600
0600
0600
0780
0280
0280
ENDCHAR
STARTCHAR uni04AD
ENCODING 1197
SWIDTH 424 0
DWIDTH 5 0
BBX 5 9 0 -2
BITMAP
BF80
0C00
0C00
0C00
0C00
0C00
0F00
0300
0300
ENDCHAR
STARTCHAR uni04AE
ENCODING 1198
SWIDTH 524 0
DWIDTH 6 0
BBX 6 9 0 0
BITMAP
A070
7090
24C0
1980
0F00
0600
0600
0600
0600
ENDCHAR
STARTCHAR uni04AF
ENCODING 1199
SWIDTH 444 0
DWIDTH 5 0
BBX 5 9 0 -2
BITMAP
A0C0
6180
3240
2700
1E00
0D00
0900
0900
0900
ENDCHAR
STARTCHAR uni04B0
ENCODING 1200
SWIDTH 524 0
DWIDTH 6 0
BBX 6 9 0 0
BITMAP
A070
7090
24C0
1980
0F40
1F80
0600
0600
0600
ENDCHAR
STARTCHAR uni04B1
ENCODING 1201
SWIDTH 444 0
DWIDTH 5 0
BBX 5 9 0 -2
BITMAP
A0C0
6180
3240
2700
1A00
0E00
3F40
0900
0900
ENDCHAR
STARTCHAR uni04B2
ENCODING 1202
SWIDTH 559 0
DWIDTH 7 0
BBX 7 11 0 -2
BITMAP
7070
2490
1DC0
0B40
0700
0F40
19C0
3490
7078
0024
0024
ENDCHAR
STARTCHAR uni04B3
ENCODING 1203
SWIDTH 465 0
DWIDTH 6 0
BBX 6 9 0 -2
BITMAP
6280
3700
1E00
0D00
1E00
3340
61D0
0090
0090
ENDCHAR
STARTCHAR uni04B4
ENCODING 1204
SWIDTH 781 0
DWIDTH 9 0
BBX 9 11 0 -2
BITMAP
BFC600
090600
090600
090600
090600
090600
090600
090600
0BFF40
000240
000240
ENDCHAR
STARTCHAR uni04B5
ENCODING 1205
SWIDTH 587 0
DWIDTH 7 0
BBX 7 9 0 -2
BITMAP
BE30
1830
1830
1830
1830
1830
1FF8
0018
0018
ENDCHAR
STARTCHAR uni04B6
ENCODING 1206
SWIDTH 638 0
DWIDTH 8 0
BBX 7 11 0 -2
BITMAP
7034
7034
7034
3034
3474
1FF4
0034
0034
003C
000C
000C
ENDCHAR
STARTCHAR uni04B7
ENCODING 1207
SWIDTH 512 0
DWIDTH 6 0
BBX 6 9 0 -2
BITMAP
60C0
60C0
60C0
71C0
2FC0
00C0
00E0
0060
0060
ENDCHAR
STARTCHAR uni04B8
ENCODING 1208
SWIDTH 595 0
DWIDTH 7 0
BBX 7 9 0 0
BITMAP
7034
7034
7034
3234
3674
1FF4
0234
0134
0034
ENDCHAR
STARTCHAR uni04B9
ENCODING 1209
SWIDTH 483 0
DWIDTH 6 0
BBX 5 7 0 0
BITMAP
60C0
60C0
65C0
39C0
1FC0
05C0
00C0
ENDCHAR
STARTCHAR uni04BA
ENCODING 1210
SWIDTH 595 0
DWIDTH 7 0
BBX 6 9 0 0
BITMAP
6000
6000
6000
7FD0
7470
6030
6030
6030
6030
ENDCHAR
STARTCHAR uni04BB
ENCODING 1211
SWIDTH 482 0
DWIDTH 6 0
BBX 5 9 0 0
BITMAP
6000
6000
7B40
75C0
60C0
60C0
60C0
60C0
60C0
ENDCHAR
STARTCHAR uni04BC
ENCODING 1212
SWIDTH 674 0
DWIDTH 8 0
BBX 8 9 0 0
BITMAP
02F4
061C
4909
6D09
2FFD
0C00
0900
0604
01F8
ENDCHAR
STARTCHAR uni04BD
ENCODING 1213
SWIDTH 518 0
DWIDTH 6 0
BBX 6 7 0 0
BITMAP
0B80
5890
E460
7FE0
2400
2850
0B80
ENDCHAR
STARTCHAR uni04BE
ENCODING 1214
SWIDTH 674 0
DWIDTH 8 0
BBX 8 11 0 -2
BITMAP
02F4
061C
4909
6D09
2FFD
0C00
0900
0604
01F8
0090
0090
ENDCHAR
STARTCHAR uni04BF
ENCODING 1215
SWIDTH 518 0
DWIDTH 6 0
BBX 6 9 0 -2
BITMAP
0B80
5890
E460
7FE0
2400
2850
0BC0
0300
0300
ENDCHAR
STARTCHAR uni04C0
ENCODING 1216
SWIDTH 250 0
DWIDTH 3 0
BBX 1 9 1 0
BITMAP
C0
C0
C0
C0
C0
C0
C0
C0
C0
ENDCHAR
STARTCHAR uni04C1
ENCODING 1217
SWIDTH 791 0
DWIDTH 10 0
BBX 9 12 0 0
BITMAP
032400
01E000
000000
7091C0
249240
189700
099900
0BFC00
0D9A00
189700
349280
6091C0
ENDCHAR
STARTCHAR uni04C2
ENCODING 1218
SWIDTH 662 0
DWIDTH 8 0
BBX 8 10 0 0
BITMAP
0960
07D0
0000
624D
3658
1A64
0FF0
2A64
365C
A249
ENDCHAR
STARTCHAR uni04C3
ENCODING 1219
SWIDTH 553 0
DWIDTH 7 0
BBX 6 11 1 -2
BITMAP
C1C0
C340
CA00
CC00
FE00
C280
C0C0
C0D0
C0C0
01C0
0740
ENDCHAR
STARTCHAR uni04C4
ENCODING 1220
SWIDTH 481 0
DWIDTH 6 0
BBX 5 9 1 -2
BITMAP
C600
D800
FD00
C700
C340
C240
C240
0700
0900
ENDCHAR
STARTCHAR uni04C5
ENCODING 1221
SWIDTH 662 0
DWIDTH 8 0
BBX 8 11 0 -2
BITMAP
0FF4
0C24
1C24
1C24
1824
1824
1824
2428
A02E
0009
0008
ENDCHAR
STARTCHAR uni04C6
ENCODING 1222
SWIDTH 551 0
DWIDTH 7 0
BBX 7 9 0 -2
BITMAP
1FD0
2890
2490
2490
2490
3490
A0B4
0034
0020
ENDCHAR
STARTCHAR uni04C7
ENCODING 1223
SWIDTH 620 0
DWIDTH 7 0
BBX 6 11 1 -2
BITMAP
C090
C090
C090
C090
FFD0
C090
C090
C090
C090
0090
0280
ENDCHAR
STARTCHAR uni04C8
ENCODING 1224
SWIDTH 498 0
DWIDTH 6 0
BBX 5 9 0 -2
BITMAP
70C0
70C0
70C0
7FC0
70C0
70C0
70C0
00C0
0380
ENDCHAR
STARTCHAR uni04C9
ENCODING 1225
SWIDTH 671 0
DWIDTH 8 0
BBX 7 11 1 -2
BITMAP
C0A0
C0A0
C0A0
C0A0
FFE0
C0A0
C0A0
C0A4
C0B8
0024
0020
ENDCHAR
STARTCHAR uni04CA
ENCODING 1226
SWIDTH 550 0
DWIDTH 7 0
BBX 6 9 1 -2
BITMAP
C240
C240
C240
FF40
C240
C240
C2D0
00D0
0080
ENDCHAR
STARTCHAR uni04CB
ENCODING 1227
SWIDTH 600 0
DWIDTH 7 0
BBX 7 11 0 -2
BITMAP
7034
7034
7034
3034
3474
1FF4
0034
0034
00B4
0090
0090
ENDCHAR
STARTCHAR uni04CC
ENCODING 1228
SWIDTH 479 0
DWIDTH 6 0
BBX 5 9 0 -2
BITMAP
60C0
60C0
60C0
71C0
2FC0
00C0
03C0
0300
0300
ENDCHAR
STARTCHAR uni04CD
ENCODING 1229
SWIDTH 801 0
DWIDTH 10 0
BBX 8 11 1 -2
BITMAP
D01C
E02C
F03C
E46C
D89C
CCCC
C98C
C74D
C30F
0003
0006
ENDCHAR
STARTCHAR uni04CE
ENCODING 1230
SWIDTH 687 0
DWIDTH 8 0
BBX 7 9 1 -2
BITMAP
D0B0
E0F0
F1F0
E6B0
DA70
CE34
C93C
001C
0014
ENDCHAR
STARTCHAR uni04CF
ENCODING 1231
SWIDTH 250 0
DWIDTH 3 0
BBX 1 9 1 0
BITMAP
C0
C0
C0
C0
C0
C0
C0
C0
C0
ENDCHAR
STARTCHAR uni04D0
ENCODING 1232
SWIDTH 576 0
DWIDTH 7 0
BBX 7 12 0 0
BITMAP
1880
0B80
0000
0300
0740
0A80
0CC0
1890
24A0
3FF0
7034
A028
ENDCHAR
STARTCHAR uni04D1
ENCODING 1233
SWIDTH 479 0
DWIDTH 6 0
BBX 5 10 0 0
BITMAP
2580
1F40
0000
1F40
3180
00C0
1FC0
70C0
71C0
2EC0
ENDCHAR
STARTCHAR uni04D2
ENCODING 1234
SWIDTH 576 0
DWIDTH 7 0
BBX 7 11 0 0
BITMAP
1890
0000
0300
0740
0A80
0CC0
1890
24A0
3FF0
7034
A028
ENDCHAR
STARTCHAR uni04D3
ENCODING 1235
SWIDTH 479 0
DWIDTH 6 0
BBX 5 9 0 0
BITMAP
2580
0000
1F40
3180
00C0
1FC0
70C0
71C0
2EC0
ENDCHAR
STARTCHAR uni04D4
ENCODING 1236
SWIDTH 812 0
DWIDTH 10 0
BBX 10 9 0 0
BITMAP
00FFD0
01E000
036000
067000
0D3F80
1C3000
2FF000
703000
903FD0
ENDCHAR
STARTCHAR uni04D5
ENCODING 1237
SWIDTH 728 0
DWIDTH 9 0
BBX 9 7 0 0
BITMAP
2E7D00
72D300
01C240
2FFF40
61C000
62D100
2E7E00
ENDCHAR
STARTCHAR uni04D6
ENCODING 1238
SWIDTH 496 0
DWIDTH 6 0
BBX 5 12 1 0
BITMAP
9300
2D00
0000
FF40
C000
C000
C000
FF00
C000
C000
C000
FF80
ENDCHAR
STARTCHAR uni04D7
ENCODING 1239
SWIDTH 468 0
DWIDTH 6 0
BBX 5 10 0 0
BITMAP
2580
1F00
0000
1F40
31C0
60C0
7FC0
6000
3040
1F80
ENDCHAR
STARTCHAR uni04D8
ENCODING 1240
SWIDTH 597 0
DWIDTH 7 0
BBX 7 9 0 0
BITMAP
1F80
10A0
0034
0024
7FF4
6024
6034
34A0
1B80
ENDCHAR
STARTCHAR uni04D9
ENCODING 1241
SWIDTH 465 0
DWIDTH 6 0
BBX 5 7 0 0
BITMAP
2E00
1180
00C0
7FC0
60C0
3280
1E00
ENDCHAR
STARTCHAR uni04DA
ENCODING 1242
SWIDTH 597 0
DWIDTH 7 0
BBX 7 11 0 0
BITMAP
24C0
0000
1F80
10A0
0034
0024
7FF4
6024
6034
34A0
1B80
ENDCHAR
STARTCHAR uni04DB
ENCODING 1243
SWIDTH 465 0
DWIDTH 6 0
BBX 5 9 0 0
BITMAP
3180
0000
2E00
1180
00C0
7FC0
60C0
3280
1E00
ENDCHAR
STARTCHAR uni04DC
ENCODING 1244
SWIDTH 791 0
DWIDTH 10 0
BBX 9 11 0 0
BITMAP
031800
000000
7091C0
249240
189700
099900
0BFC00
0D9A00
189700
349280
6091C0
ENDCHAR
STARTCHAR uni04DD
ENCODING 1245
SWIDTH 662 0
DWIDTH 8 0
BBX 8 9 0 0
BITMAP
0960
0000
624D
3658
1A64
0FF0
2A64
365C
A249
ENDCHAR
STARTCHAR uni04DE
ENCODING 1246
SWIDTH 517 0
DWIDTH 6 0
BBX 6 11 0 0
BITMAP
25C0
0000
1F80
70D0
10A0
0090
0B80
0090
5060
7090
1F80
ENDCHAR
STARTCHAR uni04DF
ENCODING 1247
SWIDTH 446 0
DWIDTH 5 0
BBX 5 9 0 0
BITMAP
3240
0000
2F40
6280
1F00
0280
0180
6280
2E00
ENDCHAR
STARTCHAR uni04E0
ENCODING 1248
SWIDTH 510 0
DWIDTH 6 0
BBX 6 9 0 0
BITMAP
3FC0
0180
0300
0900
0F40
00D0
5090
70D0
1F40
ENDCHAR
STARTCHAR uni04E1
ENCODING 1249
SWIDTH 510 0
DWIDTH 6 0
BBX 6 9 0 -2
BITMAP
3FC0
0180
0300
0900
0F40
00D0
5090
70D0
1F40
ENDCHAR
STARTCHAR uni04E2
ENCODING 1250
SWIDTH 619 0
DWIDTH 7 0
BBX 6 11 1 0
BITMAP
3F40
0000
C0D0
C1D0
C290
C690
C990
D890
E490
E090
D090
ENDCHAR
STARTCHAR uni04E3
ENCODING 1251
SWIDTH 509 0
DWIDTH 6 0
BBX 5 9 1 0
BITMAP
BE00
0000
C340
C740
CA40
D640
E240
E240
C240
ENDCHAR
STARTCHAR uni04E4
ENCODING 1252
SWIDTH 619 0
DWIDTH 7 0
BBX 6 11 1 0
BITMAP
3280
0000
C0D0
C1D0
C290
C690
C990
D890
E490
E090
D090
ENDCHAR
STARTCHAR uni04E5
ENCODING 1253
SWIDTH 509 0
DWIDTH 6 0
BBX 5 9 1 0
BITMAP
9600
0000
C340
C740
CA40
D640
E240
E240
C240
ENDCHAR
STARTCHAR uni04E6
ENCODING 1254
SWIDTH 600 0
DWIDTH 7 0
BBX 7 11 0 0
BITMAP
0C90
0000
0B90
2870
3024
6024
6024
6024
3024
2870
0B90
ENDCHAR
STARTCHAR uni04E7
ENCODING 1255
SWIDTH 501 0
DWIDTH 6 0
BBX 6 9 0 0
BITMAP
2580
0000
1F40
35C0
6090
6090
6090
34C0
1F40
ENDCHAR
STARTCHAR uni04E8
ENCODING 1256
SWIDTH 593 0
DWIDTH 7 0
BBX 7 9 0 0
BITMAP
0B80
2460
7034
6024
7FF4
6024
7034
2860
0B80
ENDCHAR
STARTCHAR uni04E9
ENCODING 1257
SWIDTH 497 0
DWIDTH 6 0
BBX 6 7 0 0
BITMAP
1F40
2080
7FD0
6090
6090
35C0
1F40
ENDCHAR
STARTCHAR uni04EA
ENCODING 1258
SWIDTH 593 0
DWIDTH 7 0
BBX 7 11 0 0
BITMAP
0C90
0000
0B80
2460
7034
6024
7FF4
6024
7034
2860
0B80
ENDCHAR
STARTCHAR uni04EB
ENCODING 1259
SWIDTH 497 0
DWIDTH 6 0
BBX 6 9 0 0
BITMAP
3180
0000
1F40
2080
7FD0
6090
6090
35C0
1F40
ENDCHAR
STARTCHAR uni04EC
ENCODING 1260
SWIDTH 589 0
DWIDTH 7 0
BBX 6 11 1 0
BITMAP
6240
0000
2E00
9180
C0D0
0090
1FD0
0090
C0D0
91C0
2E00
ENDCHAR
STARTCHAR uni04ED
ENCODING 1261
SWIDTH 472 0
DWIDTH 6 0
BBX 5 9 0 0
BITMAP
3180
0000
2E00
5180
0FC0
00C0
11C0
7280
2E00
ENDCHAR
STARTCHAR uni04EE
ENCODING 1262
SWIDTH 547 0
DWIDTH 7 0
BBX 6 11 0 0
BITMAP
1FC0
0000
7070
34A0
28D0
1DC0
0E80
0740
0700
0600
2C00
ENDCHAR
STARTCHAR uni04EF
ENCODING 1263
SWIDTH 416 0
DWIDTH 5 0
BBX 5 11 0 -2
BITMAP
3F40
0000
9180
6240
3300
2600
1D00
1D00
0C00
1800
7000
ENDCHAR
STARTCHAR uni04F0
ENCODING 1264
SWIDTH 547 0
DWIDTH 7 0
BBX 6 11 0 0
BITMAP
18C0
0000
7070
34A0
28D0
1DC0
0E80
0740
0700
0600
2C00
ENDCHAR
STARTCHAR uni04F1
ENCODING 1265
SWIDTH 416 0
DWIDTH 5 0
BBX 5 11 0 -2
BITMAP
7240
0000
9180
6240
3300
2600
1D00
1D00
0C00
1800
7000
ENDCHAR
STARTCHAR uni04F2
ENCODING 1266
SWIDTH 547 0
DWIDTH 7 0
BBX 6 12 0 0
BITMAP
0690
0980
0000
7070
34A0
28D0
1DC0
0E80
0740
0700
0600
2C00
ENDCHAR
STARTCHAR uni04F3
ENCODING 1267
SWIDTH 416 0
DWIDTH 5 0
BBX 5 12 0 -2
BITMAP
0E80
1600
0000
9180
6240
3300
2600
1D00
1D00
0C00
1800
7000
ENDCHAR
STARTCHAR uni04F4
ENCODING 1268
SWIDTH 600 0
DWIDTH 7 0
BBX 7 11 0 0
BITMAP
1890
0000
7034
7034
7034
3034
3474
1FF4
0034
0034
0034
ENDCHAR
STARTCHAR uni04F5
ENCODING 1269
SWIDTH 479 0
DWIDTH 6 0
BBX 5 9 0 0
BITMAP
3240
0000
60C0
60C0
60C0
71C0
2FC0
00C0
00C0
ENDCHAR
STARTCHAR uni04F6
ENCODING 1270
SWIDTH 487 0
DWIDTH 6 0
BBX 5 11 1 -2
BITMAP
FF40
C000
C000
C000
C000
C000
C000
C000
F000
3000
3000
ENDCHAR
STARTCHAR uni04F7
ENCODING 1271
SWIDTH 371 0
DWIDTH 4 0
BBX 4 9 1 -2
BITMAP
FD
C0
C0
C0
C0
C0
E0
60
60
ENDCHAR
STARTCHAR uni04F8
ENCODING 1272
SWIDTH 755 0
DWIDTH 9 0
BBX 7 11 1 0
BITMAP
1890
0000
C00C
C00C
C00C
C00C
FF4C
C1CC
C0DC
C1CC
FF4C
ENDCHAR
STARTCHAR uni04F9
ENCODING 1273
SWIDTH 679 0
DWIDTH 8 0
BBX 6 9 1 0
BITMAP
2580
0000
C030
C030
FD30
C330
C330
C330
FD30
ENDCHAR
STARTCHAR uni04FA
ENCODING 1274
SWIDTH 520 0
DWIDTH 6 0
BBX 6 11 0 -2
BITMAP
2FE0
2400
2400
2400
BE00
2400
2400
2400
2D00
0900
2800
ENDCHAR
STARTCHAR uni04FB
ENCODING 1275
SWIDTH 410 0
DWIDTH 5 0
BBX 5 9 0 -2
BITMAP
2F80
2400
2400
BE00
2400
2400
2D00
0D00
2800
ENDCHAR
STARTCHAR uni04FC
ENCODING 1276
SWIDTH 570 0
DWIDTH 7 0
BBX 7 11 0 -2
BITMAP
7070
2490
1DC0
0B40
0700
0F40
19C0
3490
7078
0028
00B4
ENDCHAR
STARTCHAR uni04FD
ENCODING 1277
SWIDTH 476 0
DWIDTH 6 0
BBX 6 9 0 -2
BITMAP
6280
3700
1E00
0D00
1E00
3340
61D0
0090
0280
ENDCHAR
STARTCHAR uni04FE
ENCODING 1278
SWIDTH 550 0
DWIDTH 7 0
BBX 6 9 0 0
BITMAP
7070
2490
1DC0
0B40
1FC0
0B40
19C0
2490
7070
ENDCHAR
STARTCHAR uni04FF
ENCODING 1279
SWIDTH 438 0
DWIDTH 5 0
BBX 5 7 0 0
BITMAP
6280
3740
1E00
3F40
1E00
3300
6180
ENDCHAR
STARTCHAR uni0500
ENCODING 1280
SWIDTH 555 0
DWIDTH 7 0
BBX 6 9 0 0
BITMAP
0060
0060
0060
0060
2FE0
7060
6060
7060
1FE0
ENDCHAR
STARTCHAR uni0501
ENCODING 1281
SWIDTH 496 0
DWIDTH 6 0
BBX 5 9 0 0
BITMAP
00C0
00C0
2EC0
31C0
60C0
60C0
60C0
31C0
2EC0
ENDCHAR
STARTCHAR uni0502
ENCODING 1282
SWIDTH 723 0
DWIDTH 9 0
BBX 9 9 0 0
BITMAP
006000
006000
006000
006000
1FE100
706240
606240
706300
1FFD00
ENDCHAR
STARTCHAR uni0503
ENCODING 1283
SWIDTH 743 0
DWIDTH 9 0
BBX 9 9 0 0
BITMAP
00C000
00C000
1EC000
35C200
60C300
60C240
60C300
31D700
1E7D00
ENDCHAR
STARTCHAR uni0504
ENCODING 1284
SWIDTH 685 0
DWIDTH 8 0
BBX 8 9 0 0
BITMAP
BE00
0240
0280
0248
2E09
0249
0189
018C
00B4
ENDCHAR
STARTCHAR uni0505
ENCODING 1285
SWIDTH 562 0
DWIDTH 7 0
BBX 7 7 0 0
BITMAP
BD00
0600
0620
7D24
0624
0730
02D0
ENDCHAR
STARTCHAR uni0506
ENCODING 1286
SWIDTH 470 0
DWIDTH 6 0
BBX 5 11 0 -2
BITMAP
BD00
0700
0240
0700
3D00
0700
0240
0240
02C0
00C0
0180
ENDCHAR
STARTCHAR uni0507
ENCODING 1287
SWIDTH 443 0
DWIDTH 5 0
BBX 5 9 0 -2
BITMAP
7E00
0300
0300
3E00
0300
0240
02C0
00C0
0140
ENDCHAR
STARTCHAR uni0508
ENCODING 1288
SWIDTH 834 0
DWIDTH 10 0
BBX 10 9 0 0
BITMAP
0FF400
0C2400
0C2400
0C2490
0C2490
1C24A0
182490
2828C0
A01F40
ENDCHAR
STARTCHAR uni0509
ENCODING 1289
SWIDTH 698 0
DWIDTH 8 0
BBX 8 7 0 0
BITMAP
1FC0
18C1
18C3
18C3
24C3
2496
A07C
ENDCHAR
STARTCHAR uni050A
ENCODING 1290
SWIDTH 864 0
DWIDTH 10 0
BBX 9 9 1 0
BITMAP
C09000
C09000
C09000
C09140
FFD280
C09180
C09280
C0A340
C03D00
ENDCHAR
STARTCHAR uni050B
ENCODING 1291
SWIDTH 716 0
DWIDTH 9 0
BBX 8 7 0 0
BITMAP
7090
7091
7093
7FD3
7093
7096
707D
ENDCHAR
STARTCHAR uni050C
ENCODING 1292
SWIDTH 541 0
DWIDTH 7 0
BBX 6 9 0 0
BITMAP
0B80
2840
7000
6000
6060
6030
7030
28A0
0B80
ENDCHAR
STARTCHAR uni050D
ENCODING 1293
SWIDTH 452 0
DWIDTH 5 0
BBX 5 7 0 0
BITMAP
1F40
3400
6000
6040
61C0
3580
1F40
ENDCHAR
STARTCHAR uni050E
ENCODING 1294
SWIDTH 616 0
DWIDTH 7 0
BBX 7 9 0 0
BITMAP
BFF0
0600
0600
0614
0618
0618
0618
0724
02E0
ENDCHAR
STARTCHAR uni050F
ENCODING 1295
SWIDTH 558 0
DWIDTH 7 0
BBX 6 7 0 0
BITMAP
BFC0
0900
0920
0930
0930
0970
07D0
ENDCHAR
STARTCHAR uni0510
ENCODING 1296
SWIDTH 589 0
DWIDTH 7 0
BBX 6 9 1 0
BITMAP
2F40
A1C0
C040
9000
7E00
D000
C050
D1D0
6F40
ENDCHAR
STARTCHAR uni0511
ENCODING 1297
SWIDTH 470 0
DWIDTH 6 0
BBX 5 7 0 0
BITMAP
2F40
71C0
7000
2E00
6000
61C0
2F40
ENDCHAR
STARTCHAR uni0512
ENCODING 1298
SWIDTH 664 0
DWIDTH 8 0
BBX 8 11 0 -2
BITMAP
0FF4
0C24
1C24
1C24
1824
1824
1824
2424
A02D
0009
0028
ENDCHAR
STARTCHAR uni0513
ENCODING 1299
SWIDTH 553 0
DWIDTH 7 0
BBX 7 9 0 -2
BITMAP
1FD0
2890
2490
2490
2490
3490
A0B4
0034
00A0
ENDCHAR
STARTCHAR uni1E00
ENCODING 7680
SWIDTH 576 0
DWIDTH 7 0
BBX 7 12 0 -3
BITMAP
0300
0740
0A80
0CC0
1890
24A0
3FF0
7034
A028
0000
0740
0740
ENDCHAR
STARTCHAR uni1E01
ENCODING 7681
SWIDTH 479 0
DWIDTH 6 0
BBX 5 10 0 -3
BITMAP
1F40
3180
00C0
1FC0
70C0
71C0
2EC0
0000
0D00
0D00
ENDCHAR
STARTCHAR uni1E3E
ENCODING 7742
SWIDTH 755 0
DWIDTH 9 0
BBX 7 12 1 0
BITMAP
01C0
0240
0000
D01C
E02C
F03C
E46C
D89C
CCCC
C98C
C74C
C30C
ENDCHAR
STARTCHAR uni1E3F
ENCODING 7743
SWIDTH 752 0
DWIDTH 9 0
BBX 9 10 0 0
BITMAP
007000
009000
000000
7B6E00
75D300
60C240
60C240
60C240
60C240
60C240
ENDCHAR
STARTCHAR Wgrave
ENCODING 7808
SWIDTH 761 0
DWIDTH 9 0
BBX 9 12 0 0
BITMAP
028000
008000
000000
60D180
60D280
31A240
326300
262300
272600
1A1A00
1D1D00
0D0D00
ENDCHAR
STARTCHAR wgrave
ENCODING 7809
SWIDTH 649 0
DWIDTH 8 0
BBX 8 10 0 0
BITMAP
0A00
0240
0000
9249
6388
22CC
3698
2DA4
2C74
1830
ENDCHAR
STARTCHAR Wacute
ENCODING 7810
SWIDTH 761 0
DWIDTH 9 0
BBX 9 12 0 0
BITMAP
007400
009000
000000
60D180
60D280
31A240
326300
262300
272600
1A1A00
1D1D00
0D0D00
ENDCHAR
STARTCHAR wacute
ENCODING 7811
SWIDTH 649 0
DWIDTH 8 0
BBX 8 10 0 0
BITMAP
00D0
0180
0000
9249
6388
22CC
3698
2DA4
2C74
1830
ENDCHAR
STARTCHAR Wdieresis
ENCODING 7812
SWIDTH 761 0
DWIDTH 9 0
BBX 9 11 0 0
BITMAP
032400
000000
60D180
60D280
31A240
326300
262300
272600
1A1A00
1D1D00
0D0D00
ENDCHAR
STARTCHAR wdieresis
ENCODING 7813
SWIDTH 649 0
DWIDTH 8 0
BBX 8 9 0 0
BITMAP
0C60
0000
9249
6388
22CC
3698
2DA4
2C74
1830
ENDCHAR
STARTCHAR uni1EA0
ENCODING 7840
SWIDTH 576 0
DWIDTH 7 0
BBX 7 11 0 -2
BITMAP
0300
0740
0A80
0CC0
1890
24A0
3FF0
7034
A028
0000
0300
ENDCHAR
STARTCHAR uni1EA1
ENCODING 7841
SWIDTH 479 0
DWIDTH 6 0
BBX 5 9 0 -2
BITMAP
1F40
3180
00C0
1FC0
70C0
71C0
2EC0
0000
0C00
ENDCHAR
STARTCHAR uni1EA2
ENCODING 7842
SWIDTH 576 0
DWIDTH 7 0
BBX 7 13 0 0
BITMAP
0340
0180
0200
0000
0300
0740
0A80
0CC0
1890
24A0
3FF0
7034
A028
ENDCHAR
STARTCHAR uni1EA3
ENCODING 7843
SWIDTH 479 0
DWIDTH 6 0
BBX 5 11 0 0
BITMAP
0600
0300
0600
0000
1F40
3180
00C0
1FC0
70C0
71C0
2EC0
ENDCHAR
STARTCHAR uni1EA4
ENCODING 7844
SWIDTH 576 0
DWIDTH 7 0
BBX 7 13 0 0
BITMAP
0028
0760
0980
0000
0300
0740
0A80
0CC0
1890
24A0
3FF0
7034
A028
ENDCHAR
STARTCHAR uni1EA5
ENCODING 7845
SWIDTH 479 0
DWIDTH 6 0
BBX 6 11 0 0
BITMAP
0030
0A50
2A40
0000
1F40
3180
00C0
1FC0
70C0
71C0
2EC0
ENDCHAR
STARTCHAR uni1EA6
ENCODING 7846
SWIDTH 576 0
DWIDTH 7 0
BBX 7 13 0 0
BITMAP
A000
2740
0980
0000
0300
0740
0A80
0CC0
1890
24A0
3FF0
7034
A028
ENDCHAR
STARTCHAR uni1EA7
ENCODING 7847
SWIDTH 479 0
DWIDTH 6 0
BBX 5 11 0 0
BITMAP
C000
9A00
2640
0000
1F40
3180
00C0
1FC0
70C0
71C0
2EC0
ENDCHAR
STARTCHAR uni1EA8
ENCODING 7848
SWIDTH 576 0
DWIDTH 7 0
BBX 7 14 0 0
BITMAP
0020
0020
0BA0
0880
0000
0300
0740
0A80
0CC0
1890
24A0
3FF0
7034
A028
ENDCHAR
STARTCHAR uni1EA9
ENCODING 7849
SWIDTH 479 0
DWIDTH 6 0
BBX 6 12 0 0
BITMAP
0050
0060
0A80
2580
0000
1F40
3180
00C0
1FC0
70C0
71C0
2EC0
ENDCHAR
STARTCHAR uni1EAA
ENCODING 7850
SWIDTH 576 0
DWIDTH 7 0
BBX 7 15 0 0
BITMAP
0940
0640
0000
0740
0880
0000
0300
0740
0A80
0CC0
1890
24A0
3FF0
7034
A028
ENDCHAR
STARTCHAR uni1EAB
ENCODING 7851
SWIDTH 479 0
DWIDTH 6 0
BBX 5 13 0 0
BITMAP
0900
1700
0000
0A00
2580
0000
1F40
3180
00C0
1FC0
70C0
71C0
2EC0
ENDCHAR
STARTCHAR uni1EAC
ENCODING 7852
SWIDTH 576 0
DWIDTH 7 0
BBX 7 14 0 -2
BITMAP
0740
0980
0000
0300
0740
0A80
0CC0
1890
24A0
3FF0
7034
A028
0000
0300
ENDCHAR
STARTCHAR uni1EAD
ENCODING 7853
SWIDTH 479 0
DWIDTH 6 0
BBX 5 12 0 -2
BITMAP
0A00
1A40
0000
1F40
3180
00C0
1FC0
70C0
71C0
2EC0
0000
0C00
ENDCHAR
STARTCHAR uni1EAE
ENCODING 7854
SWIDTH 576 0
DWIDTH 7 0
BBX 7 14 0 0
BITMAP
0140
0200
0CC0
0B40
0000
0300
0740
0A80
0CC0
1890
24A0
3FF0
7034
A028
ENDCHAR
STARTCHAR uni1EAF
ENCODING 7855
SWIDTH 479 0
DWIDTH 6 0
BBX 5 12 0 0
BITMAP
0200
0500
1640
0E00
0000
1F40
3180
00C0
1FC0
70C0
71C0
2EC0
ENDCHAR
STARTCHAR uni1EB0
ENCODING 7856
SWIDTH 576 0
DWIDTH 7 0
BBX 7 14 0 0
BITMAP
0500
0200
0CC0
0B40
0000
0300
0740
0A80
0CC0
1890
24A0
3FF0
7034
A028
ENDCHAR
STARTCHAR uni1EB1
ENCODING 7857
SWIDTH 479 0
DWIDTH 6 0
BBX 5 12 0 0
BITMAP
0800
0400
1640
0E00
0000
1F40
3180
00C0
1FC0
70C0
71C0
2EC0
ENDCHAR
STARTCHAR uni1EB2
ENCODING 7858
SWIDTH 576 0
DWIDTH 7 0
BBX 7 15 0 0
BITMAP
0240
0240
0200
0C80
0B40
0000
0300
0740
0A80
0CC0
1890
24A0
3FF0
7034
A028
ENDCHAR
STARTCHAR uni1EB3
ENCODING 7859
SWIDTH 479 0
DWIDTH 6 0
BBX 5 13 0 0
BITMAP
0600
0300
0500
1640
0E00
0000
1F40
3180
00C0
1FC0
70C0
71C0
2EC0
ENDCHAR
STARTCHAR uni1EB4
ENCODING 7860
SWIDTH 576 0
DWIDTH 7 0
BBX 7 15 0 0
BITMAP
0940
0680
0000
0CC0
0B40
0000
0300
0740
0A80
0CC0
1890
24A0
3FF0
7034
A028
ENDCHAR
STARTCHAR uni1EB5
ENCODING 7861
SWIDTH 479 0
DWIDTH 6 0
BBX 5 13 0 0
BITMAP
0D40
1700
0000
1640
0E00
0000
1F40
3180
00C0
1FC0
70C0
71C0
2EC0
ENDCHAR
STARTCHAR uni1EB6
ENCODING 7862
SWIDTH 576 0
DWIDTH 7 0
BBX 7 14 0 -2
BITMAP
1880
0B80
0000
0300
0740
0A80
0CC0
1890
24A0
3FF0
7034
A028
0000
0300
ENDCHAR
STARTCHAR uni1EB7
ENCODING 7863
SWIDTH 479 0
DWIDTH 6 0
BBX 5 12 0 -2
BITMAP
2580
1F40
0000
1F40
3180
00C0
1FC0
70C0
71C0
2EC0
0000
0C00
ENDCHAR
STARTCHAR uni1EB8
ENCODING 7864
SWIDTH 496 0
DWIDTH 6 0
BBX 5 11 1 -2
BITMAP
FF40
C000
C000
C000
FF00
C000
C000
C000
FF80
0000
1800
ENDCHAR
STARTCHAR uni1EB9
ENCODING 7865
SWIDTH 468 0
DWIDTH 6 0
BBX 5 9 0 -2
BITMAP
1F40
31C0
60C0
7FC0
6000
3040
1F80
0000
0900
ENDCHAR
STARTCHAR uni1EBA
ENCODING 7866
SWIDTH 496 0
DWIDTH 6 0
BBX 5 13 1 0
BITMAP
1800
0900
1800
0000
FF40
C000
C000
C000
FF00
C000
C000
C000
FF80
ENDCHAR
STARTCHAR uni1EBB
ENCODING 7867
SWIDTH 468 0
DWIDTH 6 0
BBX 5 11 0 0
BITMAP
0600
0300
0500
0000
1F40
31C0
60C0
7FC0
6000
3040
1F80
ENDCHAR
STARTCHAR uni1EBC
ENCODING 7868
SWIDTH 496 0
DWIDTH 6 0
BBX 5 12 1 0
BITMAP
7600
9A00
0000
FF40
C000
C000
C000
FF00
C000
C000
C000
FF80
ENDCHAR
STARTCHAR uni1EBD
ENCODING 7869
SWIDTH 468 0
DWIDTH 6 0
BBX 5 10 0 0
BITMAP
1980
2740
0000
1F40
31C0
60C0
7FC0
6000
3040
1F80
ENDCHAR
STARTCHAR uni1EBE
ENCODING 7870
SWIDTH 496 0
DWIDTH 6 0
BBX 6 13 1 0
BITMAP
00D0
2D80
6600
0000
FF40
C000
C000
C000
FF00
C000
C000
C000
FF80
ENDCHAR
STARTCHAR uni1EBF
ENCODING 7871
SWIDTH 468 0
DWIDTH 6 0
BBX 6 11 0 0
BITMAP
0030
0E50
2640
0000
1F40
31C0
60C0
7FC0
6000
3040
1F80
ENDCHAR
STARTCHAR uni1EC0
ENCODING 7872
SWIDTH 496 0
DWIDTH 6 0
BBX 6 13 0 0
BITMAP
D000
5B00
1980
0000
3FD0
3000
3000
3000
3FC0
3000
3000
3000
3FE0
ENDCHAR
STARTCHAR uni1EC1
ENCODING 7873
SWIDTH 468 0
DWIDTH 6 0
BBX 5 11 0 0
BITMAP
C000
9E00
2640
0000
1F40
31C0
60C0
7FC0
6000
3040
1F80
ENDCHAR
STARTCHAR uni1EC2
ENCODING 7874
SWIDTH 496 0
DWIDTH 6 0
BBX 5 14 1 0
BITMAP
0140
0080
2E40
6600
0000
FF40
C000
C000
C000
FF00
C000
C000
C000
FF80
ENDCHAR
STARTCHAR uni1EC3
ENCODING 7875
SWIDTH 468 0
DWIDTH 6 0
BBX 6 12 0 0
BITMAP
0090
0050
0A80
2540
0000
1F40
31C0
60C0
7FC0
6000
3040
1F80
ENDCHAR
STARTCHAR uni1EC4
ENCODING 7876
SWIDTH 496 0
DWIDTH 6 0
BBX 5 15 1 0
BITMAP
2500
1800
0000
2800
6600
0000
FF40
C000
C000
C000
FF00
C000
C000
C000
FF80
ENDCHAR
STARTCHAR uni1EC5
ENCODING 7877
SWIDTH 468 0
DWIDTH 6 0
BBX 5 13 0 0
BITMAP
0900
1600
0000
0A00
2640
0000
1F40
31C0
60C0
7FC0
6000
3040
1F80
ENDCHAR
STARTCHAR uni1EC6
ENCODING 7878
SWIDTH 496 0
DWIDTH 6 0
BBX 5 14 1 -2
BITMAP
2800
2500
0000
FF40
C000
C000
C000
FF00
C000
C000
C000
FF80
0000
1800
ENDCHAR
STARTCHAR uni1EC7
ENCODING 7879
SWIDTH 468 0
DWIDTH 6 0
BBX 5 12 0 -2
BITMAP
0A00
1640
0000
1F40
31C0
60C0
7FC0
6000
3040
1F80
0000
0900
ENDCHAR
STARTCHAR uni1EC8
ENCODING 7880
SWIDTH 250 0
DWIDTH 3 0
BBX 2 13 1 0
BITMAP
D0
60
80
00
C0
C0
C0
C0
C0
C0
C0
C0
C0
ENDCHAR
STARTCHAR uni1EC9
ENCODING 7881
SWIDTH 234 0
DWIDTH 3 0
BBX 2 11 1 0
BITMAP
D0
50
80
00
C0
C0
C0
C0
C0
C0
C0
ENDCHAR
STARTCHAR uni1ECA
ENCODING 7882
SWIDTH 250 0
DWIDTH 3 0
BBX 1 11 1 -2
BITMAP
C0
C0
C0
C0
C0
C0
C0
C0
C0
00
C0
ENDCHAR
STARTCHAR uni1ECB
ENCODING 7883
SWIDTH 229 0
DWIDTH 3 0
BBX 2 11 0 -2
BITMAP
20
00
30
30
30
30
30
30
30
00
60
ENDCHAR
STARTCHAR uni1ECC
ENCODING 7884
SWIDTH 600 0
DWIDTH 7 0
BBX 7 11 0 -2
BITMAP
0B90
2870
3024
6024
6024
6024
3024
2870
0B90
0000
0300
ENDCHAR
STARTCHAR uni1ECD
ENCODING 7885
SWIDTH 501 0
DWIDTH 6 0
BBX 6 9 0 -2
BITMAP
1F40
35C0
6090
6090
6090
34C0
1F40
0000
0900
ENDCHAR
STARTCHAR uni1ECE
ENCODING 7886
SWIDTH 600 0
DWIDTH 7 0
BBX 7 13 0 0
BITMAP
0240
0180
0240
0000
0B90
2870
3024
6024
6024
6024
3024
2870
0B90
ENDCHAR
STARTCHAR uni1ECF
ENCODING 7887
SWIDTH 501 0
DWIDTH 6 0
BBX 6 11 0 0
BITMAP
0600
0300
0600
0000
1F40
35C0
6090
6090
6090
34C0
1F40
ENDCHAR
STARTCHAR uni1ED0
ENCODING 7888
SWIDTH 600 0
DWIDTH 7 0
BBX 7 13 0 0
BITMAP
0018
07A0
0990
0000
0B90
2870
3024
6024
6024
6024
3024
2870
0B90
ENDCHAR
STARTCHAR uni1ED1
ENCODING 7889
SWIDTH 501 0
DWIDTH 6 0
BBX 6 11 0 0
BITMAP
0030
0A50
2640
0000
1F40
35C0
6090
6090
6090
34C0
1F40
ENDCHAR
STARTCHAR uni1ED2
ENCODING 7890
SWIDTH 600 0
DWIDTH 7 0
BBX 7 13 0 0
BITMAP
6000
2780
0990
0000
0B90
2870
3024
6024
6024
6024
3024
2870
0B90
ENDCHAR
STARTCHAR uni1ED3
ENCODING 7891
SWIDTH 501 0
DWIDTH 6 0
BBX 6 11 0 0
BITMAP
C000
9A00
2640
0000
1F40
35C0
6090
6090
6090
34C0
1F40
ENDCHAR
STARTCHAR uni1ED4
ENCODING 7892
SWIDTH 600 0
DWIDTH 7 0
BBX 7 14 0 0
BITMAP
0020
0024
07A0
0890
0000
0B90
2870
3024
6024
6024
6024
3024
2870
0B90
ENDCHAR
STARTCHAR uni1ED5
ENCODING 7893
SWIDTH 501 0
DWIDTH 6 0
BBX 6 12 0 0
BITMAP
0050
0060
0A80
2580
0000
1F40
35C0
6090
6090
6090
34C0
1F40
ENDCHAR
STARTCHAR uni1ED6
ENCODING 7894
SWIDTH 600 0
DWIDTH 7 0
BBX 7 15 0 0
BITMAP
0640
0580
0000
0740
0890
0000
0B90
2870
3024
6024
6024
6024
3024
2870
0B90
ENDCHAR
STARTCHAR uni1ED7
ENCODING 7895
SWIDTH 501 0
DWIDTH 6 0
BBX 6 13 0 0
BITMAP
0900
1700
0000
0A00
2540
0000
1F40
35C0
6090
6090
6090
34C0
1F40
ENDCHAR
STARTCHAR uni1ED8
ENCODING 7896
SWIDTH 600 0
DWIDTH 7 0
BBX 7 14 0 -2
BITMAP
0740
0980
0000
0B90
2870
3024
6024
6024
6024
3024
2870
0B90
0000
0300
ENDCHAR
STARTCHAR uni1ED9
ENCODING 7897
SWIDTH 501 0
DWIDTH 6 0
BBX 6 12 0 -2
BITMAP
0A00
1A40
0000
1F40
35C0
6090
6090
6090
34C0
1F40
0000
0900
ENDCHAR
STARTCHAR uni1EDA
ENCODING 7898
SWIDTH 592 0
DWIDTH 7 0
BBX 7 12 0 0
BITMAP
01C0
0240
0004
0B8C
24B4
7030
6024
6024
6024
7034
2460
0B80
ENDCHAR
STARTCHAR uni1EDB
ENCODING 7899
SWIDTH 502 0
DWIDTH 6 0
BBX 6 10 0 0
BITMAP
0240
0600
0010
1F60
35E0
6090
6090
6090
35C0
1F40
ENDCHAR
STARTCHAR uni1EDC
ENCODING 7900
SWIDTH 592 0
DWIDTH 7 0
BBX 7 12 0 0
BITMAP
0D00
0600
0004
0B8C
24B4
7030
6024
6024
6024
7034
2460
0B80
ENDCHAR
STARTCHAR uni1EDD
ENCODING 7901
SWIDTH 502 0
DWIDTH 6 0
BBX 6 10 0 0
BITMAP
1800
0900
0010
1F60
35E0
6090
6090
6090
35C0
1F40
ENDCHAR
STARTCHAR uni1EDE
ENCODING 7902
SWIDTH 592 0
DWIDTH 7 0
BBX 7 13 0 0
BITMAP
0240
0180
0200
0004
0B8C
24B4
7030
6024
6024
6024
7034
2460
0B80
ENDCHAR
STARTCHAR uni1EDF
ENCODING 7903
SWIDTH 502 0
DWIDTH 6 0
BBX 6 11 0 0
BITMAP
0600
0300
0600
0010
1F60
35E0
6090
6090
6090
35C0
1F40
ENDCHAR
STARTCHAR uni1EE0
ENCODING 7904
SWIDTH 592 0
DWIDTH 7 0
BBX 7 12 0 0
BITMAP
0A50
09C0
0004
0B8C
24B4
7030
6024
6024
6024
7034
2460
0B80
ENDCHAR
STARTCHAR uni1EE1
ENCODING 7905
SWIDTH 502 0
DWIDTH 6 0
BBX 6 10 0 0
BITMAP
1880
2740
0010
1F60
35E0
6090
6090
6090
35C0
1F40
ENDCHAR
STARTCHAR uni1EE2
ENCODING 7906
SWIDTH 592 0
DWIDTH 7 0
BBX 7 12 0 -2
BITMAP
0004
0B8C
24B4
7030
6024
6024
6024
7034
2460
0B80
0000
0300
ENDCHAR
STARTCHAR uni1EE3
ENCODING 7907
SWIDTH 502 0
DWIDTH 6 0
BBX 6 10 0 -2
BITMAP
0010
1F60
35E0
6090
6090
6090
35C0
1F40
0000
0900
ENDCHAR
STARTCHAR uni1EE4
ENCODING 7908
SWIDTH 561 0
DWIDTH 7 0
BBX 6 11 0 -2
BITMAP
6030
6030
6030
6030
6030
6030
7030
3460
1F80
0000
0600
ENDCHAR
STARTCHAR uni1EE5
ENCODING 7909
SWIDTH 483 0
DWIDTH 6 0
BBX 5 9 0 -2
BITMAP
60C0
60C0
60C0
60C0
60C0
31C0
2EC0
0000
0C00
ENDCHAR
STARTCHAR uni1EE6
ENCODING 7910
SWIDTH 561 0
DWIDTH 7 0
BBX 6 13 0 0
BITMAP
0340
0140
0300
0000
6030
6030
6030
6030
6030
6030
7030
3460
1F80
ENDCHAR
STARTCHAR uni1EE7
ENCODING 7911
SWIDTH 483 0
DWIDTH 6 0
BBX 5 11 0 0
BITMAP
0600
0300
0500
0000
60C0
60C0
60C0
60C0
60C0
31C0
2EC0
ENDCHAR
STARTCHAR uni1EE8
ENCODING 7912
SWIDTH 608 0
DWIDTH 7 0
BBX 8 12 0 0
BITMAP
01C0
0240
0002
6036
603D
6030
6030
6030
6030
7030
34A0
1B80
ENDCHAR
STARTCHAR uni1EE9
ENCODING 7913
SWIDTH 549 0
DWIDTH 7 0
BBX 7 10 0 0
BITMAP
0240
0600
0000
60D4
60F0
60C0
60C0
60C0
31C0
2EC0
ENDCHAR
STARTCHAR uni1EEA
ENCODING 7914
SWIDTH 608 0
DWIDTH 7 0
BBX 8 12 0 0
BITMAP
0D00
0600
0002
6036
603D
6030
6030
6030
6030
7030
34A0
1B80
ENDCHAR
STARTCHAR uni1EEB
ENCODING 7915
SWIDTH 549 0
DWIDTH 7 0
BBX 7 10 0 0
BITMAP
1800
0900
0000
60D4
60F0
60C0
60C0
60C0
31C0
2EC0
ENDCHAR
STARTCHAR uni1EEC
ENCODING 7916
SWIDTH 608 0
DWIDTH 7 0
BBX 8 13 0 0
BITMAP
0240
0180
0200
0002
6036
603D
6030
6030
6030
6030
7030
34A0
1B80
ENDCHAR
STARTCHAR uni1EED
ENCODING 7917
SWIDTH 549 0
DWIDTH 7 0
BBX 7 11 0 0
BITMAP
0600
0300
0600
0000
60D4
60F0
60C0
60C0
60C0
31C0
2EC0
ENDCHAR
STARTCHAR uni1EEE
ENCODING 7918
SWIDTH 608 0
DWIDTH 7 0
BBX 8 12 0 0
BITMAP
0A50
09C0
0002
6036
603D
6030
6030
6030
6030
7030
34A0
1B80
ENDCHAR
STARTCHAR uni1EEF
ENCODING 7919
SWIDTH 549 0
DWIDTH 7 0
BBX 7 10 0 0
BITMAP
1880
2740
0000
60D4
60F0
60C0
60C0
60C0
31C0
2EC0
ENDCHAR
STARTCHAR uni1EF0
ENCODING 7920
SWIDTH 608 0
DWIDTH 7 0
BBX 8 12 0 -2
BITMAP
0002
6036
603D
6030
6030
6030
6030
7030
34A0
1B80
0000
0300
ENDCHAR
STARTCHAR uni1EF1
ENCODING 7921
SWIDTH 549 0
DWIDTH 7 0
BBX 7 9 0 -2
BITMAP
60D4
60F0
60C0
60C0
60C0
31C0
2EC0
0000
0900
ENDCHAR
STARTCHAR Ygrave
ENCODING 7922
SWIDTH 524 0
DWIDTH 6 0
BBX 6 12 0 0
BITMAP
1C00
0900
0000
A070
7090
24C0
1980
0F00
0600
0600
0600
0600
ENDCHAR
STARTCHAR ygrave
ENCODING 7923
SWIDTH 416 0
DWIDTH 5 0
BBX 5 12 0 -2
BITMAP
2400
0800
0000
9180
6240
3300
2600
1D00
1D00
0C00
1800
7000
ENDCHAR
STARTCHAR uni1EF4
ENCODING 7924
SWIDTH 524 0
DWIDTH 6 0
BBX 6 11 0 -2
BITMAP
A070
7090
24C0
1980
0F00
0600
0600
0600
0600
0000
0600
ENDCHAR
STARTCHAR uni1EF5
ENCODING 7925
SWIDTH 416 0
DWIDTH 5 0
BBX 5 10 0 -3
BITMAP
9180
6240
3300
2600
1D00
1D00
0C00
1800
7000
0300
ENDCHAR
STARTCHAR uni1EF6
ENCODING 7926
SWIDTH 524 0
DWIDTH 6 0
BBX 6 13 0 0
BITMAP
0600
0240
0600
0000
A070
7090
24C0
1980
0F00
0600
0600
0600
0600
ENDCHAR
STARTCHAR uni1EF7
ENCODING 7927
SWIDTH 416 0
DWIDTH 5 0
BBX 5 13 0 -2
BITMAP
0900
0600
0900
0000
9180
6240
3300
2600
1D00
1D00
0C00
1800
7000
ENDCHAR
STARTCHAR uni1EF8
ENCODING 7928
SWIDTH 524 0
DWIDTH 6 0
BBX 6 12 0 0
BITMAP
1D80
2680
0000
A070
7090
24C0
1980
0F00
0600
0600
0600
0600
ENDCHAR
STARTCHAR uni1EF9
ENCODING 7929
SWIDTH 416 0
DWIDTH 5 0
BBX 5 12 0 -2
BITMAP
2940
2700
0000
9180
6240
3300
2600
1D00
1D00
0C00
1800
7000
ENDCHAR
STARTCHAR uni1F4D
ENCODING 8013
SWIDTH 634 0
DWIDTH 8 0
BBX 10 9 -3 0
BITMAP
661F80
286090
009060
009070
00D070
00D070
009060
006090
001F80
ENDCHAR
STARTCHAR uni2000
ENCODING 8192
SWIDTH 447 0
DWIDTH 5 0
BBX 1 1 0 0
BITMAP
00
ENDCHAR
STARTCHAR uni2001
ENCODING 8193
SWIDTH 876 0
DWIDTH 11 0
BBX 1 1 0 0
BITMAP
00
ENDCHAR
STARTCHAR uni2002
ENCODING 8194
SWIDTH 447 0
DWIDTH 5 0
BBX 1 1 0 0
BITMAP
00
ENDCHAR
STARTCHAR uni2003
ENCODING 8195
SWIDTH 876 0
DWIDTH 11 0
BBX 1 1 0 0
BITMAP
00
ENDCHAR
STARTCHAR uni2004
ENCODING 8196
SWIDTH 305 0
DWIDTH 4 0
BBX 1 1 0 0
BITMAP
00
ENDCHAR
STARTCHAR uni2005
ENCODING 8197
SWIDTH 233 0
DWIDTH 3 0
BBX 1 1 0 0
BITMAP
00
ENDCHAR
STARTCHAR uni2006
ENCODING 8198
SWIDTH 162 0
DWIDTH 2 0
BBX 1 1 0 0
BITMAP
00
ENDCHAR
STARTCHAR uni2007
ENCODING 8199
SWIDTH 491 0
DWIDTH 6 0
BBX 1 1 0 0
BITMAP
00
ENDCHAR
STARTCHAR uni2008
ENCODING 8200
SWIDTH 249 0
DWIDTH 3 0
BBX 1 1 0 0
BITMAP
00
ENDCHAR
STARTCHAR uni2009
ENCODING 8201
SWIDTH 190 0
DWIDTH 2 0
BBX 1 1 0 0
BITMAP
00
ENDCHAR
STARTCHAR uni200A
ENCODING 8202
SWIDTH 105 0
DWIDTH 1 0
BBX 1 1 0 0
BITMAP
00
ENDCHAR
STARTCHAR uni200B
ENCODING 8203
SWIDTH 0 0
DWIDTH 0 0
BBX 1 1 0 0
BITMAP
00
ENDCHAR
STARTCHAR uni2010
ENCODING 8208
SWIDTH 248 0
DWIDTH 3 0
BBX 3 1 0 3
BITMAP
B8
ENDCHAR
STARTCHAR uni2011
ENCODING 8209
SWIDTH 248 0
DWIDTH 3 0
BBX 3 1 0 3
BITMAP
B8
ENDCHAR
STARTCHAR endash
ENCODING 8211
SWIDTH 572 0
DWIDTH 7 0
BBX 5 1 1 4
BITMAP
FFC0
ENDCHAR
STARTCHAR emdash
ENCODING 8212
SWIDTH 678 0
DWIDTH 8 0
BBX 7 1 1 4
BITMAP
FFF8
ENDCHAR
STARTCHAR uni2015
ENCODING 8213
SWIDTH 678 0
DWIDTH 8 0
BBX 7 1 1 4
BITMAP
FFF8
ENDCHAR
STARTCHAR underscoredbl
ENCODING 8215
SWIDTH 402 0
DWIDTH 5 0
BBX 5 3 0 -3
BITMAP
FF80
0000
FF80
ENDCHAR
STARTCHAR quoteleft
ENCODING 8216
SWIDTH 194 0
DWIDTH 2 0
BBX 2 3 0 6
BITMAP
20
60
60
ENDCHAR
STARTCHAR quoteright
ENCODING 8217
SWIDTH 194 0
DWIDTH 2 0
BBX 2 3 0 6
BITMAP
60
60
50
ENDCHAR
STARTCHAR quotesinglbase
ENCODING 8218
SWIDTH 194 0
DWIDTH 2 0
BBX 2 3 0 -2
BITMAP
60
60
90
ENDCHAR
STARTCHAR quotereversed
ENCODING 8219
SWIDTH 194 0
DWIDTH 2 0
BBX 2 3 0 6
BITMAP
A0
60
20
ENDCHAR
STARTCHAR quotedblleft
ENCODING 8220
SWIDTH 333 0
DWIDTH 4 0
BBX 4 3 0 6
BITMAP
22
69
69
ENDCHAR
STARTCHAR quotedblright
ENCODING 8221
SWIDTH 337 0
DWIDTH 4 0
BBX 4 3 0 6
BITMAP
3A
69
58
ENDCHAR
STARTCHAR quotedblbase
ENCODING 8222
SWIDTH 326 0
DWIDTH 4 0
BBX 4 4 0 -2
BITMAP
14
69
69
98
ENDCHAR
STARTCHAR dagger
ENCODING 8224
SWIDTH 482 0
DWIDTH 6 0
BBX 6 9 0 0
BITMAP
0900
0900
BFD0
0900
0900
0900
0900
0900
0900
ENDCHAR
STARTCHAR daggerdbl
ENCODING 8225
SWIDTH 500 0
DWIDTH 6 0
BBX 6 11 0 -2
BITMAP
0A00
0A00
7FD0
0A00
0A00
0A00
0A00
0A00
7FD0
0A00
0A00
ENDCHAR
STARTCHAR bullet
ENCODING 8226
SWIDTH 336 0
DWIDTH 4 0
BBX 2 3 1 3
BITMAP
F0
F0
50
ENDCHAR
STARTCHAR twodotenleader
ENCODING 8229
SWIDTH 420 0
DWIDTH 5 0
BBX 4 2 1 0
BITMAP
44
C9
ENDCHAR
STARTCHAR ellipsis
ENCODING 8230
SWIDTH 590 0
DWIDTH 7 0
BBX 6 2 1 0
BITMAP
4400
C990
ENDCHAR
STARTCHAR uni2027
ENCODING 8231
SWIDTH 181 0
DWIDTH 2 0
BBX 2 1 0 3
BITMAP
60
ENDCHAR
STARTCHAR perthousand
ENCODING 8240
SWIDTH 818 0
DWIDTH 10 0
BBX 10 9 0 0
BITMAP
780000
991000
998000
398000
020000
067B80
088990
048990
007B80
ENDCHAR
STARTCHAR minute
ENCODING 8242
SWIDTH 174 0
DWIDTH 2 0
BBX 2 3 0 6
BITMAP
50
50
50
ENDCHAR
STARTCHAR second
ENCODING 8243
SWIDTH 319 0
DWIDTH 4 0
BBX 4 3 0 6
BITMAP
69
68
58
ENDCHAR
STARTCHAR guilsinglleft
ENCODING 8249
SWIDTH 271 0
DWIDTH 3 0
BBX 3 5 0 1
BITMAP
18
20
60
20
18
ENDCHAR
STARTCHAR guilsinglright
ENCODING 8250
SWIDTH 271 0
DWIDTH 3 0
BBX 3 5 0 1
BITMAP
60
24
18
24
60
ENDCHAR
STARTCHAR exclamdbl
ENCODING 8252
SWIDTH 491 0
DWIDTH 6 0
BBX 4 9 1 0
BITMAP
C3
C3
C3
C3
C3
C3
41
00
C3
ENDCHAR
STARTCHAR fraction
ENCODING 8260
SWIDTH 403 0
DWIDTH 5 0
BBX 5 7 0 1
BITMAP
0140
0200
0500
0800
1400
2000
5000
ENDCHAR
STARTCHAR uni2074
ENCODING 8308
SWIDTH 329 0
DWIDTH 4 0
BBX 4 5 0 4
BITMAP
0C
2C
68
BE
08
ENDCHAR
STARTCHAR uni207F
ENCODING 8319
SWIDTH 374 0
DWIDTH 4 0
BBX 4 5 0 4
BITMAP
6D
67
63
63
63
ENDCHAR
STARTCHAR franc
ENCODING 8355
SWIDTH 480 0
DWIDTH 6 0
BBX 6 9 0 0
BITMAP
3FD0
3000
3000
3000
3FC0
3000
FD00
3000
3000
ENDCHAR
STARTCHAR lira
ENCODING 8356
SWIDTH 510 0
DWIDTH 6 0
BBX 6 9 0 0
BITMAP
0B80
1890
2450
2400
7F00
2400
7F00
2400
7FE0
ENDCHAR
STARTCHAR uni20A6
ENCODING 8358
SWIDTH 691 0
DWIDTH 8 0
BBX 8 9 0 0
BITMAP
280C
2D0C
2A0C
BFFF
258C
BFFF
246C
243C
241C
ENDCHAR
STARTCHAR peseta
ENCODING 8359
SWIDTH 709 0
DWIDTH 9 0
BBX 7 9 1 0
BITMAP
FD60
C760
C3F8
C360
C660
FD60
C060
C070
C028
ENDCHAR
STARTCHAR uni20A8
ENCODING 8360
SWIDTH 911 0
DWIDTH 11 0
BBX 10 9 1 0
BITMAP
FE0000
C28000
C19B80
C2A4D0
FE2800
C60B40
C340D0
C2A490
C1DF80
ENDCHAR
STARTCHAR uni20A9
ENCODING 8361
SWIDTH 634 0
DWIDTH 8 0
BBX 8 9 0 0
BITMAP
A24C
638C
6398
BFFD
3694
BFFD
2DB0
1CB0
1C60
ENDCHAR
STARTCHAR uni20AA
ENCODING 8362
SWIDTH 669 0
DWIDTH 8 0
BBX 8 7 0 0
BITMAP
7F89
60D9
6699
6699
6699
660C
67F8
ENDCHAR
STARTCHAR dong
ENCODING 8363
SWIDTH 510 0
DWIDTH 6 0
BBX 6 11 0 -2
BITMAP
00C0
03F0
2EC0
31C0
60C0
60C0
60C0
31C0
2EC0
0000
3FD0
ENDCHAR
STARTCHAR Euro
ENCODING 8364
SWIDTH 493 0
DWIDTH 6 0
BBX 6 9 0 0
BITMAP
07D0
1D00
1800
7F40
2800
7F40
1800
1D00
07D0
ENDCHAR
STARTCHAR uni20B1
ENCODING 8369
SWIDTH 648 0
DWIDTH 8 0
BBX 8 9 0 0
BITMAP
2FD0
2470
BFFE
2428
BFFE
2474
2FD0
2400
2400
ENDCHAR
STARTCHAR uni20B9
ENCODING 8377
SWIDTH 462 0
DWIDTH 6 0
BBX 5 9 0 0
BITMAP
BFC0
0700
BFC0
0700
BD00
7000
2800
0D00
0700
ENDCHAR
STARTCHAR uni20BA
ENCODING 8378
SWIDTH 500 0
DWIDTH 6 0
BBX 6 9 0 0
BITMAP
1800
1A00
7900
AA00
7990
A890
18D0
1980
1E00
ENDCHAR
STARTCHAR uni20BC
ENCODING 8380
SWIDTH 575 0
DWIDTH 7 0
BBX 7 7 0 0
BITMAP
0300
0B80
2760
3330
6324
6324
6324
ENDCHAR
STARTCHAR uni20BD
ENCODING 8381
SWIDTH 583 0
DWIDTH 7 0
BBX 7 9 0 0
BITMAP
2FE0
2434
2428
2434
BFE0
2400
BF00
2400
2400
ENDCHAR
STARTCHAR uni2105
ENCODING 8453
SWIDTH 640 0
DWIDTH 8 0
BBX 7 9 0 0
BITMAP
2C00
6520
6590
2D80
0240
0278
0888
0888
0078
ENDCHAR
STARTCHAR uni2113
ENCODING 8467
SWIDTH 422 0
DWIDTH 5 0
BBX 5 9 0 0
BITMAP
0B00
1A40
1A40
1B00
1E00
7800
1800
0C00
0A00
ENDCHAR
STARTCHAR uni2116
ENCODING 8470
SWIDTH 886 0
DWIDTH 11 0
BBX 9 9 1 0
BITMAP
D18B40
E198C0
E194C0
D598C0
C98B40
C98000
C69F80
C38000
C28000
ENDCHAR
STARTCHAR trademark
ENCODING 8482
SWIDTH 547 0
DWIDTH 7 0
BBX 6 3 0 6
BITMAP
7A50
1250
1150
ENDCHAR
STARTCHAR Omega
ENCODING 8486
SWIDTH 581 0
DWIDTH 7 0
BBX 7 9 0 0
BITMAP
0B80
24A0
7030
6034
6034
6030
3030
2490
7DF0
ENDCHAR
STARTCHAR estimated
ENCODING 8494
SWIDTH 636 0
DWIDTH 8 0
BBX 6 7 1 0
BITMAP
1F40
6090
D060
FFF0
D000
A040
2F80
ENDCHAR
STARTCHAR oneeighth
ENCODING 8539
SWIDTH 666 0
DWIDTH 8 0
BBX 8 9 0 0
BITMAP
2400
7450
1480
1540
1678
0559
087C
1499
007C
ENDCHAR
STARTCHAR threeeighths
ENCODING 8540
SWIDTH 736 0
DWIDTH 9 0
BBX 8 9 0 0
BITMAP
3D00
1914
1D20
5650
3D9E
0167
021E
0527
001E
ENDCHAR
STARTCHAR fiveeighths
ENCODING 8541
SWIDTH 736 0
DWIDTH 9 0
BBX 8 9 0 0
BITMAP
3D00
6014
7D20
1990
7D9E
0267
021E
0427
001E
ENDCHAR
STARTCHAR seveneighths
ENCODING 8542
SWIDTH 692 0
DWIDTH 8 0
BBX 8 9 0 0
BITMAP
7E00
0920
0850
1880
226D
0236
092D
0866
002D
ENDCHAR
STARTCHAR partialdiff
ENCODING 8706
SWIDTH 497 0
DWIDTH 6 0
BBX 6 9 0 0
BITMAP
2E00
1280
00C0
1E90
34D0
6090
6090
35C0
1F40
ENDCHAR
STARTCHAR Delta
ENCODING 8710
SWIDTH 614 0
DWIDTH 7 0
BBX 7 9 0 0
BITMAP
0340
0780
0AC0
0C90
1860
2430
3024
6028
BFFC
ENDCHAR
STARTCHAR product
ENCODING 8719
SWIDTH 614 0
DWIDTH 7 0
BBX 6 10 1 -1
BITMAP
FFD0
C090
C090
C090
C090
C090
C090
C090
C090
C090
ENDCHAR
STARTCHAR summation
ENCODING 8721
SWIDTH 513 0
DWIDTH 6 0
BBX 6 11 0 -2
BITMAP
BFE0
7000
2800
0900
0700
0240
0700
0900
2800
7000
BFF0
ENDCHAR
STARTCHAR minus
ENCODING 8722
SWIDTH 499 0
DWIDTH 6 0
BBX 4 1 1 4
BITMAP
FF
ENDCHAR
STARTCHAR radical
ENCODING 8730
SWIDTH 536 0
DWIDTH 6 0
BBX 6 9 0 0
BITMAP
0030
0060
0090
00C0
B580
1A40
1B00
0F00
0A00
ENDCHAR
STARTCHAR infinity
ENCODING 8734
SWIDTH 874 0
DWIDTH 10 0
BBX 10 7 0 0
BITMAP
1F4B80
35D890
60B060
606070
60B060
35D890
1F4B80
ENDCHAR
STARTCHAR integral
ENCODING 8747
SWIDTH 235 0
DWIDTH 3 0
BBX 4 11 0 -2
BITMAP
1D
34
30
30
30
30
30
30
30
70
D0
ENDCHAR
STARTCHAR approxequal
ENCODING 8776
SWIDTH 492 0
DWIDTH 6 0
BBX 5 4 0 1
BITMAP
7940
4680
7940
46C0
ENDCHAR
STARTCHAR notequal
ENCODING 8800
SWIDTH 479 0
DWIDTH 6 0
BBX 4 7 1 0
BITMAP
01
05
FF
14
FF
80
40
ENDCHAR
STARTCHAR lessequal
ENCODING 8804
SWIDTH 445 0
DWIDTH 5 0
BBX 5 7 0 0
BITMAP
0240
2900
7400
0A40
0040
0000
BF80
ENDCHAR
STARTCHAR greaterequal
ENCODING 8805
SWIDTH 460 0
DWIDTH 6 0
BBX 5 7 0 0
BITMAP
6400
1A40
02C0
2900
1000
0000
7FC0
ENDCHAR
STARTCHAR lozenge
ENCODING 9674
SWIDTH 442 0
DWIDTH 5 0
BBX 5 9 0 0
BITMAP
0D00
1A00
2700
6180
90C0
6180
2700
1A00
0D00
ENDCHAR
STARTCHAR uniEE01
ENCODING 60929
SWIDTH 271 0
DWIDTH 3 0
BBX 2 7 1 1
BITMAP
40
90
00
00
00
40
90
ENDCHAR
STARTCHAR uniEE02
ENCODING 60930
SWIDTH 298 0
DWIDTH 4 0
BBX 3 3 0 4
BITMAP
58
58
58
ENDCHAR
STARTCHAR uniF6C3
ENCODING 63171
SWIDTH 235 0
DWIDTH 3 0
BBX 2 2 0 -1
BITMAP
20
50
ENDCHAR
STARTCHAR uniFB01
ENCODING 64257
SWIDTH 489 0
DWIDTH 6 0
BBX 5 9 0 0
BITMAP
1F40
3400
BDC0
30C0
30C0
30C0
30C0
30C0
30C0
ENDCHAR
STARTCHAR uniFB02
ENCODING 64258
SWIDTH 503 0
DWIDTH 6 0
BBX 5 9 0 0
BITMAP
1F80
24C0
BDC0
24C0
24C0
24C0
24C0
24C0
24C0
ENDCHAR
STARTCHAR uniFB03
ENCODING 64259
SWIDTH 744 0
DWIDTH 9 0
BBX 8 9 0 0
BITMAP
1E7D
24D0
BFF7
24C3
24C3
24C3
24C3
24C3
24C3
ENDCHAR
STARTCHAR uniFB04
ENCODING 64260
SWIDTH 744 0
DWIDTH 9 0
BBX 8 9 0 0
BITMAP
1E7E
24D3
BFF7
24C3
24C3
24C3
24C3
24C3
24C3
ENDCHAR
STARTCHAR uniFEFF
ENCODING 65279
SWIDTH 0 0
DWIDTH 0 0
BBX 1 1 0 0
BITMAP
00
ENDCHAR
STARTCHAR uniFFFC
ENCODING 65532
SWIDTH 1024 0
DWIDTH 12 0
BBX 12 11 0 -2
BITMAP
77ADDF
500002
000000
500002
0BAD04
58AD56
0BAD74
500002
500002
000000
77ADDF
ENDCHAR
STARTCHAR uniFFFD
ENCODING 65533
SWIDTH 1025 0
DWIDTH 12 0
BBX 11 12 1 -2
BITMAP
006000
01F800
07FD00
1E0B40
3EA3D0
FFD7F4
FF9FF4
3FFFD0
1F5F40
07FD00
01F800
006000
ENDCHAR
STARTCHAR .notdef
ENCODING -1
SWIDTH 392 0
DWIDTH 5 0
BBX 4 9 0 0
BITMAP
7F
41
51
45
45
45
51
41
7F
ENDCHAR
STARTCHAR glyph369
ENCODING -1
SWIDTH 364 0
DWIDTH 4 0
BBX 4 2 0 7
BITMAP
66
28
ENDCHAR
STARTCHAR uni2009.locl
ENCODING -1
SWIDTH 124 0
DWIDTH 2 0
BBX 1 1 0 0
BITMAP
00
ENDCHAR
STARTCHAR f_f.dlig
ENCODING -1
SWIDTH 546 0
DWIDTH 7 0
BBX 7 9 0 0
BITMAP
1EB4
24D0
BFF0
24C0
24C0
24C0
24C0
24C0
24C0
ENDCHAR
STARTCHAR longs_t.dlig
ENCODING -1
SWIDTH 544 0
DWIDTH 7 0
BBX 6 9 0 0
BITMAP
1F80
24C0
B7F0
24C0
24C0
24C0
24C0
24C0
10B0
ENDCHAR
STARTCHAR s_t.dlig
ENCODING -1
SWIDTH 710 0
DWIDTH 9 0
BBX 8 9 0 0
BITMAP
01F8
024C
2F7F
718C
390C
074C
118C
718D
2F4B
ENDCHAR
STARTCHAR two.dnom
ENCODING -1
SWIDTH 329 0
DWIDTH 4 0
BBX 4 5 0 0
BITMAP
7C
59
08
20
7E
ENDCHAR
STARTCHAR one.dnom
ENCODING -1
SWIDTH 329 0
DWIDTH 4 0
BBX 3 5 0 0
BITMAP
18
78
18
18
18
ENDCHAR
STARTCHAR zero.dnom
ENCODING -1
SWIDTH 329 0
DWIDTH 4 0
BBX 4 5 0 0
BITMAP
38
59
55
59
3C
ENDCHAR
STARTCHAR nine.c2sc
ENCODING -1
SWIDTH 447 0
DWIDTH 5 0
BBX 5 7 0 0
BITMAP
2E00
6240
6180
6280
2E80
0240
2D00
ENDCHAR
STARTCHAR eight.c2sc
ENCODING -1
SWIDTH 447 0
DWIDTH 5 0
BBX 5 7 0 0
BITMAP
2F40
7280
2F00
7280
6180
7280
2E00
ENDCHAR
STARTCHAR seven.c2sc
ENCODING -1
SWIDTH 447 0
DWIDTH 5 0
BBX 5 7 0 0
BITMAP
BFC0
0180
0300
0600
0900
0C00
2800
ENDCHAR
STARTCHAR six.c2sc
ENCODING -1
SWIDTH 447 0
DWIDTH 5 0
BBX 5 7 0 0
BITMAP
0B00
3400
7F40
7180
6180
3180
1E00
ENDCHAR
STARTCHAR five.c2sc
ENCODING -1
SWIDTH 447 0
DWIDTH 5 0
BBX 4 7 1 0
BITMAP
BE
C0
FD
06
43
C6
7D
ENDCHAR
STARTCHAR four.c2sc
ENCODING -1
SWIDTH 447 0
DWIDTH 5 0
BBX 5 7 0 0
BITMAP
0340
0B40
1A40
2640
6240
BFC0
0240
ENDCHAR
STARTCHAR three.c2sc
ENCODING -1
SWIDTH 447 0
DWIDTH 5 0
BBX 5 7 0 0
BITMAP
2E00
6280
0240
1F00
0280
6280
2E00
ENDCHAR
STARTCHAR two.c2sc
ENCODING -1
SWIDTH 447 0
DWIDTH 5 0
BBX 5 7 0 0
BITMAP
2E00
6280
0180
0300
0D00
2400
7FC0
ENDCHAR
STARTCHAR one.c2sc
ENCODING -1
SWIDTH 447 0
DWIDTH 5 0
BBX 3 7 1 0
BITMAP
64
A4
24
24
24
24
24
ENDCHAR
STARTCHAR zero.c2sc
ENCODING -1
SWIDTH 447 0
DWIDTH 5 0
BBX 5 7 0 0
BITMAP
2E00
7280
6180
6180
6180
3280
2E00
ENDCHAR
STARTCHAR Z.c2sc
ENCODING -1
SWIDTH 454 0
DWIDTH 5 0
BBX 5 7 0 0
BITMAP
BFC0
0240
0600
0D00
2800
3000
BFC0
ENDCHAR
STARTCHAR Y.c2sc
ENCODING -1
SWIDTH 458 0
DWIDTH 6 0
BBX 5 7 0 0
BITMAP
A0C0
3180
2740
1E00
0D00
0900
0900
ENDCHAR
STARTCHAR X.c2sc
ENCODING -1
SWIDTH 478 0
DWIDTH 6 0
BBX 6 7 0 0
BITMAP
60C0
2680
1F00
0E00
1B00
3680
60D0
ENDCHAR
STARTCHAR W.c2sc
ENCODING -1
SWIDTH 655 0
DWIDTH 8 0
BBX 8 7 0 0
BITMAP
9289
6289
228C
369C
2968
2C34
1C34
ENDCHAR
STARTCHAR V.c2sc
ENCODING -1
SWIDTH 487 0
DWIDTH 6 0
BBX 6 7 0 0
BITMAP
9090
60C0
31C0
2580
1A40
0F00
0A00
ENDCHAR
STARTCHAR U.c2sc
ENCODING -1
SWIDTH 488 0
DWIDTH 6 0
BBX 6 7 0 0
BITMAP
6090
6090
6090
6090
6090
71C0
1F40
ENDCHAR
STARTCHAR T.c2sc
ENCODING -1
SWIDTH 456 0
DWIDTH 5 0
BBX 5 7 0 0
BITMAP
BFC0
0900
0900
0900
0900
0900
0900
ENDCHAR
STARTCHAR S.c2sc
ENCODING -1
SWIDTH 453 0
DWIDTH 5 0
BBX 5 7 0 0
BITMAP
2F40
61C0
7440
1F40
01C0
61C0
2F40
ENDCHAR
STARTCHAR R.c2sc
ENCODING -1
SWIDTH 465 0
DWIDTH 6 0
BBX 6 7 0 0
BITMAP
7F40
61C0
61C0
7F40
6240
6180
60D0
ENDCHAR
STARTCHAR Q.c2sc
ENCODING -1
SWIDTH 519 0
DWIDTH 6 0
BBX 6 8 0 -1
BITMAP
1F40
34D0
60A0
6060
60A0
34D0
1F80
0090
ENDCHAR
STARTCHAR P.c2sc
ENCODING -1
SWIDTH 481 0
DWIDTH 6 0
BBX 6 7 0 0
BITMAP
7F80
60D0
60D0
7F80
6000
6000
6000
ENDCHAR
STARTCHAR O.c2sc
ENCODING -1
SWIDTH 519 0
DWIDTH 6 0
BBX 6 7 0 0
BITMAP
1F40
34D0
6060
6060
6060
34D0
1F40
ENDCHAR
STARTCHAR N.c2sc
ENCODING -1
SWIDTH 533 0
DWIDTH 6 0
BBX 6 7 0 0
BITMAP
7060
7860
6860
6660
62A0
61E0
60A0
ENDCHAR
STARTCHAR M.c2sc
ENCODING -1
SWIDTH 652 0
DWIDTH 8 0
BBX 7 7 0 0
BITMAP
741C
782C
6C2C
695C
668C
638C
624C
ENDCHAR
STARTCHAR L.c2sc
ENCODING -1
SWIDTH 411 0
DWIDTH 5 0
BBX 5 7 0 0
BITMAP
6000
6000
6000
6000
6000
6000
7F80
ENDCHAR
STARTCHAR K.c2sc
ENCODING -1
SWIDTH 473 0
DWIDTH 6 0
BBX 6 7 0 0
BITMAP
61C0
6340
6A00
7D00
7700
6280
60D0
ENDCHAR
STARTCHAR J.c2sc
ENCODING -1
SWIDTH 419 0
DWIDTH 5 0
BBX 5 7 0 0
BITMAP
0240
0240
0240
0240
0240
A340
2E00
ENDCHAR
STARTCHAR I.c2sc
ENCODING -1
SWIDTH 221 0
DWIDTH 3 0
BBX 2 7 0 0
BITMAP
70
70
70
70
70
70
70
ENDCHAR
STARTCHAR H.c2sc
ENCODING -1
SWIDTH 533 0
DWIDTH 6 0
BBX 6 7 0 0
BITMAP
6060
6060
6060
7FE0
6060
6060
6060
ENDCHAR
STARTCHAR G.c2sc
ENCODING -1
SWIDTH 509 0
DWIDTH 6 0
BBX 6 7 0 0
BITMAP
1F80
34D0
6000
63D0
6090
3490
1F80
ENDCHAR
STARTCHAR F.c2sc
ENCODING -1
SWIDTH 415 0
DWIDTH 5 0
BBX 5 7 0 0
BITMAP
7F80
6000
6000
7F40
6000
6000
6000
ENDCHAR
STARTCHAR dollar.c2sc
ENCODING -1
SWIDTH 453 0
DWIDTH 5 0
BBX 5 10 0 -2
BITMAP
0900
2F40
61C0
7400
1F40
01C0
61C0
2F40
0900
0400
ENDCHAR
STARTCHAR sterling.c2sc
ENCODING -1
SWIDTH 467 0
DWIDTH 6 0
BBX 5 7 0 0
BITMAP
1F40
25C0
3000
BF00
3000
3000
7FC0
ENDCHAR
STARTCHAR yen.c2sc
ENCODING -1
SWIDTH 400 0
DWIDTH 5 0
BBX 5 7 0 0
BITMAP
9240
2300
2500
7F40
0C00
7F40
0C00
ENDCHAR
STARTCHAR Gamma.c2sc
ENCODING -1
SWIDTH 405 0
DWIDTH 5 0
BBX 5 7 0 0
BITMAP
7F80
6000
6000
6000
6000
6000
6000
ENDCHAR
STARTCHAR Delta.c2sc
ENCODING -1
SWIDTH 487 0
DWIDTH 6 0
BBX 6 7 0 0
BITMAP
0A00
0F00
1A40
2580
30C0
60C0
BFD0
ENDCHAR
STARTCHAR Theta.c2sc
ENCODING -1
SWIDTH 519 0
DWIDTH 6 0
BBX 6 7 0 0
BITMAP
1F40
34D0
6060
6FA0
6060
34D0
1F40
ENDCHAR
STARTCHAR Lambda.c2sc
ENCODING -1
SWIDTH 487 0
DWIDTH 6 0
BBX 6 7 0 0
BITMAP
0A00
0F00
1A40
2580
31C0
60C0
9090
ENDCHAR
STARTCHAR Xi.c2sc
ENCODING -1
SWIDTH 389 0
DWIDTH 5 0
BBX 5 7 0 0
BITMAP
BF40
0000
0000
7F00
0000
0000
BF40
ENDCHAR
STARTCHAR Pi.c2sc
ENCODING -1
SWIDTH 525 0
DWIDTH 6 0
BBX 6 7 0 0
BITMAP
7FE0
60A0
60A0
60A0
60A0
60A0
60A0
ENDCHAR
STARTCHAR Sigma.c2sc
ENCODING -1
SWIDTH 435 0
DWIDTH 5 0
BBX 5 7 0 0
BITMAP
BF80
7000
2800
0C00
2800
7000
BFC0
ENDCHAR
STARTCHAR Phi.c2sc
ENCODING -1
SWIDTH 587 0
DWIDTH 7 0
BBX 7 7 0 0
BITMAP
0300
1FD0
7374
6324
7374
1FD0
0300
ENDCHAR
STARTCHAR Psi.c2sc
ENCODING -1
SWIDTH 560 0
DWIDTH 7 0
BBX 6 7 0 0
BITMAP
6330
6330
6330
3760
1F80
0300
0300
ENDCHAR
STARTCHAR Omega.c2sc
ENCODING -1
SWIDTH 540 0
DWIDTH 6 0
BBX 6 7 0 0
BITMAP
1F80
3490
6060
6060
2060
2490
7DE0
ENDCHAR
STARTCHAR uni0402.c2sc
ENCODING -1
SWIDTH 596 0
DWIDTH 7 0
BBX 7 7 0 0
BITMAP
BF80
0C00
0FE0
0D28
0C18
0C28
0CA0
ENDCHAR
STARTCHAR uni0404.c2sc
ENCODING -1
SWIDTH 490 0
DWIDTH 6 0
BBX 6 7 0 0
BITMAP
1F40
34D0
6040
7E00
6040
34D0
1F40
ENDCHAR
STARTCHAR uni0409.c2sc
ENCODING -1
SWIDTH 782 0
DWIDTH 9 0
BBX 9 7 0 0
BITMAP
1FD000
289000
249000
24BF40
2491C0
3491C0
A0BF40
ENDCHAR
STARTCHAR uni040A.c2sc
ENCODING -1
SWIDTH 788 0
DWIDTH 9 0
BBX 9 7 0 0
BITMAP
606000
606000
606000
7FFF40
6061C0
6061C0
607F40
ENDCHAR
STARTCHAR uni040B.c2sc
ENCODING -1
SWIDTH 596 0
DWIDTH 7 0
BBX 7 7 0 0
BITMAP
BF80
0C00
0FE0
0D24
0C18
0C18
0C18
ENDCHAR
STARTCHAR uni040F.c2sc
ENCODING -1
SWIDTH 524 0
DWIDTH 6 0
BBX 6 9 0 -2
BITMAP
60A0
60A0
60A0
60A0
60A0
60A0
7FE0
0600
0600
ENDCHAR
STARTCHAR uni0411.c2sc
ENCODING -1
SWIDTH 479 0
DWIDTH 6 0
BBX 5 7 0 0
BITMAP
7F80
6000
6000
7F80
60C0
60C0
7F80
ENDCHAR
STARTCHAR uni0414.c2sc
ENCODING -1
SWIDTH 563 0
DWIDTH 7 0
BBX 7 9 0 -2
BITMAP
1FE0
1860
1860
1860
2460
3060
BFF4
9024
9024
ENDCHAR
STARTCHAR uni0416.c2sc
ENCODING -1
SWIDTH 651 0
DWIDTH 8 0
BBX 8 7 0 0
BITMAP
724C
3668
1A70
0FF0
1A74
3658
624D
ENDCHAR
STARTCHAR uni0417.c2sc
ENCODING -1
SWIDTH 466 0
DWIDTH 6 0
BBX 5 7 0 0
BITMAP
2F40
6180
0180
0F00
0180
61C0
2F40
ENDCHAR
STARTCHAR uni0418.c2sc
ENCODING -1
SWIDTH 537 0
DWIDTH 6 0
BBX 6 7 0 0
BITMAP
60A0
61E0
62A0
6660
6D60
7860
7060
ENDCHAR
STARTCHAR uni041A.c2sc
ENCODING -1
SWIDTH 473 0
DWIDTH 6 0
BBX 5 7 0 0
BITMAP
61C0
6340
6600
7D00
6600
6240
61C0
ENDCHAR
STARTCHAR uni041B.c2sc
ENCODING -1
SWIDTH 521 0
DWIDTH 6 0
BBX 6 7 0 0
BITMAP
1FD0
2890
2490
2490
2490
3490
A090
ENDCHAR
STARTCHAR uni0423.c2sc
ENCODING -1
SWIDTH 454 0
DWIDTH 5 0
BBX 5 7 0 0
BITMAP
A0C0
7180
2640
1B00
0E00
0D00
3800
ENDCHAR
STARTCHAR uni0426.c2sc
ENCODING -1
SWIDTH 564 0
DWIDTH 7 0
BBX 7 9 0 -2
BITMAP
60A0
60A0
60A0
60A0
60A0
60A0
7FF4
0024
0024
ENDCHAR
STARTCHAR uni0427.c2sc
ENCODING -1
SWIDTH 487 0
DWIDTH 6 0
BBX 5 7 0 0
BITMAP
90C0
90C0
90C0
60C0
2FC0
00C0
00C0
ENDCHAR
STARTCHAR uni0428.c2sc
ENCODING -1
SWIDTH 691 0
DWIDTH 8 0
BBX 8 7 0 0
BITMAP
618A
618A
618A
618A
618A
618A
7FFE
ENDCHAR
STARTCHAR uni0429.c2sc
ENCODING -1
SWIDTH 731 0
DWIDTH 9 0
BBX 9 9 0 -2
BITMAP
618A00
618A00
618A00
618A00
618A00
618A00
7FFF40
000240
000240
ENDCHAR
STARTCHAR uni042A.c2sc
ENCODING -1
SWIDTH 559 0
DWIDTH 7 0
BBX 6 7 0 0
BITMAP
B800
1800
1800
1FE0
1830
1830
1FE0
ENDCHAR
STARTCHAR uni042B.c2sc
ENCODING -1
SWIDTH 658 0
DWIDTH 8 0
BBX 7 7 0 0
BITMAP
600C
600C
600C
7F8C
60CC
60CC
7F8C
ENDCHAR
STARTCHAR uni042C.c2sc
ENCODING -1
SWIDTH 475 0
DWIDTH 6 0
BBX 5 7 0 0
BITMAP
6000
6000
6000
7F80
60C0
60C0
7F80
ENDCHAR
STARTCHAR uni042D.c2sc
ENCODING -1
SWIDTH 491 0
DWIDTH 6 0
BBX 6 7 0 0
BITMAP
2F40
61C0
1090
0BD0
0090
61C0
2F40
ENDCHAR
STARTCHAR uni042E.c2sc
ENCODING -1
SWIDTH 705 0
DWIDTH 8 0
BBX 8 7 0 0
BITMAP
60B8
6249
6306
7F03
6306
6249
61B8
ENDCHAR
STARTCHAR uni042F.c2sc
ENCODING -1
SWIDTH 499 0
DWIDTH 6 0
BBX 6 7 0 0
BITMAP
2FD0
3090
3090
1FD0
1890
3490
6090
ENDCHAR
STARTCHAR uni0492.c2sc
ENCODING -1
SWIDTH 444 0
DWIDTH 5 0
BBX 5 7 0 0
BITMAP
2FC0
2400
2400
BD00
2400
2400
2400
ENDCHAR
STARTCHAR uni0496.c2sc
ENCODING -1
SWIDTH 676 0
DWIDTH 8 0
BBX 8 9 0 -2
BITMAP
724C
3668
1A70
0FF0
1A74
365C
624F
0003
0003
ENDCHAR
STARTCHAR uni049A.c2sc
ENCODING -1
SWIDTH 492 0
DWIDTH 6 0
BBX 6 9 0 -2
BITMAP
61C0
6340
6600
7D00
6600
6240
61E0
0060
0060
ENDCHAR
STARTCHAR uni049C.c2sc
ENCODING -1
SWIDTH 562 0
DWIDTH 7 0
BBX 6 7 0 0
BITMAP
6070
6490
6980
7F40
6980
6090
6070
ENDCHAR
STARTCHAR uni04A0.c2sc
ENCODING -1
SWIDTH 571 0
DWIDTH 7 0
BBX 7 7 0 0
BITMAP
BC30
0C90
0D80
0F40
0DC0
0CA0
0C34
ENDCHAR
STARTCHAR uni04A8.c2sc
ENCODING -1
SWIDTH 625 0
DWIDTH 8 0
BBX 7 7 0 0
BITMAP
19E0
3368
6318
6318
6318
35B4
1BF8
ENDCHAR
STARTCHAR uni04B0.c2sc
ENCODING -1
SWIDTH 480 0
DWIDTH 6 0
BBX 5 7 0 0
BITMAP
A0C0
3180
2740
1E00
3F40
0900
0900
ENDCHAR
STARTCHAR uni04B2.c2sc
ENCODING -1
SWIDTH 514 0
DWIDTH 6 0
BBX 6 9 0 -2
BITMAP
60C0
2680
1F00
0E00
1B00
3680
60E0
0020
0020
ENDCHAR
STARTCHAR uni04B4.c2sc
ENCODING -1
SWIDTH 695 0
DWIDTH 8 0
BBX 8 9 0 -2
BITMAP
BF98
0C18
0C18
0C18
0C18
0C18
0FFE
0006
0006
ENDCHAR
STARTCHAR uni04B8.c2sc
ENCODING -1
SWIDTH 487 0
DWIDTH 6 0
BBX 5 7 0 0
BITMAP
90C0
90C0
94C0
69C0
2FC0
08C0
00C0
ENDCHAR
STARTCHAR uni04BA.c2sc
ENCODING -1
SWIDTH 487 0
DWIDTH 6 0
BBX 6 7 0 0
BITMAP
6000
6000
7F80
70D0
6090
6090
6090
ENDCHAR
STARTCHAR uni04BC.c2sc
ENCODING -1
SWIDTH 632 0
DWIDTH 8 0
BBX 7 7 0 0
BITMAP
02E0
4928
9C0C
7FFC
0C00
0910
02F0
ENDCHAR
STARTCHAR uni04D8.c2sc
ENCODING -1
SWIDTH 527 0
DWIDTH 6 0
BBX 6 7 0 0
BITMAP
1F80
1090
0060
7FE0
6060
3490
1F80
ENDCHAR
STARTCHAR uni04E0.c2sc
ENCODING -1
SWIDTH 466 0
DWIDTH 6 0
BBX 5 7 0 0
BITMAP
7F80
0340
0A00
0E40
01C0
61C0
2F40
ENDCHAR
STARTCHAR uni04E8.c2sc
ENCODING -1
SWIDTH 519 0
DWIDTH 6 0
BBX 6 7 0 0
BITMAP
1F40
34D0
6060
7FE0
6060
34D0
1F40
ENDCHAR
STARTCHAR lira.c2sc
ENCODING -1
SWIDTH 467 0
DWIDTH 6 0
BBX 5 7 0 0
BITMAP
1F80
3400
BF00
3000
BF00
3000
7FC0
ENDCHAR
STARTCHAR Euro.c2sc
ENCODING -1
SWIDTH 433 0
DWIDTH 5 0
BBX 5 7 0 0
BITMAP
0B80
2800
BF40
2400
BF40
2800
0B80
ENDCHAR
STARTCHAR uni2116.c2sc
ENCODING -1
SWIDTH 884 0
DWIDTH 11 0
BBX 10 7 0 0
BITMAP
7062D0
786670
686670
6662D0
62A000
61E7E0
60A000
ENDCHAR
STARTCHAR uni20BD.c2sc
ENCODING -1
SWIDTH 512 0
DWIDTH 6 0
BBX 6 7 0 0
BITMAP
2F80
24A0
24A0
BF80
2400
BE00
2400
ENDCHAR
STARTCHAR three.dnom
ENCODING -1
SWIDTH 329 0
DWIDTH 4 0
BBX 4 5 0 0
BITMAP
7C
09
2C
59
7C
ENDCHAR
STARTCHAR four.dnom
ENCODING -1
SWIDTH 329 0
DWIDTH 4 0
BBX 4 5 0 0
BITMAP
0C
2C
68
BE
08
ENDCHAR
STARTCHAR five.dnom
ENCODING -1
SWIDTH 329 0
DWIDTH 4 0
BBX 4 5 0 0
BITMAP
3D
60
7D
19
7C
ENDCHAR
STARTCHAR six.dnom
ENCODING -1
SWIDTH 329 0
DWIDTH 4 0
BBX 4 5 0 0
BITMAP
28
60
7D
69
3D
ENDCHAR
STARTCHAR seven.dnom
ENCODING -1
SWIDTH 329 0
DWIDTH 4 0
BBX 4 5 0 0
BITMAP
BD
08
08
14
30
ENDCHAR
STARTCHAR eight.dnom
ENCODING -1
SWIDTH 329 0
DWIDTH 4 0
BBX 4 5 0 0
BITMAP
3C
69
3C
69
7C
ENDCHAR
STARTCHAR nine.dnom
ENCODING -1
SWIDTH 329 0
DWIDTH 4 0
BBX 4 5 0 0
BITMAP
78
69
7D
09
28
ENDCHAR
STARTCHAR glyph550
ENCODING -1
SWIDTH 404 0
DWIDTH 5 0
BBX 3 1 1 4
BITMAP
FC
ENDCHAR
STARTCHAR glyph551
ENCODING -1
SWIDTH 306 0
DWIDTH 4 0
BBX 2 4 1 6
BITMAP
30
50
D0
D0
ENDCHAR
STARTCHAR E.c2sc
ENCODING -1
SWIDTH 428 0
DWIDTH 5 0
BBX 5 7 0 0
BITMAP
7F80
6000
6000
7F40
6000
6000
7F80
ENDCHAR
STARTCHAR g.ss01
ENCODING -1
SWIDTH 463 0
DWIDTH 6 0
BBX 6 9 0 -2
BITMAP
2FD0
6180
6180
2E40
2000
3F80
90D0
91C0
6F40
ENDCHAR
STARTCHAR alpha.ss02
ENCODING -1
SWIDTH 523 0
DWIDTH 6 0
BBX 6 7 0 0
BITMAP
1E60
35D0
60D0
6080
60D0
35D0
1E60
ENDCHAR
STARTCHAR R.ss03
ENCODING -1
SWIDTH 577 0
DWIDTH 7 0
BBX 6 9 1 0
BITMAP
FF40
C1C0
C0C0
C180
FF40
C180
C0C0
C0C0
C0D0
ENDCHAR
STARTCHAR K.ss04
ENCODING -1
SWIDTH 560 0
DWIDTH 7 0
BBX 6 9 1 0
BITMAP
C1C0
C340
CA00
DC00
EC00
CA00
C340
C280
C0D0
ENDCHAR
STARTCHAR k.ss04
ENCODING -1
SWIDTH 453 0
DWIDTH 5 0
BBX 5 9 0 0
BITMAP
7000
7000
7180
7240
7600
7D00
7700
7240
70C0
ENDCHAR
STARTCHAR K.ss05
ENCODING -1
SWIDTH 572 0
DWIDTH 7 0
BBX 6 9 1 0
BITMAP
C1C0
C340
CA00
E800
F400
DC00
CA00
C340
C1D0
ENDCHAR
STARTCHAR k.ss05
ENCODING -1
SWIDTH 454 0
DWIDTH 5 0
BBX 5 9 0 0
BITMAP
7000
7000
7280
7700
7900
7C00
7E00
7740
71C0
ENDCHAR
STARTCHAR D.c2sc
ENCODING -1
SWIDTH 492 0
DWIDTH 6 0
BBX 6 7 0 0
BITMAP
7E40
61C0
6090
6090
6090
61C0
7E40
ENDCHAR
STARTCHAR C.c2sc
ENCODING -1
SWIDTH 490 0
DWIDTH 6 0
BBX 6 7 0 0
BITMAP
1F40
34D0
6050
6000
6040
34D0
1F40
ENDCHAR
STARTCHAR B.c2sc
ENCODING -1
SWIDTH 475 0
DWIDTH 6 0
BBX 5 7 0 0
BITMAP
7F40
61C0
6180
7F40
60C0
60C0
7F40
ENDCHAR
STARTCHAR A.c2sc
ENCODING -1
SWIDTH 501 0
DWIDTH 6 0
BBX 6 7 0 0
BITMAP
0A00
0F00
1A40
2580
3FC0
6090
9060
ENDCHAR
STARTCHAR glyph564
ENCODING -1
SWIDTH 236 0
DWIDTH 3 0
BBX 1 3 1 6
BITMAP
80
C0
C0
ENDCHAR
STARTCHAR glyph565
ENCODING -1
SWIDTH 402 0
DWIDTH 5 0
BBX 4 4 0 7
BITMAP
24
04
66
2D
ENDCHAR
STARTCHAR glyph566
ENCODING -1
SWIDTH 0 0
DWIDTH 0 0
BBX 3 3 -4 7
BITMAP
20
94
A4
ENDCHAR
STARTCHAR glyph567
ENCODING -1
SWIDTH 455 0
DWIDTH 5 0
BBX 5 3 1 7
BITMAP
0180
7600
9800
ENDCHAR
STARTCHAR glyph568
ENCODING -1
SWIDTH 454 0
DWIDTH 5 0
BBX 5 3 -1 7
BITMAP
A000
2740
0980
ENDCHAR
STARTCHAR glyph569
ENCODING -1
SWIDTH 446 0
DWIDTH 5 0
BBX 4 4 1 7
BITMAP
02
02
7A
88
ENDCHAR
STARTCHAR glyph570
ENCODING -1
SWIDTH 453 0
DWIDTH 5 0
BBX 3 5 1 7
BITMAP
94
64
00
74
88
ENDCHAR
STARTCHAR uni0490.c2sc
ENCODING -1
SWIDTH 405 0
DWIDTH 5 0
BBX 5 9 0 0
BITMAP
0140
0180
7F80
6000
6000
6000
6000
6000
6000
ENDCHAR
STARTCHAR glyph572
ENCODING -1
SWIDTH 404 0
DWIDTH 5 0
BBX 4 4 0 7
BITMAP
08
08
66
2D
ENDCHAR
STARTCHAR glyph573
ENCODING -1
SWIDTH 404 0
DWIDTH 5 0
BBX 4 5 0 7
BITMAP
08
09
08
66
2D
ENDCHAR
STARTCHAR zero.numr
ENCODING -1
SWIDTH 329 0
DWIDTH 4 0
BBX 4 5 0 4
BITMAP
38
59
55
59
3C
ENDCHAR
STARTCHAR four.numr
ENCODING -1
SWIDTH 329 0
DWIDTH 4 0
BBX 4 5 0 4
BITMAP
0C
2C
68
BE
08
ENDCHAR
STARTCHAR five.numr
ENCODING -1
SWIDTH 329 0
DWIDTH 4 0
BBX 4 5 0 4
BITMAP
3D
60
7D
19
7C
ENDCHAR
STARTCHAR six.numr
ENCODING -1
SWIDTH 329 0
DWIDTH 4 0
BBX 4 5 0 4
BITMAP
28
60
7D
69
3D
ENDCHAR
STARTCHAR seven.numr
ENCODING -1
SWIDTH 329 0
DWIDTH 4 0
BBX 4 5 0 4
BITMAP
BD
08
08
14
30
ENDCHAR
STARTCHAR eight.numr
ENCODING -1
SWIDTH 329 0
DWIDTH 4 0
BBX 4 5 0 4
BITMAP
3C
69
3C
69
7C
ENDCHAR
STARTCHAR nine.numr
ENCODING -1
SWIDTH 329 0
DWIDTH 4 0
BBX 4 5 0 4
BITMAP
78
69
7D
09
28
ENDCHAR
STARTCHAR C.ss06
ENCODING -1
SWIDTH 603 0
DWIDTH 7 0
BBX 7 9 0 0
BITMAP
0BD0
2874
3014
7000
6000
7000
3014
2834
0BD0
ENDCHAR
STARTCHAR G.ss06
ENCODING -1
SWIDTH 618 0
DWIDTH 7 0
BBX 7 9 0 0
BITMAP
0BD0
2874
3014
7000
6000
70F8
3418
2828
0BE0
ENDCHAR
STARTCHAR D.ss06
ENCODING -1
SWIDTH 608 0
DWIDTH 7 0
BBX 6 9 1 0
BITMAP
FE00
C280
C0D0
C090
C0A0
C090
C0D0
C280
FE00
ENDCHAR
STARTCHAR O.ss06
ENCODING -1
SWIDTH 643 0
DWIDTH 8 0
BBX 7 9 0 0
BITMAP
0BD0
1874
3018
701C
600C
701C
3018
2874
0BD0
ENDCHAR
STARTCHAR Q.ss06
ENCODING -1
SWIDTH 644 0
DWIDTH 8 0
BBX 7 10 0 -1
BITMAP
0BD0
1874
3018
701C
600C
701C
3018
2874
0BE0
0074
ENDCHAR
STARTCHAR one.oldstyle.pnum
ENCODING -1
SWIDTH 421 0
DWIDTH 5 0
BBX 3 7 1 0
BITMAP
68
A8
18
18
18
18
18
ENDCHAR
STARTCHAR two.oldstyle.pnum
ENCODING -1
SWIDTH 492 0
DWIDTH 6 0
BBX 5 7 1 0
BITMAP
7D00
D700
4300
0900
2800
6000
FF40
ENDCHAR
STARTCHAR three.oldstyle.pnum
ENCODING -1
SWIDTH 474 0
DWIDTH 6 0
BBX 5 9 0 -2
BITMAP
7FC0
0240
0A00
0E00
0280
00C0
00C0
4280
7E00
ENDCHAR
STARTCHAR four.oldstyle.pnum
ENCODING -1
SWIDTH 524 0
DWIDTH 6 0
BBX 6 9 0 -2
BITMAP
01C0
03C0
06C0
0CC0
24C0
30C0
BFF0
00C0
00C0
ENDCHAR
STARTCHAR five.oldstyle.pnum
ENCODING -1
SWIDTH 483 0
DWIDTH 6 0
BBX 5 9 1 -2
BITMAP
BF40
C000
C000
FD00
8700
0300
0300
4600
B900
ENDCHAR
STARTCHAR seven.oldstyle.pnum
ENCODING -1
SWIDTH 458 0
DWIDTH 6 0
BBX 5 9 0 -2
BITMAP
BFC0
0180
0240
0300
0600
0900
0C00
1800
2400
ENDCHAR
STARTCHAR glyph592
ENCODING -1
SWIDTH 402 0
DWIDTH 5 0
BBX 4 5 0 7
BITMAP
25
19
00
66
2D
ENDCHAR
STARTCHAR glyph593
ENCODING -1
SWIDTH 183 0
DWIDTH 2 0
BBX 2 3 0 -2
BITMAP
60
60
60
ENDCHAR
STARTCHAR OE.c2sc
ENCODING -1
SWIDTH 714 0
DWIDTH 9 0
BBX 9 7 0 0
BITMAP
1FFF40
349000
609000
60BE00
609000
349000
1FFF40
ENDCHAR
STARTCHAR nine.oldstyle.pnum
ENCODING -1
SWIDTH 520 0
DWIDTH 6 0
BBX 5 9 1 -2
BITMAP
7D00
D340
C240
C180
D280
7F80
0240
0700
B900
ENDCHAR
STARTCHAR glyph596
ENCODING -1
SWIDTH 234 0
DWIDTH 3 0
BBX 2 3 0 -2
BITMAP
30
70
E0
ENDCHAR
STARTCHAR three.oldstyle
ENCODING -1
SWIDTH 494 0
DWIDTH 6 0
BBX 6 9 0 -2
BITMAP
7FC0
0280
0600
0F40
01C0
00D0
00C0
5280
6E00
ENDCHAR
STARTCHAR five.oldstyle
ENCODING -1
SWIDTH 494 0
DWIDTH 6 0
BBX 5 9 1 -2
BITMAP
BF40
8000
C000
FD00
8700
0240
0340
4700
B900
ENDCHAR
STARTCHAR four.oldstyle
ENCODING -1
SWIDTH 494 0
DWIDTH 6 0
BBX 6 9 0 -2
BITMAP
02C0
03C0
0AC0
19C0
25C0
61C0
BFE0
01C0
01C0
ENDCHAR
STARTCHAR two.oldstyle
ENCODING -1
SWIDTH 494 0
DWIDTH 6 0
BBX 5 7 1 0
BITMAP
7D00
C700
4300
0900
2800
A000
FF40
ENDCHAR
STARTCHAR seven.oldstyle
ENCODING -1
SWIDTH 494 0
DWIDTH 6 0
BBX 6 9 0 -2
BITMAP
7FD0
00C0
0180
0240
0300
0600
0900
0C00
2800
ENDCHAR
STARTCHAR zero.oldstyle
ENCODING -1
SWIDTH 494 0
DWIDTH 6 0
BBX 6 7 0 0
BITMAP
1F40
71C0
6090
90A0
6090
71C0
1F40
ENDCHAR
STARTCHAR six.oldstyle
ENCODING -1
SWIDTH 494 0
DWIDTH 6 0
BBX 6 9 0 0
BITMAP
0B40
2800
3000
3B40
75C0
6090
3090
35C0
1F40
ENDCHAR
STARTCHAR nine.oldstyle
ENCODING -1
SWIDTH 494 0
DWIDTH 6 0
BBX 6 9 0 -2
BITMAP
1F40
31C0
6090
6090
35D0
1FD0
00C0
0280
2E00
ENDCHAR
STARTCHAR eight.oldstyle
ENCODING -1
SWIDTH 494 0
DWIDTH 6 0
BBX 6 9 0 0
BITMAP
1F40
35C0
30C0
3580
1F40
31C0
60D0
31C0
1F40
ENDCHAR
STARTCHAR one.oldstyle
ENCODING -1
SWIDTH 494 0
DWIDTH 6 0
BBX 3 7 1 0
BITMAP
18
9C
0C
0C
0C
0C
0C
ENDCHAR
STARTCHAR glyph607
ENCODING -1
SWIDTH 237 0
DWIDTH 3 0
BBX 2 9 0 -2
BITMAP
30
30
30
30
30
30
30
70
D0
ENDCHAR
STARTCHAR glyph608
ENCODING -1
SWIDTH 238 0
DWIDTH 3 0
BBX 2 9 0 -2
BITMAP
30
30
30
30
30
30
30
70
D0
ENDCHAR
STARTCHAR glyph609
ENCODING -1
SWIDTH 235 0
DWIDTH 3 0
BBX 1 7 1 0
BITMAP
C0
C0
C0
C0
C0
C0
C0
ENDCHAR
STARTCHAR glyph610
ENCODING -1
SWIDTH 235 0
DWIDTH 3 0
BBX 2 9 0 -2
BITMAP
30
30
30
30
30
30
30
90
A0
ENDCHAR
STARTCHAR glyph611
ENCODING -1
SWIDTH 235 0
DWIDTH 3 0
BBX 1 7 1 0
BITMAP
C0
C0
C0
C0
C0
C0
C0
ENDCHAR
STARTCHAR germandbls.sc
ENCODING -1
SWIDTH 475 0
DWIDTH 6 0
BBX 5 7 0 0
BITMAP
2E40
3280
6600
6B80
60C0
60C0
6B40
ENDCHAR
STARTCHAR zero.oldstyle.pnum
ENCODING -1
SWIDTH 545 0
DWIDTH 7 0
BBX 6 7 0 0
BITMAP
1B80
3490
7060
6070
7060
3490
1B80
ENDCHAR
STARTCHAR seven.pnum
ENCODING -1
SWIDTH 458 0
DWIDTH 6 0
BBX 5 9 0 0
BITMAP
BFC0
0180
0240
0300
0600
0900
0C00
1800
2400
ENDCHAR
STARTCHAR b.ss06
ENCODING -1
SWIDTH 493 0
DWIDTH 6 0
BBX 6 9 0 0
BITMAP
6000
6000
7B40
75C0
6090
6090
6090
75C0
6B40
ENDCHAR
STARTCHAR c.ss06
ENCODING -1
SWIDTH 460 0
DWIDTH 6 0
BBX 5 7 0 0
BITMAP
1F40
35C0
6040
6000
6040
35C0
1F40
ENDCHAR
STARTCHAR d.ss06
ENCODING -1
SWIDTH 503 0
DWIDTH 6 0
BBX 6 9 0 0
BITMAP
0090
0090
1ED0
35D0
6090
6090
6090
35D0
1E90
ENDCHAR
STARTCHAR g.ss06
ENCODING -1
SWIDTH 500 0
DWIDTH 6 0
BBX 6 9 0 -2
BITMAP
1E90
35D0
6090
6090
6090
35D0
1ED0
01C0
2F40
ENDCHAR
STARTCHAR o.ss06
ENCODING -1
SWIDTH 508 0
DWIDTH 6 0
BBX 6 7 0 0
BITMAP
1F40
35C0
6090
60A0
6090
35C0
1F40
ENDCHAR
STARTCHAR p.ss06
ENCODING -1
SWIDTH 500 0
DWIDTH 6 0
BBX 6 9 0 -2
BITMAP
6B40
75C0
6090
6090
6090
75C0
7B40
6000
6000
ENDCHAR
STARTCHAR q.ss06
ENCODING -1
SWIDTH 508 0
DWIDTH 6 0
BBX 6 9 0 -2
BITMAP
1E90
35D0
6090
6090
6090
35D0
1ED0
0090
0090
ENDCHAR
STARTCHAR e.ss07
ENCODING -1
SWIDTH 468 0
DWIDTH 6 0
BBX 5 7 0 0
BITMAP
1F40
35C0
60C0
7FC0
6000
3440
1F80
ENDCHAR
STARTCHAR g.ss07
ENCODING -1
SWIDTH 492 0
DWIDTH 6 0
BBX 5 9 0 -2
BITMAP
1EC0
35C0
60C0
60C0
60C0
35C0
1EC0
01C0
2F40
ENDCHAR
STARTCHAR one.pnum
ENCODING -1
SWIDTH 382 0
DWIDTH 5 0
BBX 4 9 0 0
BITMAP
19
69
09
09
09
09
09
09
09
ENDCHAR
STARTCHAR ampersand.c2sc
ENCODING -1
SWIDTH 526 0
DWIDTH 6 0
BBX 6 7 0 0
BITMAP
2E00
3700
2B00
1D50
6790
62C0
2EA0
ENDCHAR
STARTCHAR Lslash.c2sc
ENCODING -1
SWIDTH 411 0
DWIDTH 5 0
BBX 5 7 0 0
BITMAP
6000
6000
7800
F400
6000
6000
7F80
ENDCHAR
STARTCHAR AE.c2sc
ENCODING -1
SWIDTH 676 0
DWIDTH 8 0
BBX 8 7 0 0
BITMAP
03FD
06C0
09C0
18FC
2FC0
20C0
90FE
ENDCHAR
STARTCHAR Thorn.c2sc
ENCODING -1
SWIDTH 440 0
DWIDTH 5 0
BBX 5 7 0 0
BITMAP
6000
7E00
6280
61C0
6180
7E00
6000
ENDCHAR
STARTCHAR Oslash.c2sc
ENCODING -1
SWIDTH 519 0
DWIDTH 6 0
BBX 6 7 0 0
BITMAP
1F90
35D0
62A0
6660
6860
38D0
2F40
ENDCHAR
STARTCHAR Hbar.c2sc
ENCODING -1
SWIDTH 533 0
DWIDTH 6 0
BBX 6 7 0 0
BITMAP
6060
BFF0
6060
7FE0
6060
6060
6060
ENDCHAR
STARTCHAR Eng.c2sc
ENCODING -1
SWIDTH 533 0
DWIDTH 6 0
BBX 6 9 0 -2
BITMAP
7060
7860
6860
6660
62A0
60E0
6060
00A0
01D0
ENDCHAR
STARTCHAR Dcroat.c2sc
ENCODING -1
SWIDTH 492 0
DWIDTH 6 0
BBX 7 7 -1 0
BITMAP
1F90
1870
1824
7F24
1824
1870
1F90
ENDCHAR
STARTCHAR Eth.c2sc
ENCODING -1
SWIDTH 492 0
DWIDTH 6 0
BBX 7 7 -1 0
BITMAP
1F90
1870
1824
7F24
1824
1870
1F90
ENDCHAR
STARTCHAR Tbar.c2sc
ENCODING -1
SWIDTH 456 0
DWIDTH 5 0
BBX 5 7 0 0
BITMAP
BFC0
0900
3F40
0900
0900
0900
0900
ENDCHAR
STARTCHAR Agrave.c2sc
ENCODING -1
SWIDTH 501 0
DWIDTH 6 0
BBX 6 10 0 0
BITMAP
1C00
0900
0000
0A00
0F00
1A40
2580
3FC0
6090
9060
ENDCHAR
STARTCHAR Aacute.c2sc
ENCODING -1
SWIDTH 501 0
DWIDTH 6 0
BBX 6 10 0 0
BITMAP
0240
0600
0000
0A00
0F00
1A40
2580
3FC0
6090
9060
ENDCHAR
STARTCHAR Acircumflex.c2sc
ENCODING -1
SWIDTH 501 0
DWIDTH 6 0
BBX 6 10 0 0
BITMAP
0A00
1A40
0000
0A00
0F00
1A40
2580
3FC0
6090
9060
ENDCHAR
STARTCHAR Atilde.c2sc
ENCODING -1
SWIDTH 501 0
DWIDTH 6 0
BBX 6 10 0 0
BITMAP
1C80
2740
0000
0A00
0F00
1A40
2580
3FC0
6090
9060
ENDCHAR
STARTCHAR Adieresis.c2sc
ENCODING -1
SWIDTH 501 0
DWIDTH 6 0
BBX 6 9 0 0
BITMAP
2580
0000
0A00
0F00
1A40
2580
3FC0
6090
9060
ENDCHAR
STARTCHAR Aring.c2sc
ENCODING -1
SWIDTH 501 0
DWIDTH 6 0
BBX 6 11 0 0
BITMAP
0A00
1540
0A00
0000
0A00
0F00
1A40
2580
3FC0
6090
9060
ENDCHAR
STARTCHAR Aringacute.c2sc
ENCODING -1
SWIDTH 501 0
DWIDTH 6 0
BBX 6 10 0 0
BITMAP
0240
0200
0A00
0F00
0F00
1A40
2580
3FC0
6090
9060
ENDCHAR
STARTCHAR Ccedilla.c2sc
ENCODING -1
SWIDTH 490 0
DWIDTH 6 0
BBX 6 9 0 -2
BITMAP
1F40
34D0
6050
6000
6040
34D0
1F40
0500
0600
ENDCHAR
STARTCHAR Egrave.c2sc
ENCODING -1
SWIDTH 428 0
DWIDTH 5 0
BBX 5 10 0 0
BITMAP
2800
0800
0000
7F80
6000
6000
7F40
6000
6000
7F80
ENDCHAR
STARTCHAR Eacute.c2sc
ENCODING -1
SWIDTH 428 0
DWIDTH 5 0
BBX 5 10 0 0
BITMAP
0340
0900
0000
7F80
6000
6000
7F40
6000
6000
7F80
ENDCHAR
STARTCHAR Ecircumflex.c2sc
ENCODING -1
SWIDTH 428 0
DWIDTH 5 0
BBX 5 10 0 0
BITMAP
0D00
1600
0000
7F80
6000
6000
7F40
6000
6000
7F80
ENDCHAR
STARTCHAR Edieresis.c2sc
ENCODING -1
SWIDTH 428 0
DWIDTH 5 0
BBX 5 9 0 0
BITMAP
3180
0000
7F80
6000
6000
7F40
6000
6000
7F80
ENDCHAR
STARTCHAR Igrave.c2sc
ENCODING -1
SWIDTH 221 0
DWIDTH 3 0
BBX 2 10 0 0
BITMAP
D0
60
00
70
70
70
70
70
70
70
ENDCHAR
STARTCHAR Iacute.c2sc
ENCODING -1
SWIDTH 221 0
DWIDTH 3 0
BBX 3 10 0 0
BITMAP
28
20
00
70
70
70
70
70
70
70
ENDCHAR
STARTCHAR Icircumflex.c2sc
ENCODING -1
SWIDTH 221 0
DWIDTH 3 0
BBX 3 10 0 0
BITMAP
70
98
00
70
70
70
70
70
70
70
ENDCHAR
STARTCHAR Idieresis.c2sc
ENCODING -1
SWIDTH 221 0
DWIDTH 3 0
BBX 4 9 -1 0
BITMAP
63
00
1C
1C
1C
1C
1C
1C
1C
ENDCHAR
STARTCHAR Ntilde.c2sc
ENCODING -1
SWIDTH 533 0
DWIDTH 6 0
BBX 6 10 0 0
BITMAP
1D80
2680
0000
7060
7860
6860
6660
62A0
61E0
60A0
ENDCHAR
STARTCHAR Ograve.c2sc
ENCODING -1
SWIDTH 519 0
DWIDTH 6 0
BBX 6 10 0 0
BITMAP
1C00
0900
0000
1F40
34D0
6060
6060
6060
34D0
1F40
ENDCHAR
STARTCHAR Oacute.c2sc
ENCODING -1
SWIDTH 519 0
DWIDTH 6 0
BBX 6 10 0 0
BITMAP
0280
0600
0000
1F40
34D0
6060
6060
6060
34D0
1F40
ENDCHAR
STARTCHAR Ocircumflex.c2sc
ENCODING -1
SWIDTH 519 0
DWIDTH 6 0
BBX 6 10 0 0
BITMAP
0A00
1940
0000
1F40
34D0
6060
6060
6060
34D0
1F40
ENDCHAR
STARTCHAR Otilde.c2sc
ENCODING -1
SWIDTH 519 0
DWIDTH 6 0
BBX 6 10 0 0
BITMAP
1D80
2640
0000
1F40
34D0
6060
6060
6060
34D0
1F40
ENDCHAR
STARTCHAR Odieresis.c2sc
ENCODING -1
SWIDTH 519 0
DWIDTH 6 0
BBX 6 9 0 0
BITMAP
24C0
0000
1F40
34D0
6060
6060
6060
34D0
1F40
ENDCHAR
STARTCHAR Ugrave.c2sc
ENCODING -1
SWIDTH 488 0
DWIDTH 6 0
BBX 6 10 0 0
BITMAP
2800
0900
0000
6090
6090
6090
6090
6090
71C0
1F40
ENDCHAR
STARTCHAR Uacute.c2sc
ENCODING -1
SWIDTH 488 0
DWIDTH 6 0
BBX 6 10 0 0
BITMAP
0340
0600
0000
6090
6090
6090
6090
6090
71C0
1F40
ENDCHAR
STARTCHAR Ucircumflex.c2sc
ENCODING -1
SWIDTH 488 0
DWIDTH 6 0
BBX 6 10 0 0
BITMAP
0A00
1640
0000
6090
6090
6090
6090
6090
71C0
1F40
ENDCHAR
STARTCHAR Udieresis.c2sc
ENCODING -1
SWIDTH 488 0
DWIDTH 6 0
BBX 6 9 0 0
BITMAP
2580
0000
6090
6090
6090
6090
6090
71C0
1F40
ENDCHAR
STARTCHAR Yacute.c2sc
ENCODING -1
SWIDTH 458 0
DWIDTH 6 0
BBX 5 10 0 0
BITMAP
0340
0900
0000
A0C0
3180
2740
1E00
0D00
0900
0900
ENDCHAR
STARTCHAR Amacron.c2sc
ENCODING -1
SWIDTH 501 0
DWIDTH 6 0
BBX 6 9 0 0
BITMAP
2F80
0000
0A00
0F00
1A40
2580
3FC0
6090
9060
ENDCHAR
STARTCHAR Abreve.c2sc
ENCODING -1
SWIDTH 501 0
DWIDTH 6 0
BBX 6 10 0 0
BITMAP
2580
1F40
0000
0A00
0F00
1A40
2580
3FC0
6090
9060
ENDCHAR
STARTCHAR Aogonek.c2sc
ENCODING -1
SWIDTH 501 0
DWIDTH 6 0
BBX 6 9 0 -2
BITMAP
0A00
0F00
1A40
2580
3FC0
6090
9060
0080
00E0
ENDCHAR
STARTCHAR Cacute.c2sc
ENCODING -1
SWIDTH 490 0
DWIDTH 6 0
BBX 6 10 0 0
BITMAP
0240
0600
0000
1F40
34D0
6050
6000
6040
34D0
1F40
ENDCHAR
STARTCHAR Ccircumflex.c2sc
ENCODING -1
SWIDTH 490 0
DWIDTH 6 0
BBX 6 10 0 0
BITMAP
0A00
1A40
0000
1F40
34D0
6050
6000
6040
34D0
1F40
ENDCHAR
STARTCHAR Cdotaccent.c2sc
ENCODING -1
SWIDTH 490 0
DWIDTH 6 0
BBX 6 9 0 0
BITMAP
0600
0000
1F40
34D0
6050
6000
6040
34D0
1F40
ENDCHAR
STARTCHAR Ccaron.c2sc
ENCODING -1
SWIDTH 490 0
DWIDTH 6 0
BBX 6 10 0 0
BITMAP
1A40
0A00
0000
1F40
34D0
6050
6000
6040
34D0
1F40
ENDCHAR
STARTCHAR Dcaron.c2sc
ENCODING -1
SWIDTH 492 0
DWIDTH 6 0
BBX 6 10 0 0
BITMAP
2600
0D00
0000
7E40
61C0
6090
6090
6090
61C0
7E40
ENDCHAR
STARTCHAR Emacron.c2sc
ENCODING -1
SWIDTH 428 0
DWIDTH 5 0
BBX 5 9 0 0
BITMAP
3F80
0000
7F80
6000
6000
7F40
6000
6000
7F80
ENDCHAR
STARTCHAR Ebreve.c2sc
ENCODING -1
SWIDTH 428 0
DWIDTH 5 0
BBX 5 10 0 0
BITMAP
3240
1E00
0000
7F80
6000
6000
7F40
6000
6000
7F80
ENDCHAR
STARTCHAR Edotaccent.c2sc
ENCODING -1
SWIDTH 428 0
DWIDTH 5 0
BBX 5 9 0 0
BITMAP
0900
0000
7F80
6000
6000
7F40
6000
6000
7F80
ENDCHAR
STARTCHAR Eogonek.c2sc
ENCODING -1
SWIDTH 428 0
DWIDTH 5 0
BBX 5 9 0 -2
BITMAP
7F80
6000
6000
7F40
6000
6000
7F80
0200
0340
ENDCHAR
STARTCHAR Ecaron.c2sc
ENCODING -1
SWIDTH 428 0
DWIDTH 5 0
BBX 5 10 0 0
BITMAP
2600
0900
0000
7F80
6000
6000
7F40
6000
6000
7F80
ENDCHAR
STARTCHAR Gcircumflex.c2sc
ENCODING -1
SWIDTH 509 0
DWIDTH 6 0
BBX 6 10 0 0
BITMAP
0A00
1A40
0000
1F80
34D0
6000
63D0
6090
3490
1F80
ENDCHAR
STARTCHAR Gbreve.c2sc
ENCODING -1
SWIDTH 509 0
DWIDTH 6 0
BBX 6 10 0 0
BITMAP
2580
1F40
0000
1F80
34D0
6000
63D0
6090
3490
1F80
ENDCHAR
STARTCHAR Gdotaccent.c2sc
ENCODING -1
SWIDTH 509 0
DWIDTH 6 0
BBX 6 9 0 0
BITMAP
0900
0000
1F80
34D0
6000
63D0
6090
3490
1F80
ENDCHAR
STARTCHAR uni0122.c2sc
ENCODING -1
SWIDTH 509 0
DWIDTH 6 0
BBX 6 10 0 -3
BITMAP
1F80
34D0
6000
63D0
6090
3490
1F80
0000
0900
0800
ENDCHAR
STARTCHAR Hcircumflex.c2sc
ENCODING -1
SWIDTH 533 0
DWIDTH 6 0
BBX 6 10 0 0
BITMAP
0A00
0940
0000
6060
6060
6060
7FE0
6060
6060
6060
ENDCHAR
STARTCHAR Itilde.c2sc
ENCODING -1
SWIDTH 221 0
DWIDTH 3 0
BBX 4 10 -1 0
BITMAP
36
5A
00
1C
1C
1C
1C
1C
1C
1C
ENDCHAR
STARTCHAR Imacron.c2sc
ENCODING -1
SWIDTH 221 0
DWIDTH 3 0
BBX 4 9 -1 0
BITMAP
7F
00
1C
1C
1C
1C
1C
1C
1C
ENDCHAR
STARTCHAR Ibreve.c2sc
ENCODING -1
SWIDTH 221 0
DWIDTH 3 0
BBX 4 10 -1 0
BITMAP
63
2D
00
1C
1C
1C
1C
1C
1C
1C
ENDCHAR
STARTCHAR Iogonek.c2sc
ENCODING -1
SWIDTH 221 0
DWIDTH 3 0
BBX 2 9 0 -2
BITMAP
70
70
70
70
70
70
70
90
B0
ENDCHAR
STARTCHAR Idotaccent.c2sc
ENCODING -1
SWIDTH 221 0
DWIDTH 3 0
BBX 2 9 0 0
BITMAP
60
00
70
70
70
70
70
70
70
ENDCHAR
STARTCHAR Jcircumflex.c2sc
ENCODING -1
SWIDTH 419 0
DWIDTH 5 0
BBX 5 10 0 0
BITMAP
0340
0980
0000
0240
0240
0240
0240
0240
A340
2E00
ENDCHAR
STARTCHAR uni0136.c2sc
ENCODING -1
SWIDTH 473 0
DWIDTH 6 0
BBX 6 10 0 -3
BITMAP
61C0
6340
6A00
7D00
7700
6280
60D0
0000
0900
0800
ENDCHAR
STARTCHAR Lacute.c2sc
ENCODING -1
SWIDTH 411 0
DWIDTH 5 0
BBX 5 10 0 0
BITMAP
2800
2000
0000
6000
6000
6000
6000
6000
6000
7F80
ENDCHAR
STARTCHAR uni013B.c2sc
ENCODING -1
SWIDTH 411 0
DWIDTH 5 0
BBX 5 10 0 -3
BITMAP
6000
6000
6000
6000
6000
6000
7F80
0000
0800
0800
ENDCHAR
STARTCHAR Lcaron.c2sc
ENCODING -1
SWIDTH 411 0
DWIDTH 5 0
BBX 5 7 0 0
BITMAP
6600
6500
6000
6000
6000
6000
7F80
ENDCHAR
STARTCHAR Ldot.c2sc
ENCODING -1
SWIDTH 411 0
DWIDTH 5 0
BBX 5 7 0 0
BITMAP
6000
6000
6000
6600
6000
6000
7F80
ENDCHAR
STARTCHAR Nacute.c2sc
ENCODING -1
SWIDTH 533 0
DWIDTH 6 0
BBX 6 10 0 0
BITMAP
0280
0200
0000
7060
7860
6860
6660
62A0
61E0
60A0
ENDCHAR
STARTCHAR uni0145.c2sc
ENCODING -1
SWIDTH 533 0
DWIDTH 6 0
BBX 6 10 0 -3
BITMAP
7060
7860
6860
6660
62A0
61E0
60A0
0000
0600
0500
ENDCHAR
STARTCHAR Ncaron.c2sc
ENCODING -1
SWIDTH 533 0
DWIDTH 6 0
BBX 6 10 0 0
BITMAP
0940
0600
0000
7060
7860
6860
6660
62A0
61E0
60A0
ENDCHAR
STARTCHAR Omacron.c2sc
ENCODING -1
SWIDTH 519 0
DWIDTH 6 0
BBX 6 9 0 0
BITMAP
2FC0
0000
1F40
34D0
6060
6060
6060
34D0
1F40
ENDCHAR
STARTCHAR Obreve.c2sc
ENCODING -1
SWIDTH 519 0
DWIDTH 6 0
BBX 6 10 0 0
BITMAP
2580
0F40
0000
1F40
34D0
6060
6060
6060
34D0
1F40
ENDCHAR
STARTCHAR Ohungarumlaut.c2sc
ENCODING -1
SWIDTH 519 0
DWIDTH 6 0
BBX 6 10 0 0
BITMAP
0AD0
0980
0000
1F40
34D0
6060
6060
6060
34D0
1F40
ENDCHAR
STARTCHAR Racute.c2sc
ENCODING -1
SWIDTH 465 0
DWIDTH 6 0
BBX 6 10 0 0
BITMAP
0740
0900
0000
7F40
61C0
61C0
7F40
6240
6180
60D0
ENDCHAR
STARTCHAR uni0156.c2sc
ENCODING -1
SWIDTH 465 0
DWIDTH 6 0
BBX 6 10 0 -3
BITMAP
7F40
61C0
61C0
7F40
6240
6180
60D0
0000
0800
0800
ENDCHAR
STARTCHAR Rcaron.c2sc
ENCODING -1
SWIDTH 465 0
DWIDTH 6 0
BBX 6 10 0 0
BITMAP
2600
0D00
0000
7F40
61C0
61C0
7F40
6240
6180
60D0
ENDCHAR
STARTCHAR Sacute.c2sc
ENCODING -1
SWIDTH 453 0
DWIDTH 5 0
BBX 5 10 0 0
BITMAP
0340
0900
0000
2F40
61C0
7440
1F40
01C0
61C0
2F40
ENDCHAR
STARTCHAR Scircumflex.c2sc
ENCODING -1
SWIDTH 453 0
DWIDTH 5 0
BBX 5 10 0 0
BITMAP
0E00
1600
0000
2F40
61C0
7440
1F40
01C0
61C0
2F40
ENDCHAR
STARTCHAR Scedilla.c2sc
ENCODING -1
SWIDTH 453 0
DWIDTH 5 0
BBX 5 9 0 -2
BITMAP
2F40
61C0
7440
1F40
01C0
61C0
2F40
0500
0A00
ENDCHAR
STARTCHAR Scaron.c2sc
ENCODING -1
SWIDTH 453 0
DWIDTH 5 0
BBX 5 10 0 0
BITMAP
2600
0900
0000
2F40
61C0
7440
1F40
01C0
61C0
2F40
ENDCHAR
STARTCHAR uni021A.c2sc
ENCODING -1
SWIDTH 456 0
DWIDTH 5 0
BBX 5 10 0 -3
BITMAP
BFC0
0900
0900
0900
0900
0900
0900
0000
0900
0800
ENDCHAR
STARTCHAR Tcaron.c2sc
ENCODING -1
SWIDTH 456 0
DWIDTH 5 0
BBX 5 10 0 0
BITMAP
2600
0D00
0000
BFC0
0900
0900
0900
0900
0900
0900
ENDCHAR
STARTCHAR uni0162.c2sc
ENCODING -1
SWIDTH 456 0
DWIDTH 5 0
BBX 5 9 0 -2
BITMAP
BFC0
0900
0900
0900
0900
0900
0900
0400
0A00
ENDCHAR
STARTCHAR Utilde.c2sc
ENCODING -1
SWIDTH 488 0
DWIDTH 6 0
BBX 6 10 0 0
BITMAP
1980
2740
0000
6090
6090
6090
6090
6090
71C0
1F40
ENDCHAR
STARTCHAR Umacron.c2sc
ENCODING -1
SWIDTH 488 0
DWIDTH 6 0
BBX 6 9 0 0
BITMAP
2F80
0000
6090
6090
6090
6090
6090
71C0
1F40
ENDCHAR
STARTCHAR Ubreve.c2sc
ENCODING -1
SWIDTH 488 0
DWIDTH 6 0
BBX 6 10 0 0
BITMAP
2580
1F00
0000
6090
6090
6090
6090
6090
71C0
1F40
ENDCHAR
STARTCHAR Uring.c2sc
ENCODING -1
SWIDTH 488 0
DWIDTH 6 0
BBX 6 11 0 0
BITMAP
0A00
1500
0A00
0000
6090
6090
6090
6090
6090
71C0
1F40
ENDCHAR
STARTCHAR Uhungarumlaut.c2sc
ENCODING -1
SWIDTH 488 0
DWIDTH 6 0
BBX 6 10 0 0
BITMAP
09C0
0A40
0000
6090
6090
6090
6090
6090
71C0
1F40
ENDCHAR
STARTCHAR Uogonek.c2sc
ENCODING -1
SWIDTH 488 0
DWIDTH 6 0
BBX 6 9 0 -2
BITMAP
6090
6090
6090
6090
6090
71C0
1F40
0500
0740
ENDCHAR
STARTCHAR Wcircumflex.c2sc
ENCODING -1
SWIDTH 655 0
DWIDTH 8 0
BBX 8 10 0 0
BITMAP
0280
0690
0000
9289
6289
228C
369C
2968
2C34
1C34
ENDCHAR
STARTCHAR Ycircumflex.c2sc
ENCODING -1
SWIDTH 458 0
DWIDTH 6 0
BBX 5 10 0 0
BITMAP
0D00
2600
0000
A0C0
3180
2740
1E00
0D00
0900
0900
ENDCHAR
STARTCHAR Ydieresis.c2sc
ENCODING -1
SWIDTH 458 0
DWIDTH 6 0
BBX 5 9 0 0
BITMAP
3180
0000
A0C0
3180
2740
1E00
0D00
0900
0900
ENDCHAR
STARTCHAR Zacute.c2sc
ENCODING -1
SWIDTH 454 0
DWIDTH 5 0
BBX 5 10 0 0
BITMAP
0340
0900
0000
BFC0
0240
0600
0D00
2800
3000
BFC0
ENDCHAR
STARTCHAR Zdotaccent.c2sc
ENCODING -1
SWIDTH 454 0
DWIDTH 5 0
BBX 5 9 0 0
BITMAP
0900
0000
BFC0
0240
0600
0D00
2800
3000
BFC0
ENDCHAR
STARTCHAR Zcaron.c2sc
ENCODING -1
SWIDTH 454 0
DWIDTH 5 0
BBX 5 10 0 0
BITMAP
2600
0D00
0000
BFC0
0240
0600
0D00
2800
3000
BFC0
ENDCHAR
STARTCHAR two.pnum
ENCODING -1
SWIDTH 493 0
DWIDTH 6 0
BBX 6 9 0 0
BITMAP
1F40
71C0
50C0
00C0
0240
0600
1C00
2400
7FD0
ENDCHAR
STARTCHAR three.pnum
ENCODING -1
SWIDTH 493 0
DWIDTH 6 0
BBX 5 9 0 0
BITMAP
1F40
31C0
10C0
0180
0F40
01C0
50C0
71C0
1F40
ENDCHAR
STARTCHAR four.pnum
ENCODING -1
SWIDTH 493 0
DWIDTH 6 0
BBX 6 9 0 0
BITMAP
0280
0780
0A80
1980
2580
6180
BFE0
0180
0180
ENDCHAR
STARTCHAR five.pnum
ENCODING -1
SWIDTH 493 0
DWIDTH 6 0
BBX 5 9 1 0
BITMAP
BF40
9000
9000
BD00
5700
0240
4240
D300
7D00
ENDCHAR
STARTCHAR six.pnum
ENCODING -1
SWIDTH 503 0
DWIDTH 6 0
BBX 5 9 1 0
BITMAP
1D00
6400
9000
EE00
D340
C240
C240
9300
2D00
ENDCHAR
STARTCHAR eight.pnum
ENCODING -1
SWIDTH 513 0
DWIDTH 6 0
BBX 5 9 1 0
BITMAP
7D00
D700
C340
9700
7D00
D300
C240
D340
7D00
ENDCHAR
STARTCHAR nine.pnum
ENCODING -1
SWIDTH 503 0
DWIDTH 6 0
BBX 5 9 0 0
BITMAP
1E00
3180
60C0
60C0
31C0
1EC0
00C0
0240
1E00
ENDCHAR
STARTCHAR zero.pnum
ENCODING -1
SWIDTH 513 0
DWIDTH 6 0
BBX 6 9 0 0
BITMAP
1F40
35C0
3090
7090
6090
7090
3090
25C0
1F40
ENDCHAR
STARTCHAR G_acutecomb.ccmp
ENCODING -1
SWIDTH 590 0
DWIDTH 7 0
BBX 7 12 0 0
BITMAP
0180
0200
0000
0B90
2470
3020
6000
6000
71F4
3024
2834
0BE0
ENDCHAR
STARTCHAR g_acutecomb.ccmp
ENCODING -1
SWIDTH 492 0
DWIDTH 6 0
BBX 5 12 0 -2
BITMAP
0340
0600
0000
2EC0
71C0
60C0
60C0
60C0
31C0
2EC0
01C0
2F40
ENDCHAR
STARTCHAR N_gravecomb.ccmp
ENCODING -1
SWIDTH 619 0
DWIDTH 7 0
BBX 6 12 1 0
BITMAP
2800
0800
0000
D0A0
E0A0
E4A0
D8A0
C9A0
C6A0
C2A0
C1E0
C0A0
ENDCHAR
STARTCHAR n_gravecomb.ccmp
ENCODING -1
SWIDTH 483 0
DWIDTH 6 0
BBX 5 10 0 0
BITMAP
2800
0900
0000
6B40
75C0
60C0
60C0
60C0
60C0
60C0
ENDCHAR
STARTCHAR A_uni030F.ccmp
ENCODING -1
SWIDTH 576 0
DWIDTH 7 0
BBX 7 12 0 0
BITMAP
2B00
0A40
0000
0300
0740
0A80
0CC0
1890
24A0
3FF0
7034
A028
ENDCHAR
STARTCHAR a_uni030F.ccmp
ENCODING -1
SWIDTH 479 0
DWIDTH 6 0
BBX 5 10 0 0
BITMAP
7900
2A00
0000
1F40
3180
00C0
1FC0
70C0
71C0
2EC0
ENDCHAR
STARTCHAR E_uni030F.ccmp
ENCODING -1
SWIDTH 496 0
DWIDTH 6 0
BBX 6 12 0 0
BITMAP
7A00
1A00
0000
3FD0
3000
3000
3000
3FC0
3000
3000
3000
3FE0
ENDCHAR
STARTCHAR e_uni030F.ccmp
ENCODING -1
SWIDTH 468 0
DWIDTH 6 0
BBX 5 10 0 0
BITMAP
6900
2A00
0000
1F40
31C0
60C0
7FC0
6000
3040
1F80
ENDCHAR
STARTCHAR I_uni030F.ccmp
ENCODING -1
SWIDTH 250 0
DWIDTH 3 0
BBX 4 12 -1 0
BITMAP
AC
29
00
0C
0C
0C
0C
0C
0C
0C
0C
0C
ENDCHAR
STARTCHAR dotlessi_uni030F.ccmp
ENCODING -1
SWIDTH 234 0
DWIDTH 3 0
BBX 4 10 -1 0
BITMAP
E8
69
00
0C
0C
0C
0C
0C
0C
0C
ENDCHAR
STARTCHAR O_uni030F.ccmp
ENCODING -1
SWIDTH 600 0
DWIDTH 7 0
BBX 7 12 0 0
BITMAP
2B00
0A40
0000
0B90
2870
3024
6024
6024
6024
3024
2870
0B90
ENDCHAR
STARTCHAR o_uni030F.ccmp
ENCODING -1
SWIDTH 501 0
DWIDTH 6 0
BBX 6 10 0 0
BITMAP
6900
2A00
0000
1F40
35C0
6090
6090
6090
34C0
1F40
ENDCHAR
STARTCHAR R_uni030F.ccmp
ENCODING -1
SWIDTH 530 0
DWIDTH 6 0
BBX 6 12 0 0
BITMAP
7A00
1A00
0000
3F80
30A0
3060
30A0
3F80
3180
30D0
30A0
3070
ENDCHAR
STARTCHAR r_uni030F.ccmp
ENCODING -1
SWIDTH 304 0
DWIDTH 4 0
BBX 5 10 -1 0
BITMAP
7A00
1A00
0000
1E40
1D00
1800
1800
1800
1800
1800
ENDCHAR
STARTCHAR U_uni030F.ccmp
ENCODING -1
SWIDTH 561 0
DWIDTH 7 0
BBX 6 12 0 0
BITMAP
3A00
1A40
0000
6030
6030
6030
6030
6030
6030
7030
3460
1F80
ENDCHAR
STARTCHAR u_uni030F.ccmp
ENCODING -1
SWIDTH 483 0
DWIDTH 6 0
BBX 5 10 0 0
BITMAP
6900
2A00
0000
60C0
60C0
60C0
60C0
60C0
31C0
2EC0
ENDCHAR
STARTCHAR Upsilon1_acutecomb.ccmp
ENCODING -1
SWIDTH 514 0
DWIDTH 6 0
BBX 8 9 -2 0
BITMAP
6707
5249
018C
00E8
0074
0070
0030
0030
0030
ENDCHAR
STARTCHAR B_dotbelowcomb.ccmp
ENCODING -1
SWIDTH 545 0
DWIDTH 7 0
BBX 5 11 1 -2
BITMAP
FE00
C280
C180
C240
FF00
C280
C180
C280
FE00
0000
1800
ENDCHAR
STARTCHAR b_dotbelowcomb.ccmp
ENCODING -1
SWIDTH 493 0
DWIDTH 6 0
BBX 6 11 0 -2
BITMAP
6000
6000
7B40
74C0
6090
6090
6090
74C0
6B40
0000
0600
ENDCHAR
STARTCHAR D_dotbelowcomb.ccmp
ENCODING -1
SWIDTH 570 0
DWIDTH 7 0
BBX 5 11 1 -2
BITMAP
FE00
C280
C0C0
C0C0
C0C0
C0C0
C0C0
C280
FE00
0000
1800
ENDCHAR
STARTCHAR d_dotbelowcomb.ccmp
ENCODING -1
SWIDTH 496 0
DWIDTH 6 0
BBX 5 11 0 -2
BITMAP
00C0
00C0
2EC0
31C0
60C0
60C0
60C0
31C0
2EC0
0000
0600
ENDCHAR
STARTCHAR D_uniF6C3.ccmp
ENCODING -1
SWIDTH 570 0
DWIDTH 7 0
BBX 5 12 1 -3
BITMAP
FE00
C280
C0C0
C0C0
C0C0
C0C0
C0C0
C280
FE00
0000
1800
2400
ENDCHAR
STARTCHAR d_uniF6C3.ccmp
ENCODING -1
SWIDTH 496 0
DWIDTH 6 0
BBX 5 12 0 -3
BITMAP
00C0
00C0
2EC0
31C0
60C0
60C0
60C0
31C0
2EC0
0000
0600
0500
ENDCHAR
STARTCHAR H_dotbelowcomb.ccmp
ENCODING -1
SWIDTH 620 0
DWIDTH 7 0
BBX 6 11 1 -2
BITMAP
C0A0
C0A0
C0A0
C0A0
FFE0
C0A0
C0A0
C0A0
C0A0
0000
0C00
ENDCHAR
STARTCHAR h_dotbelowcomb.ccmp
ENCODING -1
SWIDTH 482 0
DWIDTH 6 0
BBX 5 11 0 -2
BITMAP
6000
6000
7B40
75C0
60C0
60C0
60C0
60C0
60C0
0000
0900
ENDCHAR
STARTCHAR K_acutecomb.ccmp
ENCODING -1
SWIDTH 544 0
DWIDTH 7 0
BBX 6 12 1 0
BITMAP
0A00
1800
0000
C1C0
C340
CA00
D800
F800
D900
C700
C280
C0D0
ENDCHAR
STARTCHAR k_acutecomb.ccmp
ENCODING -1
SWIDTH 450 0
DWIDTH 5 0
BBX 5 12 0 0
BITMAP
0340
0500
0000
6000
6000
6180
6300
6900
7D00
7700
6240
61C0
ENDCHAR
STARTCHAR K_dotbelowcomb.ccmp
ENCODING -1
SWIDTH 544 0
DWIDTH 7 0
BBX 6 10 1 -1
BITMAP
C1C0
C340
CA00
D800
F800
D900
C700
C280
C0D0
1C00
ENDCHAR
STARTCHAR k_dotbelowcomb.ccmp
ENCODING -1
SWIDTH 450 0
DWIDTH 5 0
BBX 5 11 0 -2
BITMAP
6000
6000
6180
6300
6900
7D00
7700
6240
61C0
0000
0900
ENDCHAR
STARTCHAR L_dotbelowcomb.ccmp
ENCODING -1
SWIDTH 475 0
DWIDTH 6 0
BBX 5 11 1 -2
BITMAP
C000
C000
C000
C000
C000
C000
C000
C000
FF40
0000
1800
ENDCHAR
STARTCHAR l_dotbelowcomb.ccmp
ENCODING -1
SWIDTH 229 0
DWIDTH 3 0
BBX 2 11 0 -2
BITMAP
30
30
30
30
30
30
30
30
30
00
60
ENDCHAR
STARTCHAR M_dotbelowcomb.ccmp
ENCODING -1
SWIDTH 755 0
DWIDTH 9 0
BBX 7 11 1 -2
BITMAP
D01C
E02C
F03C
E46C
D89C
CCCC
C98C
C74C
C30C
0000
0300
ENDCHAR
STARTCHAR m_dotbelowcomb.ccmp
ENCODING -1
SWIDTH 752 0
DWIDTH 9 0
BBX 9 9 0 -2
BITMAP
7B6E00
75D300
60C240
60C240
60C240
60C240
60C240
000000
00C000
ENDCHAR
STARTCHAR N_dotbelowcomb.ccmp
ENCODING -1
SWIDTH 619 0
DWIDTH 7 0
BBX 6 11 1 -2
BITMAP
D0A0
E0A0
E4A0
D8A0
C9A0
C6A0
C2A0
C1E0
C0A0
0000
0C00
ENDCHAR
STARTCHAR n_dotbelowcomb.ccmp
ENCODING -1
SWIDTH 483 0
DWIDTH 6 0
BBX 5 9 0 -2
BITMAP
6B40
75C0
60C0
60C0
60C0
60C0
60C0
0000
0900
ENDCHAR
STARTCHAR O_tildecomb_acutecomb.ccmp
ENCODING -1
SWIDTH 600 0
DWIDTH 7 0
BBX 7 13 0 0
BITMAP
0140
0680
0680
0000
0B90
2870
3024
6024
6024
6024
3024
2870
0B90
ENDCHAR
STARTCHAR P_acutecomb.ccmp
ENCODING -1
SWIDTH 554 0
DWIDTH 7 0
BBX 5 12 1 0
BITMAP
0A00
1800
0000
FF40
C1C0
C0C0
C1C0
FF40
C000
C000
C000
C000
ENDCHAR
STARTCHAR p_acutecomb.ccmp
ENCODING -1
SWIDTH 493 0
DWIDTH 6 0
BBX 6 12 0 -2
BITMAP
0280
0200
0000
6B40
75C0
6090
6090
6090
71C0
7B40
6000
6000
ENDCHAR
STARTCHAR R_dotbelowcomb.ccmp
ENCODING -1
SWIDTH 530 0
DWIDTH 6 0
BBX 5 11 1 -2
BITMAP
FE00
C280
C180
C280
FE00
C600
C340
C280
C1C0
0000
1800
ENDCHAR
STARTCHAR r_dotbelowcomb.ccmp
ENCODING -1
SWIDTH 304 0
DWIDTH 4 0
BBX 4 9 0 -2
BITMAP
79
74
60
60
60
60
60
00
60
ENDCHAR
STARTCHAR S_dotbelowcomb.ccmp
ENCODING -1
SWIDTH 518 0
DWIDTH 6 0
BBX 6 11 0 -2
BITMAP
1F80
3490
7050
3400
1B40
0190
5060
74A0
1F80
0000
0600
ENDCHAR
STARTCHAR s_dotbelowcomb.ccmp
ENCODING -1
SWIDTH 455 0
DWIDTH 5 0
BBX 5 9 0 -2
BITMAP
2F40
3180
3400
1E00
0280
6180
2F40
0000
0900
ENDCHAR
STARTCHAR T_dotbelowcomb.ccmp
ENCODING -1
SWIDTH 520 0
DWIDTH 6 0
BBX 6 11 0 -2
BITMAP
BFF0
0600
0600
0600
0600
0600
0600
0600
0600
0000
0600
ENDCHAR
STARTCHAR t_dotbelowcomb.ccmp
ENCODING -1
SWIDTH 295 0
DWIDTH 4 0
BBX 3 11 0 -2
BITMAP
30
30
FC
30
30
30
30
34
2C
00
18
ENDCHAR
STARTCHAR U_tildecomb_acutecomb.ccmp
ENCODING -1
SWIDTH 561 0
DWIDTH 7 0
BBX 6 13 0 0
BITMAP
0240
0A40
0A40
0000
6030
6030
6030
6030
6030
6030
7030
3460
1F80
ENDCHAR
STARTCHAR V_tildecomb.ccmp
ENCODING -1
SWIDTH 560 0
DWIDTH 7 0
BBX 7 12 0 0
BITMAP
0D80
1680
0000
A024
6030
3060
2490
18C0
0DC0
0E80
0B40
0700
ENDCHAR
STARTCHAR v_tildecomb.ccmp
ENCODING -1
SWIDTH 427 0
DWIDTH 5 0
BBX 5 10 0 0
BITMAP
2940
2700
0000
9180
6240
3200
2700
2A00
1D00
0C00
ENDCHAR
STARTCHAR V_dotbelowcomb.ccmp
ENCODING -1
SWIDTH 560 0
DWIDTH 7 0
BBX 7 11 0 -2
BITMAP
A024
6030
3060
2490
18C0
0DC0
0E80
0B40
0700
0000
0600
ENDCHAR
STARTCHAR v_dotbelowcomb.ccmp
ENCODING -1
SWIDTH 427 0
DWIDTH 5 0
BBX 5 9 0 -2
BITMAP
9180
6240
3200
2700
2A00
1D00
0C00
0000
0C00
ENDCHAR
STARTCHAR W_dotbelowcomb.ccmp
ENCODING -1
SWIDTH 761 0
DWIDTH 9 0
BBX 9 11 0 -2
BITMAP
60D180
60D280
31A240
326300
262300
272600
1A1A00
1D1D00
0D0D00
000000
00C000
ENDCHAR
STARTCHAR w_dotbelowcomb.ccmp
ENCODING -1
SWIDTH 649 0
DWIDTH 8 0
BBX 8 9 0 -2
BITMAP
9249
6388
22CC
3698
2DA4
2C74
1830
0000
0240
ENDCHAR
STARTCHAR Z_dotbelowcomb.ccmp
ENCODING -1
SWIDTH 522 0
DWIDTH 6 0
BBX 6 11 0 -2
BITMAP
7FE0
00D0
0180
0340
0A00
0C00
2800
3000
7FE0
0000
0600
ENDCHAR
STARTCHAR z_dotbelowcomb.ccmp
ENCODING -1
SWIDTH 438 0
DWIDTH 5 0
BBX 5 9 0 -2
BITMAP
7F80
0240
0600
0D00
2800
3000
7F80
0000
0900
ENDCHAR
STARTCHAR Alphatonos.c2sc
ENCODING -1
SWIDTH 501 0
DWIDTH 6 0
BBX 6 8 0 0
BITMAP
3000
2A00
0F00
1A40
2580
3FC0
6090
9060
ENDCHAR
STARTCHAR Epsilontonos.c2sc
ENCODING -1
SWIDTH 458 0
DWIDTH 6 0
BBX 6 8 -1 0
BITMAP
9000
8FF0
0C00
0C00
0FE0
0C00
0C00
0FF0
ENDCHAR
STARTCHAR Etatonos.c2sc
ENCODING -1
SWIDTH 562 0
DWIDTH 7 0
BBX 7 8 -1 0
BITMAP
6000
5C0C
0C0C
0C0C
0FFC
0C0C
0C0C
0C0C
ENDCHAR
STARTCHAR Iotatonos.c2sc
ENCODING -1
SWIDTH 250 0
DWIDTH 3 0
BBX 4 8 -1 0
BITMAP
60
59
09
09
09
09
09
09
ENDCHAR
STARTCHAR Omicrontonos.c2sc
ENCODING -1
SWIDTH 523 0
DWIDTH 6 0
BBX 6 8 0 0
BITMAP
C000
9F80
3490
6060
6060
6060
3490
1F80
ENDCHAR
STARTCHAR Upsilontonos.c2sc
ENCODING -1
SWIDTH 487 0
DWIDTH 6 0
BBX 7 8 -1 0
BITMAP
C000
9C24
0930
06A0
03C0
0180
0180
0180
ENDCHAR
STARTCHAR Omegatonos.c2sc
ENCODING -1
SWIDTH 545 0
DWIDTH 7 0
BBX 6 8 0 0
BITMAP
C000
9F80
34A0
7060
6070
3060
2490
7DF0
ENDCHAR
STARTCHAR Alpha.c2sc
ENCODING -1
SWIDTH 501 0
DWIDTH 6 0
BBX 6 7 0 0
BITMAP
0A00
0F00
1A40
2580
3FC0
6090
9060
ENDCHAR
STARTCHAR Beta.c2sc
ENCODING -1
SWIDTH 475 0
DWIDTH 6 0
BBX 5 7 0 0
BITMAP
7F40
61C0
6180
7F40
60C0
60C0
7F40
ENDCHAR
STARTCHAR Epsilon.c2sc
ENCODING -1
SWIDTH 428 0
DWIDTH 5 0
BBX 5 7 0 0
BITMAP
7F80
6000
6000
7F40
6000
6000
7F80
ENDCHAR
STARTCHAR Zeta.c2sc
ENCODING -1
SWIDTH 454 0
DWIDTH 5 0
BBX 5 7 0 0
BITMAP
BFC0
0240
0600
0D00
2800
3000
BFC0
ENDCHAR
STARTCHAR Eta.c2sc
ENCODING -1
SWIDTH 533 0
DWIDTH 6 0
BBX 6 7 0 0
BITMAP
6060
6060
6060
7FE0
6060
6060
6060
ENDCHAR
STARTCHAR Iota.c2sc
ENCODING -1
SWIDTH 221 0
DWIDTH 3 0
BBX 2 7 0 0
BITMAP
70
70
70
70
70
70
70
ENDCHAR
STARTCHAR Kappa.c2sc
ENCODING -1
SWIDTH 473 0
DWIDTH 6 0
BBX 6 7 0 0
BITMAP
61C0
6340
6A00
7D00
7700
6280
60D0
ENDCHAR
STARTCHAR Mu.c2sc
ENCODING -1
SWIDTH 652 0
DWIDTH 8 0
BBX 7 7 0 0
BITMAP
741C
782C
6C2C
695C
668C
638C
624C
ENDCHAR
STARTCHAR Nu.c2sc
ENCODING -1
SWIDTH 533 0
DWIDTH 6 0
BBX 6 7 0 0
BITMAP
7060
7860
6860
6660
62A0
61E0
60A0
ENDCHAR
STARTCHAR Omicron.c2sc
ENCODING -1
SWIDTH 519 0
DWIDTH 6 0
BBX 6 7 0 0
BITMAP
1F40
34D0
6060
6060
6060
34D0
1F40
ENDCHAR
STARTCHAR Rho.c2sc
ENCODING -1
SWIDTH 481 0
DWIDTH 6 0
BBX 6 7 0 0
BITMAP
7F80
60D0
60D0
7F80
6000
6000
6000
ENDCHAR
STARTCHAR Tau.c2sc
ENCODING -1
SWIDTH 456 0
DWIDTH 5 0
BBX 5 7 0 0
BITMAP
BFC0
0900
0900
0900
0900
0900
0900
ENDCHAR
STARTCHAR Upsilon.c2sc
ENCODING -1
SWIDTH 458 0
DWIDTH 6 0
BBX 5 7 0 0
BITMAP
A0C0
3180
2740
1E00
0D00
0900
0900
ENDCHAR
STARTCHAR Chi.c2sc
ENCODING -1
SWIDTH 478 0
DWIDTH 6 0
BBX 6 7 0 0
BITMAP
60C0
2680
1F00
0E00
1B00
3680
60D0
ENDCHAR
STARTCHAR Iotadieresis.c2sc
ENCODING -1
SWIDTH 221 0
DWIDTH 3 0
BBX 4 9 -1 0
BITMAP
63
00
1C
1C
1C
1C
1C
1C
1C
ENDCHAR
STARTCHAR Upsilondieresis.c2sc
ENCODING -1
SWIDTH 458 0
DWIDTH 6 0
BBX 5 9 0 0
BITMAP
3180
0000
A0C0
3180
2740
1E00
0D00
0900
0900
ENDCHAR
STARTCHAR uni0401.c2sc
ENCODING -1
SWIDTH 428 0
DWIDTH 5 0
BBX 5 9 0 0
BITMAP
3180
0000
7F80
6000
6000
7F40
6000
6000
7F80
ENDCHAR
STARTCHAR uni0403.c2sc
ENCODING -1
SWIDTH 405 0
DWIDTH 5 0
BBX 5 10 0 0
BITMAP
0340
0900
0000
7F80
6000
6000
6000
6000
6000
6000
ENDCHAR
STARTCHAR uni0405.c2sc
ENCODING -1
SWIDTH 453 0
DWIDTH 5 0
BBX 5 7 0 0
BITMAP
2F40
61C0
7440
1F40
01C0
61C0
2F40
ENDCHAR
STARTCHAR uni0406.c2sc
ENCODING -1
SWIDTH 221 0
DWIDTH 3 0
BBX 2 7 0 0
BITMAP
70
70
70
70
70
70
70
ENDCHAR
STARTCHAR uni0407.c2sc
ENCODING -1
SWIDTH 221 0
DWIDTH 3 0
BBX 4 9 -1 0
BITMAP
63
00
1C
1C
1C
1C
1C
1C
1C
ENDCHAR
STARTCHAR uni0408.c2sc
ENCODING -1
SWIDTH 419 0
DWIDTH 5 0
BBX 5 7 0 0
BITMAP
0240
0240
0240
0240
0240
A340
2E00
ENDCHAR
STARTCHAR uni040C.c2sc
ENCODING -1
SWIDTH 473 0
DWIDTH 6 0
BBX 6 10 0 0
BITMAP
0740
0900
0000
61C0
6340
6A00
7D00
7700
6280
60D0
ENDCHAR
STARTCHAR uni040E.c2sc
ENCODING -1
SWIDTH 454 0
DWIDTH 5 0
BBX 5 10 0 0
BITMAP
3240
1E00
0000
A0C0
7180
2640
1B00
0E00
0D00
3800
ENDCHAR
STARTCHAR uni0410.c2sc
ENCODING -1
SWIDTH 501 0
DWIDTH 6 0
BBX 6 7 0 0
BITMAP
0A00
0F00
1A40
2580
3FC0
6090
9060
ENDCHAR
STARTCHAR uni0412.c2sc
ENCODING -1
SWIDTH 475 0
DWIDTH 6 0
BBX 5 7 0 0
BITMAP
7F40
61C0
6180
7F40
60C0
60C0
7F40
ENDCHAR
STARTCHAR uni0413.c2sc
ENCODING -1
SWIDTH 405 0
DWIDTH 5 0
BBX 5 7 0 0
BITMAP
7F80
6000
6000
6000
6000
6000
6000
ENDCHAR
STARTCHAR uni0415.c2sc
ENCODING -1
SWIDTH 428 0
DWIDTH 5 0
BBX 5 7 0 0
BITMAP
7F80
6000
6000
7F40
6000
6000
7F80
ENDCHAR
STARTCHAR uni0419.c2sc
ENCODING -1
SWIDTH 537 0
DWIDTH 6 0
BBX 6 10 0 0
BITMAP
18C0
0B40
0000
60A0
61E0
62A0
6660
6D60
7860
7060
ENDCHAR
STARTCHAR uni041C.c2sc
ENCODING -1
SWIDTH 652 0
DWIDTH 8 0
BBX 7 7 0 0
BITMAP
741C
782C
6C2C
695C
668C
638C
624C
ENDCHAR
STARTCHAR uni041D.c2sc
ENCODING -1
SWIDTH 533 0
DWIDTH 6 0
BBX 6 7 0 0
BITMAP
6060
6060
6060
7FE0
6060
6060
6060
ENDCHAR
STARTCHAR uni041E.c2sc
ENCODING -1
SWIDTH 519 0
DWIDTH 6 0
BBX 6 7 0 0
BITMAP
1F40
34D0
6060
6060
6060
34D0
1F40
ENDCHAR
STARTCHAR uni041F.c2sc
ENCODING -1
SWIDTH 525 0
DWIDTH 6 0
BBX 6 7 0 0
BITMAP
7FE0
60A0
60A0
60A0
60A0
60A0
60A0
ENDCHAR
STARTCHAR uni0420.c2sc
ENCODING -1
SWIDTH 481 0
DWIDTH 6 0
BBX 6 7 0 0
BITMAP
7F80
60D0
60D0
7F80
6000
6000
6000
ENDCHAR
STARTCHAR uni0421.c2sc
ENCODING -1
SWIDTH 490 0
DWIDTH 6 0
BBX 6 7 0 0
BITMAP
1F40
34D0
6050
6000
6040
34D0
1F40
ENDCHAR
STARTCHAR uni0422.c2sc
ENCODING -1
SWIDTH 456 0
DWIDTH 5 0
BBX 5 7 0 0
BITMAP
BFC0
0900
0900
0900
0900
0900
0900
ENDCHAR
STARTCHAR uni0425.c2sc
ENCODING -1
SWIDTH 478 0
DWIDTH 6 0
BBX 6 7 0 0
BITMAP
60C0
2680
1F00
0E00
1B00
3680
60D0
ENDCHAR
STARTCHAR uni0498.c2sc
ENCODING -1
SWIDTH 466 0
DWIDTH 6 0
BBX 5 9 0 -2
BITMAP
2F40
6180
0180
0F00
0180
61C0
2F40
0C00
0C00
ENDCHAR
STARTCHAR uni04A2.c2sc
ENCODING -1
SWIDTH 533 0
DWIDTH 6 0
BBX 7 9 0 -2
BITMAP
6060
6060
6060
7FE0
6060
6060
6078
0028
0028
ENDCHAR
STARTCHAR uni04AA.c2sc
ENCODING -1
SWIDTH 490 0
DWIDTH 6 0
BBX 6 9 0 -2
BITMAP
1F40
34D0
6040
6000
6040
34D0
1F80
0A00
0A00
ENDCHAR
STARTCHAR uni04AE.c2sc
ENCODING -1
SWIDTH 458 0
DWIDTH 6 0
BBX 5 7 0 0
BITMAP
A0C0
3180
2740
1E00
0D00
0900
0900
ENDCHAR
STARTCHAR uni04BE.c2sc
ENCODING -1
SWIDTH 632 0
DWIDTH 8 0
BBX 7 9 0 -2
BITMAP
02E0
4928
9C0C
7FFC
0C00
0910
02F0
00C0
00C0
ENDCHAR
STARTCHAR uni04E2.c2sc
ENCODING -1
SWIDTH 537 0
DWIDTH 6 0
BBX 6 9 0 0
BITMAP
1FC0
0000
60A0
61E0
62A0
6660
6D60
7860
7060
ENDCHAR
STARTCHAR uni04EE.c2sc
ENCODING -1
SWIDTH 454 0
DWIDTH 5 0
BBX 5 9 0 0
BITMAP
3F40
0000
A0C0
7180
2640
1B00
0E00
0D00
3800
ENDCHAR
STARTCHAR uni0424.c2sc
ENCODING -1
SWIDTH 587 0
DWIDTH 7 0
BBX 7 7 0 0
BITMAP
0300
1FD0
7374
6324
7374
1FD0
0300
ENDCHAR
STARTCHAR IJ.c2sc
ENCODING -1
SWIDTH 641 0
DWIDTH 8 0
BBX 7 7 0 0
BITMAP
700C
700C
700C
700C
700C
735C
71F4
ENDCHAR
STARTCHAR AEacute.c2sc
ENCODING -1
SWIDTH 676 0
DWIDTH 8 0
BBX 8 9 0 0
BITMAP
0070
0090
03FD
06C0
09C0
18FC
2FC0
20C0
90FE
ENDCHAR
STARTCHAR Oslashacute.c2sc
ENCODING -1
SWIDTH 519 0
DWIDTH 6 0
BBX 6 9 0 0
BITMAP
0280
0600
1F90
35D0
62A0
6660
6860
38D0
2F40
ENDCHAR
STARTCHAR uni0218.c2sc
ENCODING -1
SWIDTH 453 0
DWIDTH 5 0
BBX 5 10 0 -3
BITMAP
2F40
61C0
7440
1F40
01C0
61C0
2F40
0000
0900
0800
ENDCHAR
STARTCHAR Wgrave.c2sc
ENCODING -1
SWIDTH 655 0
DWIDTH 8 0
BBX 8 9 0 0
BITMAP
0600
0240
9289
6289
228C
369C
2968
2C34
1C34
ENDCHAR
STARTCHAR Wacute.c2sc
ENCODING -1
SWIDTH 655 0
DWIDTH 8 0
BBX 8 9 0 0
BITMAP
0090
0180
9289
6289
228C
369C
2968
2C34
1C34
ENDCHAR
STARTCHAR Wdieresis.c2sc
ENCODING -1
SWIDTH 655 0
DWIDTH 8 0
BBX 8 8 0 0
BITMAP
0960
9289
6289
228C
369C
2968
2C34
1C34
ENDCHAR
STARTCHAR Ygrave.c2sc
ENCODING -1
SWIDTH 458 0
DWIDTH 6 0
BBX 5 9 0 0
BITMAP
2800
0800
A0C0
3180
2740
1E00
0D00
0900
0900
ENDCHAR
STARTCHAR Aogonek.locl
ENCODING -1
SWIDTH 576 0
DWIDTH 7 0
BBX 7 11 0 -2
BITMAP
0300
0740
0A80
0CC0
1890
24A0
3FF0
7034
A128
0900
0B00
ENDCHAR
STARTCHAR aogonek.locl
ENCODING -1
SWIDTH 479 0
DWIDTH 6 0
BBX 5 9 0 -2
BITMAP
1F40
3180
00C0
1FC0
70C0
71C0
2EC0
1400
2C00
ENDCHAR
STARTCHAR Eogonek.locl
ENCODING -1
SWIDTH 496 0
DWIDTH 6 0
BBX 5 11 1 -2
BITMAP
FF40
C000
C000
C000
FF00
C000
C000
C000
FF80
2000
3800
ENDCHAR
STARTCHAR eogonek.locl
ENCODING -1
SWIDTH 468 0
DWIDTH 6 0
BBX 5 9 0 -2
BITMAP
1F40
31C0
60C0
7FC0
6000
3040
1F80
1800
1D00
ENDCHAR
STARTCHAR Aogonek.c2sc.locl
ENCODING -1
SWIDTH 501 0
DWIDTH 6 0
BBX 6 9 0 -2
BITMAP
0A00
0F00
1A40
2580
3FC0
6090
9060
0800
0D00
ENDCHAR
STARTCHAR Eogonek.c2sc.locl
ENCODING -1
SWIDTH 428 0
DWIDTH 5 0
BBX 5 9 0 -2
BITMAP
7F80
6000
6000
7F40
6000
6000
7F80
1800
1D00
ENDCHAR
STARTCHAR glyph1293
ENCODING -1
SWIDTH 234 0
DWIDTH 3 0
BBX 2 9 0 -2
BITMAP
30
30
30
30
30
30
30
00
60
ENDCHAR
ENDFONT
